<svg xmlns="http://www.w3.org/2000/svg" width="1200" height="640" viewBox="0 0 1200 640">
<rect width="100%" height="100%" fill="#FBFAF7"/>
<text x="600" y="34" text-anchor="middle" font-family="Verdana, sans-serif" font-size="24" font-weight="700" fill="#1F2933">Consumer_Disc: TSLA/LULU Model PnL With Train/Test Boundary</text>
<rect x="90.00" y="80" width="800.09" height="478" fill="#D8F3DC" opacity="0.35"/>
<text x="490.05" y="100" text-anchor="middle" font-family="Verdana, sans-serif" font-size="12" fill="#334155">Training/validation</text>
<rect x="890.09" y="80" width="199.91" height="478" fill="#FFE8D6" opacity="0.45"/>
<text x="990.05" y="100" text-anchor="middle" font-family="Verdana, sans-serif" font-size="12" fill="#334155">Simulation</text>
<line x1="90" y1="558.00" x2="1090" y2="558.00" stroke="#D7D7D7" stroke-width="1"/>
<text x="80" y="562.00" text-anchor="end" font-family="Verdana, sans-serif" font-size="11" fill="#475569">-6.9368</text>
<line x1="90" y1="462.40" x2="1090" y2="462.40" stroke="#D7D7D7" stroke-width="1"/>
<text x="80" y="466.40" text-anchor="end" font-family="Verdana, sans-serif" font-size="11" fill="#475569">-4.9021</text>
<line x1="90" y1="366.80" x2="1090" y2="366.80" stroke="#D7D7D7" stroke-width="1"/>
<text x="80" y="370.80" text-anchor="end" font-family="Verdana, sans-serif" font-size="11" fill="#475569">-2.8674</text>
<line x1="90" y1="271.20" x2="1090" y2="271.20" stroke="#D7D7D7" stroke-width="1"/>
<text x="80" y="275.20" text-anchor="end" font-family="Verdana, sans-serif" font-size="11" fill="#475569">-0.8327</text>
<line x1="90" y1="175.60" x2="1090" y2="175.60" stroke="#D7D7D7" stroke-width="1"/>
<text x="80" y="179.60" text-anchor="end" font-family="Verdana, sans-serif" font-size="11" fill="#475569">1.2020</text>
<line x1="90" y1="80.00" x2="1090" y2="80.00" stroke="#D7D7D7" stroke-width="1"/>
<text x="80" y="84.00" text-anchor="end" font-family="Verdana, sans-serif" font-size="11" fill="#475569">3.2367</text>
<line x1="90.00" y1="80" x2="90.00" y2="558" stroke="#ECECEC" stroke-width="1"/>
<text x="90.00" y="586" text-anchor="middle" font-family="Verdana, sans-serif" font-size="11" fill="#475569">2020-04-29</text>
<line x1="290.00" y1="80" x2="290.00" y2="558" stroke="#ECECEC" stroke-width="1"/>
<text x="290.00" y="586" text-anchor="middle" font-family="Verdana, sans-serif" font-size="11" fill="#475569">2021-07-12</text>
<line x1="490.00" y1="80" x2="490.00" y2="558" stroke="#ECECEC" stroke-width="1"/>
<text x="490.00" y="586" text-anchor="middle" font-family="Verdana, sans-serif" font-size="11" fill="#475569">2022-09-24</text>
<line x1="690.00" y1="80" x2="690.00" y2="558" stroke="#ECECEC" stroke-width="1"/>
<text x="690.00" y="586" text-anchor="middle" font-family="Verdana, sans-serif" font-size="11" fill="#475569">2023-12-07</text>
<line x1="890.00" y1="80" x2="890.00" y2="558" stroke="#ECECEC" stroke-width="1"/>
<text x="890.00" y="586" text-anchor="middle" font-family="Verdana, sans-serif" font-size="11" fill="#475569">2025-02-18</text>
<line x1="1090.00" y1="80" x2="1090.00" y2="558" stroke="#ECECEC" stroke-width="1"/>
<text x="1090.00" y="586" text-anchor="middle" font-family="Verdana, sans-serif" font-size="11" fill="#475569">2026-05-04</text>
<line x1="90" y1="80" x2="90" y2="558" stroke="#1F2933" stroke-width="1.2"/>
<line x1="90" y1="558" x2="1090" y2="558" stroke="#1F2933" stroke-width="1.2"/>
<text x="24" y="319" text-anchor="middle" transform="rotate(-90 24 319)" font-family="Verdana, sans-serif" font-size="13" fill="#1F2933">Cumulative PnL proxy</text>
<line x1="686.08" y1="80" x2="686.08" y2="558" stroke="#52796F" stroke-width="2.2" stroke-dasharray="2,5"/>
<text x="694.08" y="122" font-family="Verdana, sans-serif" font-size="12" fill="#52796F">Validation starts 2023-11-29</text>
<line x1="890.09" y1="80" x2="890.09" y2="558" stroke="#1D3557" stroke-width="2.2" stroke-dasharray="7,5"/>
<text x="898.09" y="122" font-family="Verdana, sans-serif" font-size="12" fill="#1D3557">Simulation starts 2025-02-19</text>
<polyline points="90.00,232.08 93.19,228.36 94.10,231.08 97.29,236.72 98.65,241.34 99.11,245.67 100.02,258.35 100.47,270.75 102.30,281.83 102.75,294.53 103.21,306.48 103.66,319.68 125.06,314.88 125.97,317.17 127.34,320.95 127.80,325.78 128.25,329.68 128.71,331.91 135.54,337.07 136.90,344.78 137.36,351.06 137.81,350.62 138.27,350.49 138.72,346.90 140.09,338.39 140.55,331.50 147.83,336.96 148.29,334.50 150.11,345.41 152.84,328.58 153.75,314.59 154.21,302.03 156.03,291.74 156.48,293.80 156.94,303.41 157.40,312.34 157.85,324.21 159.22,336.21 166.50,336.92 166.96,339.84 167.41,340.44 168.78,337.71 169.23,331.35 185.63,330.73 186.54,330.18 188.36,334.31 188.82,340.76 189.27,344.92 195.19,343.39 201.57,336.49 205.66,331.92 207.03,328.71 207.94,319.30 208.40,311.21 208.85,307.21 210.67,298.81 211.13,298.18 211.58,297.74 212.04,297.21 213.41,292.66 213.86,286.48 214.77,280.42 215.23,277.29 216.59,277.26 220.69,283.27 224.34,282.73 224.79,279.77 229.80,278.65 233.44,282.71 233.90,287.19 236.17,291.04 242.09,296.33 242.55,299.42 243.01,296.49 245.28,285.42 245.74,276.75 246.19,270.04 247.10,275.51 248.47,284.35 256.21,288.68 256.67,288.01 258.03,290.71 258.49,287.73 258.94,283.64 259.40,276.90 261.22,276.93 268.96,276.82 271.69,275.59 272.15,274.73 272.60,277.69 278.52,284.05 280.35,288.87 280.80,295.18 281.26,298.87 284.44,299.09 284.90,300.00 285.36,301.08 287.63,307.21 289.91,306.91 290.36,306.10 291.28,307.12 291.73,306.25 299.93,306.53 304.03,304.48 340.91,305.02 341.82,306.56 342.73,302.71 344.10,306.40 347.74,306.93 350.47,300.47 350.93,293.29 352.30,289.70 373.70,285.71 377.80,281.43 379.16,284.46 379.62,281.15 380.07,273.47 380.53,276.10 380.98,282.33 382.81,294.78 383.26,313.31 385.99,310.14 386.45,305.53 401.93,304.19 402.39,304.97 402.84,305.44 403.30,309.25 404.66,308.16 405.12,307.92 407.85,308.67 408.31,314.35 408.76,333.09 409.22,346.73 412.40,352.10 412.86,355.41 414.68,359.26 415.14,367.51 415.59,374.41 417.41,381.08 428.34,371.20 428.80,373.82 430.16,382.29 430.62,385.94 431.07,379.66 431.53,371.35 434.26,369.61 434.72,376.64 435.17,378.51 436.99,381.37 437.45,387.72 437.91,397.76 441.55,394.57 442.91,389.86 443.37,383.19 443.83,376.17 449.74,377.97 453.39,378.95 454.30,382.46 455.66,389.03 462.50,381.29 462.95,373.54 463.41,370.64 465.68,372.60 468.87,375.73 470.24,375.30 471.60,377.52 472.51,379.87 472.97,383.29 474.79,380.82 475.25,376.65 475.70,373.38 476.16,370.85 482.53,385.42 492.09,386.52 492.55,382.65 493.92,387.75 494.37,397.05 495.74,412.85 507.12,415.29 507.58,415.42 508.03,416.60 508.49,420.11 509.85,425.15 510.31,432.72 510.77,443.63 511.22,461.96 511.68,476.46 513.04,487.93 513.50,497.89 513.95,507.59 520.78,511.55 521.24,516.45 522.60,522.27 523.06,524.72 536.27,525.03 539.00,515.40 539.45,508.25 539.91,498.92 540.36,490.15 546.28,479.94 546.74,465.70 548.11,453.61 548.56,443.26 549.02,434.92 549.47,432.31 549.93,432.46 551.29,428.53 551.75,427.18 552.20,419.88 552.66,410.77 553.11,405.35 554.48,407.57 554.94,405.00 555.39,408.04 555.85,413.54 556.30,415.03 562.68,418.15 564.04,419.21 564.50,420.68 564.95,424.39 568.60,419.72 575.43,433.47 576.79,450.15 577.25,465.38 583.17,466.38 583.62,469.18 584.08,471.31 587.72,472.58 588.18,473.49 589.54,474.84 590.46,476.00 590.91,476.97 591.37,477.47 592.73,473.72 593.19,471.43 593.64,468.01 594.10,463.49 618.23,458.28 621.88,460.04 622.33,464.13 622.79,467.89 623.24,472.04 624.61,473.03 629.16,470.86 629.62,468.18 634.63,470.14 635.08,474.19 635.54,476.99 635.99,480.05 637.36,483.08 637.81,487.14 638.27,490.13 638.72,492.88 639.18,498.53 640.55,500.21 641.00,499.02 641.46,495.67 641.91,488.27 642.37,478.53 643.73,471.04 645.10,472.37 663.32,470.74 680.16,469.68 680.62,468.07 681.99,468.91 682.44,468.20 682.90,468.95 685.63,466.57 686.54,470.34 686.99,478.88 688.36,485.63 689.27,492.46 689.73,496.62 713.86,500.88 714.32,506.10 715.23,501.43 715.68,496.34 717.05,492.48 717.50,487.85 734.81,492.30 736.17,493.86 736.63,496.06 737.09,495.29 737.54,494.62 738.00,475.74 758.49,473.52 788.54,470.11 789.00,467.91 790.36,463.77 790.82,465.60 791.28,470.21 791.73,466.99 792.19,464.27 793.55,465.03 794.01,462.67 794.92,451.67 798.11,453.24 798.56,447.47 799.93,442.42 800.38,438.15 800.84,435.00 801.29,435.58 801.75,438.72 803.11,442.23 803.57,443.10 804.03,444.34 809.95,451.67 810.40,452.46 810.86,451.46 811.31,448.76 813.13,443.29 813.59,434.04 817.23,437.10 819.05,442.59 819.51,452.02 819.96,458.99 825.43,462.02 825.88,462.66 826.34,464.52 831.80,475.02 832.26,484.67 832.71,497.07 833.17,505.06 833.62,510.02 834.99,514.55 835.45,519.52 835.90,520.77 836.36,519.26 839.09,514.75 844.55,497.72 845.01,485.80 845.92,489.11 846.38,493.53 847.74,491.72 848.20,482.06 850.93,488.50 851.38,496.07 851.84,501.60 858.21,511.95 860.95,501.58 861.40,491.44 874.15,482.43 874.61,473.46 875.06,463.15 876.89,452.82 879.62,465.10 880.07,479.18 884.63,479.79 885.99,480.94 890.09,467.17 892.37,471.15 901.93,465.55 902.84,472.74 903.30,479.15 903.75,483.74 908.31,467.20 908.76,448.34 910.13,440.38 911.49,437.54 911.95,432.13 912.40,430.16 912.86,433.32 913.32,429.68 914.68,423.65 915.14,421.07 915.59,415.63 916.05,415.17 917.87,416.78 918.32,420.45 918.78,425.73 919.23,432.07 927.43,436.53 928.34,441.83 928.80,447.54 930.62,451.54 931.07,456.36 931.53,458.83 931.99,459.65 932.44,457.13 934.26,453.46 934.72,447.52 935.17,444.14 935.63,442.02 940.18,420.87 940.64,392.80 941.09,359.99 941.55,320.11 942.00,303.27 943.37,291.86 943.83,282.13 944.28,271.15 945.19,260.97 946.56,250.83 947.01,245.09 947.47,241.61 947.92,242.60 948.38,246.27 949.74,256.82 950.20,268.71 959.76,266.54 960.22,263.91 962.50,260.78 962.95,257.03 963.41,249.35 963.86,238.65 964.32,225.73 965.68,216.62 966.14,207.53 966.59,201.57 967.05,193.83 967.50,187.43 968.87,176.94 969.33,171.01 969.78,170.63 970.24,171.23 970.69,176.64 972.06,187.63 972.51,192.14 982.99,162.38 983.44,150.99 984.81,137.23 985.26,125.68 985.72,115.89 986.17,112.97 986.63,116.55 988.00,123.42 988.45,130.73 988.91,139.80 1001.20,146.66 1001.66,153.95 1002.11,161.75 1002.57,169.75 1004.39,166.98 1004.85,159.23 1005.76,151.66 1007.12,139.19 1008.03,137.25 1008.49,133.47 1008.94,133.26 1010.31,139.10 1010.77,146.18 1011.22,151.83 1011.68,161.06 1019.87,166.23 1020.78,166.44 1021.24,164.55 1021.69,165.63 1023.06,165.04 1023.52,163.27 1024.88,171.86 1027.16,182.39 1027.61,195.30 1028.07,195.65 1029.44,197.81 1029.89,201.60 1030.35,201.26 1031.26,198.66 1032.62,202.57 1033.08,205.06 1033.53,205.95 1034.44,211.02 1036.27,215.70 1036.72,218.76 1037.63,214.10 1039.00,212.52 1039.45,208.82 1039.91,203.10 1040.36,198.77 1045.37,193.59 1045.83,190.83 1046.28,184.79 1046.74,174.10 1047.19,165.38 1048.56,158.14 1049.02,149.34 1049.47,150.67 1049.93,151.24 1050.38,152.29 1051.75,150.55 1052.20,156.29 1053.11,153.64 1053.57,155.36 1056.76,167.78 1059.95,167.52 1062.68,159.38 1063.13,150.06 1066.32,141.82 1067.69,135.14 1068.14,129.96 1068.60,133.62 1069.05,140.82 1069.51,147.45 1070.87,152.51 1071.33,155.73 1075.43,160.57 1077.25,169.87 1077.70,177.25 1081.35,173.89 1081.80,165.79 1082.26,161.78 1083.62,159.79 1088.18,155.48 1088.63,145.00 1090.00,127.91" fill="none" stroke="#0B6E4F" stroke-width="3" stroke-linejoin="round" stroke-linecap="round"/>
<rect x="96" y="90" width="330" height="58" rx="8" fill="#FFFFFF" opacity="0.86" stroke="#E5E7EB"/>
<line x1="108" y1="108" x2="144" y2="108" stroke="#0B6E4F" stroke-width="3"/>
<text x="154" y="112" font-family="Verdana, sans-serif" font-size="12" fill="#1F2933">Model cumulative PnL proxy</text>
</svg>