<svg xmlns="http://www.w3.org/2000/svg" width="1200" height="640" viewBox="0 0 1200 640">
<rect width="100%" height="100%" fill="#FBFAF7"/>
<text x="600" y="34" text-anchor="middle" font-family="Verdana, sans-serif" font-size="24" font-weight="700" fill="#1F2933">Consumer_Staples: GIS/HSY Test PnL vs S&amp;P 500</text>
<line x1="90" y1="558.00" x2="1090" y2="558.00" stroke="#D7D7D7" stroke-width="1"/>
<text x="80" y="562.00" text-anchor="end" font-family="Verdana, sans-serif" font-size="11" fill="#475569">-0.1350</text>
<text x="1100" y="562.00" text-anchor="start" font-family="Verdana, sans-serif" font-size="11" fill="#475569">-20.8%</text>
<line x1="90" y1="462.40" x2="1090" y2="462.40" stroke="#D7D7D7" stroke-width="1"/>
<text x="80" y="466.40" text-anchor="end" font-family="Verdana, sans-serif" font-size="11" fill="#475569">0.2565</text>
<text x="1100" y="466.40" text-anchor="start" font-family="Verdana, sans-serif" font-size="11" fill="#475569">-12.3%</text>
<line x1="90" y1="366.80" x2="1090" y2="366.80" stroke="#D7D7D7" stroke-width="1"/>
<text x="80" y="370.80" text-anchor="end" font-family="Verdana, sans-serif" font-size="11" fill="#475569">0.6479</text>
<text x="1100" y="370.80" text-anchor="start" font-family="Verdana, sans-serif" font-size="11" fill="#475569">-3.8%</text>
<line x1="90" y1="271.20" x2="1090" y2="271.20" stroke="#D7D7D7" stroke-width="1"/>
<text x="80" y="275.20" text-anchor="end" font-family="Verdana, sans-serif" font-size="11" fill="#475569">1.0394</text>
<text x="1100" y="275.20" text-anchor="start" font-family="Verdana, sans-serif" font-size="11" fill="#475569">4.7%</text>
<line x1="90" y1="175.60" x2="1090" y2="175.60" stroke="#D7D7D7" stroke-width="1"/>
<text x="80" y="179.60" text-anchor="end" font-family="Verdana, sans-serif" font-size="11" fill="#475569">1.4308</text>
<text x="1100" y="179.60" text-anchor="start" font-family="Verdana, sans-serif" font-size="11" fill="#475569">13.3%</text>
<line x1="90" y1="80.00" x2="1090" y2="80.00" stroke="#D7D7D7" stroke-width="1"/>
<text x="80" y="84.00" text-anchor="end" font-family="Verdana, sans-serif" font-size="11" fill="#475569">1.8223</text>
<text x="1100" y="84.00" text-anchor="start" font-family="Verdana, sans-serif" font-size="11" fill="#475569">21.8%</text>
<line x1="90.00" y1="80" x2="90.00" y2="558" stroke="#ECECEC" stroke-width="1"/>
<text x="90.00" y="586" text-anchor="middle" font-family="Verdana, sans-serif" font-size="11" fill="#475569">2025-02-10</text>
<line x1="290.00" y1="80" x2="290.00" y2="558" stroke="#ECECEC" stroke-width="1"/>
<text x="290.00" y="586" text-anchor="middle" font-family="Verdana, sans-serif" font-size="11" fill="#475569">2025-05-09</text>
<line x1="490.00" y1="80" x2="490.00" y2="558" stroke="#ECECEC" stroke-width="1"/>
<text x="490.00" y="586" text-anchor="middle" font-family="Verdana, sans-serif" font-size="11" fill="#475569">2025-08-06</text>
<line x1="690.00" y1="80" x2="690.00" y2="558" stroke="#ECECEC" stroke-width="1"/>
<text x="690.00" y="586" text-anchor="middle" font-family="Verdana, sans-serif" font-size="11" fill="#475569">2025-11-03</text>
<line x1="890.00" y1="80" x2="890.00" y2="558" stroke="#ECECEC" stroke-width="1"/>
<text x="890.00" y="586" text-anchor="middle" font-family="Verdana, sans-serif" font-size="11" fill="#475569">2026-01-31</text>
<line x1="1090.00" y1="80" x2="1090.00" y2="558" stroke="#ECECEC" stroke-width="1"/>
<text x="1090.00" y="586" text-anchor="middle" font-family="Verdana, sans-serif" font-size="11" fill="#475569">2026-04-30</text>
<line x1="90" y1="80" x2="90" y2="558" stroke="#1F2933" stroke-width="1.2"/>
<line x1="90" y1="558" x2="1090" y2="558" stroke="#1F2933" stroke-width="1.2"/>
<text x="24" y="319" text-anchor="middle" transform="rotate(-90 24 319)" font-family="Verdana, sans-serif" font-size="13" fill="#1F2933">Cumulative PnL proxy</text>
<line x1="1090" y1="80" x2="1090" y2="558" stroke="#1F2933" stroke-width="1.2"/>
<text x="1178" y="319" text-anchor="middle" transform="rotate(90 1178 319)" font-family="Verdana, sans-serif" font-size="13" fill="#1F2933">S&amp;P 500 cumulative return</text>
<polyline points="90.00,525.03 108.02,512.93 110.27,500.38 112.52,494.27 114.77,487.29 121.53,478.40 123.78,480.27 126.04,478.70 128.29,476.12 130.54,474.86 137.30,477.27 139.55,477.67 141.80,479.26 144.05,481.33 184.59,472.45 200.36,476.41 202.61,480.33 220.63,475.54 222.88,465.15 225.14,457.64 254.41,457.66 267.93,454.89 270.18,448.43 272.43,445.37 279.19,438.89 281.44,427.25 283.69,415.85 285.95,409.26 288.20,397.97 294.95,396.27 297.21,399.32 299.46,400.96 301.71,405.90 303.96,419.62 310.72,429.31 312.97,440.34 315.23,450.21 330.99,443.72 373.78,434.77 376.04,428.13 378.29,420.87 382.79,413.69 389.55,409.62 391.80,407.65 394.05,397.75 396.31,388.23 398.56,380.94 405.32,380.18 407.57,375.81 409.82,381.74 412.07,386.10 421.08,384.47 436.85,393.46 459.37,385.26 461.62,375.83 468.38,372.30 470.63,363.94 472.88,349.20 475.14,337.75 477.39,325.85 484.14,316.85 486.40,310.36 488.65,311.18 490.90,315.89 493.15,324.50 499.91,339.47 502.16,350.64 504.41,360.28 565.23,363.81 569.73,368.59 594.50,368.15 596.76,375.43 599.01,385.12 610.27,390.28 635.05,390.94 641.80,389.04 646.31,385.43 648.56,385.95 657.57,391.96 662.07,405.68 664.32,411.49 677.84,406.29 695.86,404.14 698.11,404.75 704.86,397.34 707.12,392.44 725.14,393.42 736.40,387.44 738.65,380.41 740.90,373.19 745.41,366.24 752.16,360.71 754.41,358.12 756.67,359.67 758.92,358.55 761.17,356.26 767.93,354.34 770.18,356.47 774.68,358.69 776.94,363.24 803.96,358.70 808.47,353.78 833.24,338.66 840.00,330.36 846.76,317.60 849.01,309.75 851.26,311.82 853.51,310.89 855.77,303.28 864.77,304.07 867.03,301.95 869.28,302.95 871.53,305.54 878.29,312.79 880.54,320.31 882.79,325.86 903.06,306.47 914.32,290.64 916.58,290.48 918.83,299.34 927.84,289.90 943.60,284.76 945.86,275.00 948.11,267.56 950.36,260.79 957.12,252.80 959.37,245.40 961.62,238.41 963.87,234.48 966.13,237.36 972.88,237.07 975.14,235.25 977.39,228.72 979.64,212.35 990.90,192.07 993.15,176.85 995.41,168.62 997.66,158.83 1004.41,152.24 1006.67,141.68 1008.92,129.19 1011.17,119.60 1013.42,113.27 1020.18,112.97 1022.43,121.43 1024.68,139.30 1026.94,152.01 1035.95,164.57 1074.23,165.11 1076.49,162.52 1083.24,162.97 1085.50,161.66 1087.75,156.30 1090.00,160.74" fill="none" stroke="#184E77" stroke-width="3" stroke-linejoin="round" stroke-linecap="round"/>
<polyline points="90.00,324.45 90.00,324.45 92.25,324.07 94.50,327.13 96.76,315.45 99.01,315.53 108.02,312.76 110.27,310.07 112.52,315.00 114.77,334.32 121.53,339.85 123.78,345.03 126.04,344.88 128.29,362.37 130.54,345.17 137.30,364.57 139.55,377.81 141.80,365.88 144.05,385.15 146.31,379.28 153.06,408.09 155.32,415.96 157.57,410.92 159.82,425.31 162.07,403.58 168.83,396.88 171.08,408.07 173.33,396.85 175.59,399.15 177.84,398.28 184.59,379.77 186.85,378.09 189.10,390.02 191.35,393.52 193.60,414.32 200.36,408.59 202.61,404.67 204.86,397.65 207.12,448.45 209.37,508.13 216.13,510.32 218.38,525.03 220.63,437.27 222.88,472.23 225.14,454.59 231.89,446.70 234.14,448.43 236.40,470.81 238.65,469.52 247.66,492.56 249.91,468.58 252.16,452.27 254.41,432.12 256.67,424.63 263.42,423.98 265.68,418.04 267.93,416.51 270.18,410.02 272.43,394.75 279.19,401.46 281.44,409.51 283.69,405.00 285.95,398.95 288.20,399.70 294.95,365.59 297.21,357.75 299.46,356.63 301.71,352.12 303.96,344.45 310.72,343.49 312.97,347.77 315.23,365.51 317.48,365.99 319.73,373.25 328.74,351.27 330.99,357.38 333.24,353.01 335.50,353.09 342.25,348.61 344.50,342.23 346.76,342.15 349.01,347.98 351.26,336.68 358.02,335.66 360.27,329.57 362.52,332.63 364.77,328.37 367.03,341.01 373.78,330.62 376.04,339.95 378.29,340.29 382.79,342.70 389.55,332.09 391.80,319.69 394.05,319.69 396.31,310.65 398.56,304.71 405.32,298.81 407.57,300.10 409.82,294.65 412.07,285.04 421.08,294.18 423.33,295.01 425.59,288.02 427.84,284.84 430.09,288.67 436.85,287.04 439.10,291.63 441.35,287.94 443.60,281.71 445.86,281.81 452.61,280.18 454.86,279.44 457.12,270.32 459.37,269.49 461.62,264.81 468.38,264.60 470.63,268.10 472.88,269.58 475.14,273.93 477.39,292.69 484.14,275.68 486.40,281.37 488.65,272.88 490.90,273.82 493.15,264.66 499.91,267.62 502.16,254.24 504.41,250.39 506.67,250.02 508.92,253.49 515.68,253.61 517.93,260.61 520.18,263.49 522.43,268.23 524.68,250.33 531.44,255.43 533.69,250.51 535.95,247.64 538.20,243.86 540.45,251.56 549.46,259.83 551.71,253.78 553.96,243.82 556.22,247.62 562.97,245.10 565.23,241.87 567.48,238.27 569.73,228.01 571.98,228.60 578.74,222.86 580.99,224.44 583.24,225.63 585.50,219.78 587.75,213.78 594.50,208.34 596.76,215.16 599.01,218.66 601.26,224.82 603.51,217.60 610.27,214.36 612.52,209.32 614.77,205.11 617.03,204.34 619.28,204.26 626.04,199.73 628.29,204.48 630.54,197.24 632.79,200.68 635.05,234.48 641.80,215.56 644.05,217.49 646.31,212.54 648.56,220.31 650.81,213.84 657.57,200.68 659.82,200.64 662.07,207.29 664.32,200.07 666.58,190.21 673.33,174.76 675.59,171.85 677.84,171.90 680.09,184.54 682.34,181.23 689.10,179.05 691.35,193.94 693.60,189.36 695.86,203.42 698.11,201.85 704.86,182.67 707.12,180.04 709.37,179.25 711.62,200.24 713.87,200.87 720.63,212.29 722.88,222.49 725.14,217.89 727.39,237.03 729.64,225.14 736.40,206.23 738.65,194.99 740.90,186.34 745.41,179.59 752.16,186.33 754.41,183.24 756.67,179.47 758.92,178.10 761.17,175.64 767.93,180.06 770.18,181.17 772.43,172.63 774.68,169.98 776.94,183.60 783.69,185.62 785.95,188.62 788.20,203.21 790.45,193.34 792.70,182.29 799.46,174.14 801.71,168.35 803.96,164.23 808.47,164.62 815.23,169.10 817.48,170.86 819.73,180.25 824.23,177.85 830.99,169.78 833.24,161.87 835.50,166.29 837.75,166.19 840.00,157.89 846.76,155.86 849.01,158.36 851.26,165.24 853.51,161.93 855.77,162.76 864.77,189.25 867.03,174.67 869.28,167.69 871.53,167.27 878.29,160.86 880.54,155.61 882.79,155.72 885.05,157.39 887.30,162.94 894.05,156.01 896.31,166.87 898.56,173.36 900.81,188.97 903.06,164.18 909.82,158.16 912.07,162.42 914.32,162.49 916.58,182.61 918.83,181.98 927.84,180.67 930.09,173.62 932.34,177.22 934.59,168.40 941.35,181.68 943.60,172.00 945.86,161.62 948.11,168.52 950.36,174.07 957.12,173.56 959.37,185.59 961.62,175.81 963.87,182.99 966.13,199.77 972.88,189.41 975.14,192.10 977.39,193.15 979.64,212.25 981.89,219.73 988.65,207.30 990.90,204.20 993.15,221.12 995.41,224.49 997.66,243.00 1004.41,229.21 1006.67,233.77 1008.92,227.19 1011.17,248.43 1013.42,268.48 1020.18,273.13 1022.43,238.92 1024.68,230.26 1026.94,228.90 1035.95,223.50 1038.20,222.57 1040.45,191.85 1042.70,184.11 1044.95,185.55 1051.71,172.71 1053.96,157.69 1056.22,147.40 1058.47,144.01 1060.72,128.32 1067.48,131.45 1069.73,139.80 1071.98,126.13 1074.23,131.59 1076.49,121.10 1083.24,119.46 1085.50,125.96 1087.75,126.49 1090.00,112.97" fill="none" stroke="#D1495B" stroke-width="2.5" stroke-linejoin="round" stroke-linecap="round" opacity="0.9"/>
<rect x="96" y="90" width="330" height="58" rx="8" fill="#FFFFFF" opacity="0.86" stroke="#E5E7EB"/>
<line x1="108" y1="108" x2="144" y2="108" stroke="#184E77" stroke-width="3"/>
<text x="154" y="112" font-family="Verdana, sans-serif" font-size="12" fill="#1F2933">Model cumulative PnL proxy</text>
<line x1="108" y1="132" x2="144" y2="132" stroke="#D1495B" stroke-width="2.5"/>
<text x="154" y="136" font-family="Verdana, sans-serif" font-size="12" fill="#1F2933">S&amp;P 500 cumulative return</text>
<text x="90" y="618" font-family="Verdana, sans-serif" font-size="12" fill="#475569">test trades=153, total pnl=1.49166</text>
</svg>