<svg xmlns="http://www.w3.org/2000/svg" width="1200" height="640" viewBox="0 0 1200 640">
<rect width="100%" height="100%" fill="#FBFAF7"/>
<text x="600" y="34" text-anchor="middle" font-family="Verdana, sans-serif" font-size="24" font-weight="700" fill="#1F2933">Energy: EOG/LNG Model PnL With Train/Test Boundary</text>
<rect x="90.00" y="80" width="771.45" height="478" fill="#D8F3DC" opacity="0.35"/>
<text x="475.73" y="100" text-anchor="middle" font-family="Verdana, sans-serif" font-size="12" fill="#334155">Training/validation</text>
<rect x="861.45" y="80" width="228.55" height="478" fill="#FFE8D6" opacity="0.45"/>
<text x="975.73" y="100" text-anchor="middle" font-family="Verdana, sans-serif" font-size="12" fill="#334155">Simulation</text>
<line x1="90" y1="558.00" x2="1090" y2="558.00" stroke="#D7D7D7" stroke-width="1"/>
<text x="80" y="562.00" text-anchor="end" font-family="Verdana, sans-serif" font-size="11" fill="#475569">-0.4092</text>
<line x1="90" y1="462.40" x2="1090" y2="462.40" stroke="#D7D7D7" stroke-width="1"/>
<text x="80" y="466.40" text-anchor="end" font-family="Verdana, sans-serif" font-size="11" fill="#475569">0.6583</text>
<line x1="90" y1="366.80" x2="1090" y2="366.80" stroke="#D7D7D7" stroke-width="1"/>
<text x="80" y="370.80" text-anchor="end" font-family="Verdana, sans-serif" font-size="11" fill="#475569">1.7259</text>
<line x1="90" y1="271.20" x2="1090" y2="271.20" stroke="#D7D7D7" stroke-width="1"/>
<text x="80" y="275.20" text-anchor="end" font-family="Verdana, sans-serif" font-size="11" fill="#475569">2.7934</text>
<line x1="90" y1="175.60" x2="1090" y2="175.60" stroke="#D7D7D7" stroke-width="1"/>
<text x="80" y="179.60" text-anchor="end" font-family="Verdana, sans-serif" font-size="11" fill="#475569">3.8610</text>
<line x1="90" y1="80.00" x2="1090" y2="80.00" stroke="#D7D7D7" stroke-width="1"/>
<text x="80" y="84.00" text-anchor="end" font-family="Verdana, sans-serif" font-size="11" fill="#475569">4.9285</text>
<line x1="90.00" y1="80" x2="90.00" y2="558" stroke="#ECECEC" stroke-width="1"/>
<text x="90.00" y="586" text-anchor="middle" font-family="Verdana, sans-serif" font-size="11" fill="#475569">2020-05-13</text>
<line x1="290.00" y1="80" x2="290.00" y2="558" stroke="#ECECEC" stroke-width="1"/>
<text x="290.00" y="586" text-anchor="middle" font-family="Verdana, sans-serif" font-size="11" fill="#475569">2021-07-22</text>
<line x1="490.00" y1="80" x2="490.00" y2="558" stroke="#ECECEC" stroke-width="1"/>
<text x="490.00" y="586" text-anchor="middle" font-family="Verdana, sans-serif" font-size="11" fill="#475569">2022-10-01</text>
<line x1="690.00" y1="80" x2="690.00" y2="558" stroke="#ECECEC" stroke-width="1"/>
<text x="690.00" y="586" text-anchor="middle" font-family="Verdana, sans-serif" font-size="11" fill="#475569">2023-12-11</text>
<line x1="890.00" y1="80" x2="890.00" y2="558" stroke="#ECECEC" stroke-width="1"/>
<text x="890.00" y="586" text-anchor="middle" font-family="Verdana, sans-serif" font-size="11" fill="#475569">2025-02-19</text>
<line x1="1090.00" y1="80" x2="1090.00" y2="558" stroke="#ECECEC" stroke-width="1"/>
<text x="1090.00" y="586" text-anchor="middle" font-family="Verdana, sans-serif" font-size="11" fill="#475569">2026-05-01</text>
<line x1="90" y1="80" x2="90" y2="558" stroke="#1F2933" stroke-width="1.2"/>
<line x1="90" y1="558" x2="1090" y2="558" stroke="#1F2933" stroke-width="1.2"/>
<text x="24" y="319" text-anchor="middle" transform="rotate(-90 24 319)" font-family="Verdana, sans-serif" font-size="13" fill="#1F2933">Cumulative PnL proxy</text>
<line x1="680.64" y1="80" x2="680.64" y2="558" stroke="#52796F" stroke-width="2.2" stroke-dasharray="2,5"/>
<text x="688.64" y="122" font-family="Verdana, sans-serif" font-size="12" fill="#52796F">Validation starts 2023-11-21</text>
<line x1="861.45" y1="80" x2="861.45" y2="558" stroke="#1D3557" stroke-width="2.2" stroke-dasharray="7,5"/>
<text x="869.45" y="122" font-family="Verdana, sans-serif" font-size="12" fill="#1D3557">Simulation starts 2024-12-19</text>
<polyline points="90.00,521.35 93.21,518.98 94.13,518.51 95.97,512.25 96.42,512.30 97.34,510.64 103.77,507.78 105.14,499.38 106.52,498.51 119.37,492.29 119.83,490.33 121.21,482.89 122.12,475.29 132.68,478.29 134.06,484.33 134.52,488.96 134.97,492.90 135.43,495.43 135.89,500.38 137.27,503.75 137.73,507.30 138.19,511.03 138.65,510.79 139.11,506.36 140.48,502.42 140.94,502.52 141.40,506.79 144.61,506.61 145.07,510.74 145.53,513.20 146.91,517.82 147.37,520.38 148.28,516.18 148.74,514.98 150.12,515.99 150.58,519.95 153.33,522.69 153.79,525.03 154.25,522.26 154.71,522.19 155.17,524.24 156.54,523.57 157.00,520.72 157.92,517.34 158.38,512.80 166.18,513.67 166.64,514.71 167.10,518.02 169.39,516.49 169.85,515.62 170.31,507.81 170.77,506.04 171.23,508.78 174.44,493.41 175.82,484.65 176.28,481.73 176.74,474.69 177.20,470.24 177.65,468.44 179.03,464.26 179.49,455.72 179.95,450.03 180.87,444.14 182.24,444.66 182.70,452.45 183.16,461.81 183.62,468.73 184.08,467.51 187.29,467.56 190.05,468.45 198.77,463.29 199.22,456.06 199.68,448.13 200.14,438.88 202.90,434.55 203.35,436.20 205.65,433.51 206.11,424.32 206.57,413.07 209.32,410.65 212.07,404.20 212.99,398.74 214.37,390.66 214.83,382.22 220.79,376.47 221.25,381.95 221.71,392.74 224.01,391.82 224.47,387.62 224.92,381.91 225.38,377.17 229.05,374.92 230.43,371.42 230.89,363.71 231.35,361.30 231.81,356.33 236.86,362.47 241.90,356.65 248.33,354.59 249.71,352.84 250.17,355.41 250.62,359.86 251.08,364.58 251.54,366.72 252.92,369.77 257.97,368.09 259.34,366.29 259.80,365.67 260.26,363.11 262.56,357.19 266.23,361.46 266.69,366.56 267.15,371.74 276.78,375.71 278.62,372.42 280.45,370.31 282.75,367.73 285.50,370.64 285.96,373.12 286.42,374.73 286.88,370.74 289.63,366.51 290.09,364.51 291.47,364.32 291.93,363.86 292.39,362.03 292.85,364.46 293.30,365.09 294.68,367.84 295.14,368.21 295.60,371.71 296.06,374.54 297.89,376.42 298.81,379.13 299.27,382.50 301.11,388.23 301.56,390.41 302.02,395.30 302.48,397.80 302.94,399.07 304.32,397.59 304.78,395.13 305.24,393.20 305.70,393.68 306.15,392.78 308.91,393.31 311.20,393.81 312.12,391.84 313.96,390.00 314.41,386.42 314.87,378.16 317.63,374.05 318.09,372.96 318.55,372.35 319.00,374.95 320.38,372.82 320.84,370.05 321.30,367.80 321.76,367.34 322.22,364.53 323.59,364.96 324.05,362.26 324.51,359.09 325.43,353.04 326.81,348.72 327.26,350.12 327.72,348.99 328.64,339.98 330.02,331.88 330.48,327.82 331.85,321.50 333.23,314.27 334.15,312.90 336.90,311.86 337.82,308.04 338.28,306.88 342.87,307.00 343.33,302.63 344.25,295.18 344.70,286.20 346.54,287.20 347.00,287.42 347.92,289.44 349.29,288.56 349.75,289.88 351.13,288.73 352.51,288.64 352.96,286.47 353.88,281.86 360.31,280.42 365.36,281.60 365.81,285.85 366.27,288.12 366.73,287.82 367.19,291.19 368.57,293.46 369.03,294.77 369.49,296.33 370.40,300.24 372.24,304.34 372.70,309.72 373.16,317.09 373.62,322.17 374.99,325.35 375.45,328.29 375.91,328.88 376.37,331.21 376.83,332.63 378.21,335.18 378.66,336.48 379.12,335.88 379.58,334.07 380.04,336.22 381.42,335.22 381.88,333.90 383.25,331.93 391.06,323.30 391.51,319.63 391.97,315.16 392.43,316.54 392.89,319.26 394.27,319.56 395.19,316.95 395.64,320.36 396.10,325.11 397.48,329.19 398.40,334.60 405.74,335.70 408.95,339.28 410.79,345.97 411.25,353.10 411.71,357.74 414.46,356.95 414.92,353.92 417.67,345.08 420.43,349.20 420.89,343.71 425.02,344.92 426.85,346.98 427.31,347.75 427.77,349.68 428.23,351.30 429.61,356.06 430.06,361.46 430.52,366.72 430.98,371.67 431.44,377.06 433.28,379.60 433.74,380.93 434.19,381.04 434.65,383.26 436.03,385.05 436.49,385.21 436.95,387.60 437.87,392.50 439.24,394.61 439.70,395.84 440.16,392.26 440.62,386.20 441.08,370.72 442.91,358.06 445.67,356.51 446.59,353.65 447.04,351.31 447.50,348.73 452.09,347.38 453.01,347.43 453.47,350.47 455.76,351.26 456.68,352.19 457.14,355.26 458.52,358.54 458.98,365.72 459.44,369.86 459.89,371.85 460.35,372.34 461.73,374.65 462.19,372.81 462.65,376.13 463.11,381.61 464.94,382.58 465.40,383.63 465.86,382.34 466.32,376.96 471.83,374.71 472.29,372.14 475.96,370.24 476.42,369.79 478.25,370.94 478.71,371.52 479.17,373.28 479.63,372.23 481.46,374.00 482.84,377.37 484.22,370.26 487.43,372.18 487.89,375.50 488.35,379.44 488.81,382.69 489.27,386.17 490.64,384.13 491.10,378.01 491.56,371.35 492.02,364.58 492.48,356.79 497.07,360.17 500.74,355.26 501.20,351.75 501.66,350.03 502.12,349.83 503.49,347.48 503.95,345.37 504.41,341.84 504.87,343.14 506.70,351.82 508.08,358.87 508.54,366.74 509.92,369.89 510.38,373.28 510.84,373.36 511.29,375.69 511.75,368.92 513.13,365.00 513.59,359.72 514.97,354.88 520.93,350.22 521.39,346.44 522.77,344.38 523.23,343.45 523.69,340.00 524.14,336.23 524.60,331.77 525.98,324.30 529.65,327.15 530.11,330.16 530.57,333.29 531.03,336.95 532.86,341.30 533.32,341.94 533.78,342.48 534.24,345.67 535.62,348.15 536.08,346.98 536.54,346.10 537.45,340.54 539.29,339.14 543.42,341.65 543.88,343.78 545.71,342.52 546.17,336.16 546.63,329.89 547.09,324.35 548.47,318.58 549.39,322.21 549.84,324.76 550.30,328.88 551.68,335.82 555.35,328.12 555.81,317.55 556.73,304.59 558.10,294.35 558.56,282.18 559.02,275.59 559.48,275.46 559.94,273.21 561.32,267.54 561.78,262.66 562.23,259.90 562.69,259.01 563.15,261.10 567.74,258.97 568.66,257.24 577.84,260.62 578.30,262.92 578.76,266.38 579.22,268.89 580.59,271.66 581.05,271.31 581.51,270.54 581.97,269.09 582.43,267.22 583.80,264.62 590.69,263.33 591.61,261.54 593.44,258.85 593.90,257.74 594.36,260.06 594.82,255.99 595.28,248.84 596.65,243.81 597.11,240.70 598.03,239.79 598.49,237.62 600.33,237.49 601.24,234.11 603.08,232.75 606.75,230.66 607.21,225.30 610.88,228.73 611.34,224.00 612.72,222.01 613.18,223.43 613.63,223.13 614.09,220.28 614.55,216.25 616.85,213.37 623.27,214.35 623.73,215.97 624.19,217.92 625.57,221.02 626.03,223.82 626.48,227.42 626.94,230.14 627.40,233.77 628.78,237.04 629.24,239.74 629.70,240.69 630.16,239.65 630.61,237.15 631.99,233.71 632.45,229.74 632.91,225.89 642.09,226.57 642.55,226.55 643.01,227.52 646.22,232.79 648.51,234.35 648.97,233.76 649.43,233.00 649.89,232.27 651.73,230.12 652.18,225.66 652.64,220.74 655.40,221.78 655.86,221.60 656.31,221.54 657.69,220.97 659.07,217.26 659.53,214.22 660.90,213.70 661.36,211.33 661.82,210.44 662.28,209.65 662.74,206.95 664.58,202.32 665.03,197.65 665.49,192.85 667.79,192.50 668.25,192.19 668.71,190.34 669.16,187.82 670.54,184.75 674.67,187.99 675.13,190.52 675.59,187.40 677.43,187.47 677.88,186.91 678.34,188.92 678.80,188.93 680.18,188.76 681.10,191.58 682.01,192.10 684.31,194.93 684.77,197.06 685.23,198.14 686.60,196.08 687.06,192.92 687.52,191.92 687.98,190.62 688.44,191.58 691.65,186.74 694.41,186.52 694.86,186.12 697.16,183.93 697.62,184.02 698.08,183.67 699.91,182.67 700.37,181.26 700.83,182.46 703.13,185.65 703.58,179.33 706.80,180.55 707.26,181.40 709.55,182.17 710.01,182.46 710.47,179.65 710.93,178.81 712.30,177.60 712.76,174.65 713.22,172.67 719.19,171.94 719.65,170.83 720.11,169.91 720.56,169.20 722.40,170.17 722.86,169.65 723.32,166.56 723.78,167.85 726.53,167.71 728.37,163.86 728.83,165.48 729.28,166.89 729.74,170.08 730.20,172.78 731.58,174.91 732.04,176.90 732.50,179.83 732.96,182.27 733.41,182.00 734.79,181.84 735.25,181.95 735.71,181.18 736.17,181.98 739.38,182.44 741.22,186.15 741.68,190.40 742.13,196.73 743.05,204.64 744.43,210.02 744.89,214.09 745.35,217.01 745.81,217.17 746.26,216.77 747.64,216.47 748.10,215.88 748.56,213.51 749.02,209.67 749.48,206.20 758.20,206.11 758.66,206.57 759.11,206.68 761.41,206.52 761.87,204.65 764.16,203.06 765.08,200.77 765.54,197.77 767.37,196.91 767.83,195.13 768.29,194.24 768.75,194.30 770.13,189.77 771.05,185.38 771.51,181.97 771.96,177.88 773.34,180.75 773.80,184.27 774.26,185.58 774.72,184.77 775.18,185.30 778.39,184.61 780.68,183.41 781.14,181.22 781.60,179.18 783.44,177.75 783.90,177.91 784.81,178.63 786.19,179.11 787.11,178.63 787.57,178.55 788.03,177.36 789.40,173.60 789.86,170.84 792.62,166.05 794.45,165.14 795.83,164.93 796.29,166.40 799.04,165.35 799.50,165.68 799.96,166.07 800.42,163.73 800.88,164.44 802.71,164.26 803.17,165.02 804.09,164.80 806.38,164.93 809.14,163.14 812.35,167.08 813.27,171.69 813.73,177.14 815.56,178.28 816.02,179.88 816.48,180.52 816.94,180.57 818.32,181.61 818.77,179.94 819.23,176.81 819.69,173.97 820.15,169.90 821.53,165.49 824.74,167.82 825.20,168.81 828.41,169.47 828.87,170.56 829.33,171.68 829.79,173.22 831.17,174.58 838.97,178.63 839.43,181.55 840.80,183.28 841.26,186.58 841.72,188.80 842.18,190.08 842.64,188.65 844.02,192.55 844.47,193.85 844.93,194.13 845.39,191.94 847.23,189.65 847.69,190.60 850.90,193.11 851.36,195.67 852.28,196.85 853.65,200.30 854.11,202.31 854.57,205.09 855.03,208.76 855.49,211.77 856.87,211.01 857.32,210.74 857.78,208.93 858.24,207.12 858.70,204.51 863.75,206.18 864.67,207.09 865.13,207.31 866.50,207.85 866.96,208.03 867.88,209.14 868.34,209.40 869.72,210.24 870.17,209.22 871.55,206.30 873.39,206.76 876.60,212.14 877.06,209.32 877.52,206.76 877.98,202.84 879.35,196.10 879.81,191.96 880.27,192.65 882.57,198.42 885.78,192.79 887.15,188.04 889.45,185.60 889.91,183.99 890.37,186.12 890.83,187.69 892.20,187.19 892.66,187.13 893.12,190.42 897.25,188.56 898.63,182.26 899.09,177.26 899.55,174.62 900.00,173.97 905.05,174.71 905.51,174.21 905.97,173.14 906.43,170.20 912.85,179.68 914.69,188.50 915.15,194.81 915.61,202.31 916.07,203.59 917.90,203.49 918.36,202.71 918.82,199.01 919.28,196.58 919.74,195.18 927.54,189.15 928.00,182.44 928.46,174.62 928.92,169.40 930.75,170.50 931.21,173.81 931.67,175.76 939.01,173.51 940.39,166.09 940.85,157.24 941.31,148.13 941.77,137.70 943.60,132.81 944.06,129.94 944.52,127.17 945.44,123.74 946.82,124.11 947.27,128.22 947.73,131.91 948.19,136.34 948.65,141.44 950.03,147.09 961.50,139.90 963.34,140.54 963.80,142.46 964.25,145.41 964.71,151.46 966.09,159.76 967.93,157.58 969.30,153.72 969.76,150.28 970.22,146.67 970.68,143.05 977.10,139.33 980.78,141.90 982.15,144.29 982.61,148.56 983.99,148.53 985.82,146.10 990.41,147.59 991.79,150.91 992.25,153.77 992.71,156.48 993.17,159.89 993.63,162.86 995.00,164.44 995.46,165.96 995.92,167.91 996.38,166.59 996.84,167.11 998.21,165.49 998.67,163.34 999.13,161.13 1000.05,158.73 1006.02,157.13 1006.48,154.71 1007.85,151.77 1008.31,148.72 1008.77,147.26 1009.23,146.32 1009.69,145.33 1011.06,145.57 1011.52,144.52 1011.98,144.95 1012.44,143.75 1012.90,142.51 1014.74,142.55 1015.20,142.42 1015.65,143.08 1016.11,142.13 1017.95,142.58 1020.70,142.43 1021.16,142.31 1022.54,137.73 1023.91,133.04 1024.37,128.51 1024.83,122.18 1025.29,117.59 1025.75,114.15 1027.13,112.97 1027.59,115.42 1028.04,119.90 1028.50,125.02 1028.96,130.42 1030.34,132.85 1039.98,131.30 1040.89,126.00 1044.11,130.83 1044.57,136.56 1045.03,137.37 1046.40,135.42 1046.86,134.57 1047.32,132.48 1047.78,130.26 1056.96,125.01 1057.42,123.40 1057.88,122.85 1059.25,122.68 1059.71,120.56 1060.17,119.30 1060.63,123.64 1061.09,126.28 1062.46,130.81 1062.92,136.73 1063.38,142.99 1063.84,141.87 1065.68,140.46 1066.14,140.48 1066.59,137.74 1067.51,135.37 1073.48,132.75 1073.94,130.67 1075.31,126.24 1075.77,121.90 1084.95,123.51 1089.08,124.16 1089.54,125.38 1090.00,125.68" fill="none" stroke="#0B6E4F" stroke-width="3" stroke-linejoin="round" stroke-linecap="round"/>
<rect x="96" y="90" width="330" height="58" rx="8" fill="#FFFFFF" opacity="0.86" stroke="#E5E7EB"/>
<line x1="108" y1="108" x2="144" y2="108" stroke="#0B6E4F" stroke-width="3"/>
<text x="154" y="112" font-family="Verdana, sans-serif" font-size="12" fill="#1F2933">Model cumulative PnL proxy</text>
</svg>