<svg xmlns="http://www.w3.org/2000/svg" width="1200" height="640" viewBox="0 0 1200 640">
<rect width="100%" height="100%" fill="#FBFAF7"/>
<text x="600" y="34" text-anchor="middle" font-family="Verdana, sans-serif" font-size="24" font-weight="700" fill="#1F2933">Communications: CHTR/WBD Simulation PnL vs S&amp;P 500</text>
<line x1="90" y1="558.00" x2="1090" y2="558.00" stroke="#D7D7D7" stroke-width="1"/>
<text x="80" y="562.00" text-anchor="end" font-family="Verdana, sans-serif" font-size="11" fill="#475569">-0.5284</text>
<text x="1100" y="562.00" text-anchor="start" font-family="Verdana, sans-serif" font-size="11" fill="#475569">-20.8%</text>
<line x1="90" y1="462.40" x2="1090" y2="462.40" stroke="#D7D7D7" stroke-width="1"/>
<text x="80" y="466.40" text-anchor="end" font-family="Verdana, sans-serif" font-size="11" fill="#475569">0.6709</text>
<text x="1100" y="466.40" text-anchor="start" font-family="Verdana, sans-serif" font-size="11" fill="#475569">-12.3%</text>
<line x1="90" y1="366.80" x2="1090" y2="366.80" stroke="#D7D7D7" stroke-width="1"/>
<text x="80" y="370.80" text-anchor="end" font-family="Verdana, sans-serif" font-size="11" fill="#475569">1.8701</text>
<text x="1100" y="370.80" text-anchor="start" font-family="Verdana, sans-serif" font-size="11" fill="#475569">-3.7%</text>
<line x1="90" y1="271.20" x2="1090" y2="271.20" stroke="#D7D7D7" stroke-width="1"/>
<text x="80" y="275.20" text-anchor="end" font-family="Verdana, sans-serif" font-size="11" fill="#475569">3.0694</text>
<text x="1100" y="275.20" text-anchor="start" font-family="Verdana, sans-serif" font-size="11" fill="#475569">4.9%</text>
<line x1="90" y1="175.60" x2="1090" y2="175.60" stroke="#D7D7D7" stroke-width="1"/>
<text x="80" y="179.60" text-anchor="end" font-family="Verdana, sans-serif" font-size="11" fill="#475569">4.2687</text>
<text x="1100" y="179.60" text-anchor="start" font-family="Verdana, sans-serif" font-size="11" fill="#475569">13.5%</text>
<line x1="90" y1="80.00" x2="1090" y2="80.00" stroke="#D7D7D7" stroke-width="1"/>
<text x="80" y="84.00" text-anchor="end" font-family="Verdana, sans-serif" font-size="11" fill="#475569">5.4680</text>
<text x="1100" y="84.00" text-anchor="start" font-family="Verdana, sans-serif" font-size="11" fill="#475569">22.1%</text>
<line x1="90.00" y1="80" x2="90.00" y2="558" stroke="#ECECEC" stroke-width="1"/>
<text x="90.00" y="586" text-anchor="middle" font-family="Verdana, sans-serif" font-size="11" fill="#475569">2025-01-28</text>
<line x1="290.00" y1="80" x2="290.00" y2="558" stroke="#ECECEC" stroke-width="1"/>
<text x="290.00" y="586" text-anchor="middle" font-family="Verdana, sans-serif" font-size="11" fill="#475569">2025-04-30</text>
<line x1="490.00" y1="80" x2="490.00" y2="558" stroke="#ECECEC" stroke-width="1"/>
<text x="490.00" y="586" text-anchor="middle" font-family="Verdana, sans-serif" font-size="11" fill="#475569">2025-07-31</text>
<line x1="690.00" y1="80" x2="690.00" y2="558" stroke="#ECECEC" stroke-width="1"/>
<text x="690.00" y="586" text-anchor="middle" font-family="Verdana, sans-serif" font-size="11" fill="#475569">2025-10-31</text>
<line x1="890.00" y1="80" x2="890.00" y2="558" stroke="#ECECEC" stroke-width="1"/>
<text x="890.00" y="586" text-anchor="middle" font-family="Verdana, sans-serif" font-size="11" fill="#475569">2026-01-31</text>
<line x1="1090.00" y1="80" x2="1090.00" y2="558" stroke="#ECECEC" stroke-width="1"/>
<text x="1090.00" y="586" text-anchor="middle" font-family="Verdana, sans-serif" font-size="11" fill="#475569">2026-05-04</text>
<line x1="90" y1="80" x2="90" y2="558" stroke="#1F2933" stroke-width="1.2"/>
<line x1="90" y1="558" x2="1090" y2="558" stroke="#1F2933" stroke-width="1.2"/>
<text x="24" y="319" text-anchor="middle" transform="rotate(-90 24 319)" font-family="Verdana, sans-serif" font-size="13" fill="#1F2933">Cumulative PnL proxy</text>
<line x1="1090" y1="80" x2="1090" y2="558" stroke="#1F2933" stroke-width="1.2"/>
<text x="1178" y="319" text-anchor="middle" transform="rotate(90 1178 319)" font-family="Verdana, sans-serif" font-size="13" fill="#1F2933">S&amp;P 500 cumulative return</text>
<polyline points="90.00,515.88 105.18,510.96 109.52,516.42 111.69,518.05 172.43,522.85 178.94,525.03 183.28,522.36 185.44,517.22 187.61,514.34 194.12,510.52 198.46,509.50 213.64,516.01 228.83,516.59 233.17,519.37 241.84,519.00 246.18,516.32 248.35,515.92 337.29,514.61 339.46,511.34 365.49,508.55 367.66,509.20 369.83,509.86 376.33,511.71 378.50,514.67 380.67,514.20 382.84,513.39 395.86,508.63 406.70,507.03 408.87,512.36 411.04,516.57 413.21,517.97 428.39,522.28 441.41,517.59 460.93,512.32 467.44,507.74 469.61,507.80 471.78,509.45 473.95,506.81 476.12,487.94 482.62,464.21 486.96,436.31 489.13,409.88 491.30,399.20 497.81,391.45 499.98,388.40 502.15,384.58 504.32,385.47 506.49,389.40 512.99,395.15 515.16,399.17 517.33,403.60 519.50,405.25 578.07,403.87 580.24,393.00 582.41,376.50 588.92,358.03 591.08,342.02 593.25,329.64 595.42,323.54 597.59,322.39 604.10,323.78 606.27,322.94 608.44,317.85 610.61,318.24 612.78,321.15 619.28,325.63 621.45,328.10 623.62,332.54 671.34,323.14 673.51,314.49 680.02,307.24 682.19,304.89 684.36,302.33 686.53,297.33 688.70,291.62 695.21,281.50 697.38,269.18 699.54,261.13 701.71,255.12 703.88,249.87 710.39,244.41 712.56,239.35 714.73,235.97 716.90,231.57 719.07,224.68 725.57,221.80 727.74,217.46 729.91,208.58 732.08,203.33 734.25,203.09 740.76,201.83 742.93,203.11 745.10,204.11 749.44,204.49 762.45,203.55 764.62,202.34 771.13,200.36 773.30,197.87 775.47,195.95 786.31,194.50 788.48,196.04 790.65,196.48 792.82,196.94 794.99,199.32 801.50,199.28 818.85,200.44 821.02,202.25 849.22,196.80 853.56,190.65 866.57,186.78 868.74,183.28 870.91,182.00 877.42,184.17 879.59,183.92 881.76,182.75 883.93,183.36 886.10,190.61 894.77,203.89 896.94,221.53 901.28,230.95 907.79,240.13 909.96,251.60 912.13,256.08 914.30,259.25 916.46,261.11 925.14,258.61 927.31,254.34 929.48,250.42 931.65,246.90 938.16,241.72 983.71,240.23 985.88,241.59 990.22,240.06 992.39,237.79 998.89,237.60 1003.23,241.51 1005.40,244.90 1007.57,247.69 1046.62,244.75 1050.95,249.41 1059.63,255.63 1066.14,258.31 1068.31,237.17 1074.82,211.16 1076.98,185.03 1079.15,151.64 1081.32,121.09 1083.49,117.48 1090.00,112.97" fill="none" stroke="#184E77" stroke-width="3" stroke-linejoin="round" stroke-linecap="round"/>
<polyline points="90.00,326.10 90.00,326.10 92.17,331.31 94.34,325.47 96.51,331.09 103.02,339.51 105.18,331.57 107.35,327.24 109.52,323.19 111.69,333.75 118.20,326.34 120.37,325.96 122.54,328.99 124.71,317.42 126.88,317.50 135.55,314.76 137.72,312.09 139.89,316.97 142.06,336.11 148.57,341.59 150.74,346.72 152.91,346.57 155.08,363.90 157.25,346.86 163.75,366.07 165.92,379.20 168.09,367.37 170.26,386.46 172.43,380.65 178.94,409.19 181.11,416.98 183.28,411.99 185.44,426.25 187.61,404.72 194.12,398.09 196.29,409.17 198.46,398.06 200.63,400.33 202.80,399.47 209.31,381.14 211.48,379.47 213.64,391.29 215.81,394.75 217.98,415.36 224.49,409.69 226.66,405.80 228.83,398.85 231.00,449.17 233.17,508.29 239.67,510.46 241.84,525.03 244.01,438.10 246.18,472.73 248.35,455.25 254.86,447.44 257.03,449.15 259.20,471.32 261.37,470.04 270.04,492.87 272.21,469.11 274.38,452.96 276.55,432.99 278.72,425.57 285.23,424.92 287.40,419.04 289.57,417.53 291.74,411.10 293.90,395.97 300.41,402.62 302.58,410.59 304.75,406.13 306.92,400.14 309.09,400.88 315.60,367.09 317.77,359.32 319.93,358.21 322.10,353.75 324.27,346.15 330.78,345.19 332.95,349.43 335.12,367.01 337.29,367.49 339.46,374.67 348.13,352.90 350.30,358.95 352.47,354.62 354.64,354.71 361.15,350.26 363.32,343.95 365.49,343.87 367.66,349.65 369.83,338.45 376.33,337.44 378.50,331.40 380.67,334.44 382.84,330.22 385.01,342.74 391.52,332.45 393.69,341.69 395.86,342.03 400.20,344.41 406.70,333.90 408.87,321.62 411.04,321.62 413.21,312.66 415.38,306.78 421.89,300.94 424.06,302.21 426.23,296.82 428.39,287.30 437.07,296.35 439.24,297.17 441.41,290.25 443.58,287.09 445.75,290.89 452.26,289.27 454.43,293.82 456.59,290.17 458.76,283.99 460.93,284.10 467.44,282.48 469.61,281.75 471.78,272.71 473.95,271.89 476.12,267.26 482.62,267.05 484.79,270.52 486.96,271.98 489.13,276.29 491.30,294.88 497.81,278.02 499.98,283.66 502.15,275.25 504.32,276.18 506.49,267.11 512.99,270.04 515.16,256.78 517.33,252.97 519.50,252.61 521.67,256.04 528.18,256.16 530.35,263.09 532.52,265.95 534.69,270.64 536.85,252.91 543.36,257.96 545.53,253.08 547.70,250.25 549.87,246.50 552.04,254.13 560.72,262.33 562.89,256.33 565.05,246.46 567.22,250.23 573.73,247.73 575.90,244.53 578.07,240.96 580.24,230.80 582.41,231.38 588.92,225.70 591.08,227.26 593.25,228.44 595.42,222.64 597.59,216.70 604.10,211.31 606.27,218.07 608.44,221.54 610.61,227.64 612.78,220.49 619.28,217.28 621.45,212.28 623.62,208.11 625.79,207.35 627.96,207.27 634.47,202.78 636.64,207.49 638.81,200.32 640.98,203.73 643.15,237.21 649.65,218.47 651.82,220.38 653.99,215.47 656.16,223.17 658.33,216.77 664.84,203.73 667.01,203.69 669.18,210.28 671.34,203.12 673.51,193.36 680.02,178.05 682.19,175.17 684.36,175.22 686.53,187.74 688.70,184.46 695.21,182.30 697.38,197.05 699.54,192.51 701.71,206.44 703.88,204.89 710.39,185.89 712.56,183.29 714.73,182.49 716.90,203.29 719.07,203.91 725.57,215.23 727.74,225.33 729.91,220.77 732.08,239.73 734.25,227.95 740.76,209.23 742.93,198.09 745.10,189.52 749.44,182.83 755.94,189.52 758.11,186.45 760.28,182.71 762.45,181.36 764.62,178.92 771.13,183.30 773.30,184.40 775.47,175.94 777.64,173.31 779.80,186.81 786.31,188.80 788.48,191.78 790.65,206.24 792.82,196.46 794.99,185.51 801.50,177.44 803.67,171.70 805.84,167.62 810.17,168.01 816.68,172.44 818.85,174.18 821.02,183.49 825.36,181.11 831.87,173.12 834.03,165.28 836.20,169.66 838.37,169.56 840.54,161.34 847.05,159.33 849.22,161.81 851.39,168.62 853.56,165.34 855.73,166.16 864.40,192.41 866.57,177.97 868.74,171.05 870.91,170.63 877.42,164.29 879.59,159.08 881.76,159.19 883.93,160.84 886.10,166.34 892.60,159.48 894.77,170.23 896.94,176.66 899.11,192.12 901.28,167.57 907.79,161.61 909.96,165.83 912.13,165.89 914.30,185.82 916.46,185.20 925.14,183.91 927.31,176.92 929.48,180.48 931.65,171.75 938.16,184.91 940.33,175.32 942.49,165.04 944.66,171.87 946.83,177.37 953.34,176.87 955.51,188.78 957.68,179.09 959.85,186.20 962.02,202.83 968.52,192.57 970.69,195.23 972.86,196.27 975.03,215.19 977.20,222.60 983.71,210.28 985.88,207.22 988.05,223.97 990.22,227.31 992.39,245.65 998.89,231.99 1001.06,236.50 1003.23,229.99 1005.40,251.03 1007.57,270.89 1014.08,275.49 1016.25,241.61 1018.42,233.03 1020.59,231.68 1029.26,226.33 1031.43,225.41 1033.60,194.98 1035.77,187.31 1037.94,188.73 1044.45,176.02 1046.62,161.14 1048.79,150.95 1050.95,147.59 1053.12,132.05 1059.63,135.15 1061.80,143.42 1063.97,129.87 1066.14,135.28 1068.31,124.89 1074.82,123.27 1076.98,129.71 1079.15,130.23 1081.32,116.84 1083.49,112.97 1090.00,118.35" fill="none" stroke="#D1495B" stroke-width="2.5" stroke-linejoin="round" stroke-linecap="round" opacity="0.9"/>
<rect x="96" y="90" width="330" height="58" rx="8" fill="#FFFFFF" opacity="0.86" stroke="#E5E7EB"/>
<line x1="108" y1="108" x2="144" y2="108" stroke="#184E77" stroke-width="3"/>
<text x="154" y="112" font-family="Verdana, sans-serif" font-size="12" fill="#1F2933">Model cumulative PnL proxy</text>
<line x1="108" y1="132" x2="144" y2="132" stroke="#D1495B" stroke-width="2.5"/>
<text x="154" y="136" font-family="Verdana, sans-serif" font-size="12" fill="#1F2933">S&amp;P 500 cumulative return</text>
<text x="90" y="618" font-family="Verdana, sans-serif" font-size="12" fill="#475569">simulation trades=148, total pnl=5.05442</text>
</svg>