<svg xmlns="http://www.w3.org/2000/svg" width="1200" height="640" viewBox="0 0 1200 640">
<rect width="100%" height="100%" fill="#FBFAF7"/>
<text x="600" y="34" text-anchor="middle" font-family="Verdana, sans-serif" font-size="24" font-weight="700" fill="#1F2933">Communications: CHTR/WBD Model PnL With Train/Simulation Boundary</text>
<rect x="90.00" y="80" width="789.88" height="478" fill="#D8F3DC" opacity="0.35"/>
<text x="484.94" y="100" text-anchor="middle" font-family="Verdana, sans-serif" font-size="12" fill="#334155">Training/validation</text>
<rect x="879.88" y="80" width="210.12" height="478" fill="#FFE8D6" opacity="0.45"/>
<text x="984.94" y="100" text-anchor="middle" font-family="Verdana, sans-serif" font-size="12" fill="#334155">Simulation</text>
<line x1="90" y1="558.00" x2="1090" y2="558.00" stroke="#D7D7D7" stroke-width="1"/>
<text x="80" y="562.00" text-anchor="end" font-family="Verdana, sans-serif" font-size="11" fill="#475569">-1.2085</text>
<line x1="90" y1="462.40" x2="1090" y2="462.40" stroke="#D7D7D7" stroke-width="1"/>
<text x="80" y="466.40" text-anchor="end" font-family="Verdana, sans-serif" font-size="11" fill="#475569">0.2891</text>
<line x1="90" y1="366.80" x2="1090" y2="366.80" stroke="#D7D7D7" stroke-width="1"/>
<text x="80" y="370.80" text-anchor="end" font-family="Verdana, sans-serif" font-size="11" fill="#475569">1.7867</text>
<line x1="90" y1="271.20" x2="1090" y2="271.20" stroke="#D7D7D7" stroke-width="1"/>
<text x="80" y="275.20" text-anchor="end" font-family="Verdana, sans-serif" font-size="11" fill="#475569">3.2843</text>
<line x1="90" y1="175.60" x2="1090" y2="175.60" stroke="#D7D7D7" stroke-width="1"/>
<text x="80" y="179.60" text-anchor="end" font-family="Verdana, sans-serif" font-size="11" fill="#475569">4.7819</text>
<line x1="90" y1="80.00" x2="1090" y2="80.00" stroke="#D7D7D7" stroke-width="1"/>
<text x="80" y="84.00" text-anchor="end" font-family="Verdana, sans-serif" font-size="11" fill="#475569">6.2795</text>
<line x1="90.00" y1="80" x2="90.00" y2="558" stroke="#ECECEC" stroke-width="1"/>
<text x="90.00" y="586" text-anchor="middle" font-family="Verdana, sans-serif" font-size="11" fill="#475569">2020-05-01</text>
<line x1="290.00" y1="80" x2="290.00" y2="558" stroke="#ECECEC" stroke-width="1"/>
<text x="290.00" y="586" text-anchor="middle" font-family="Verdana, sans-serif" font-size="11" fill="#475569">2021-07-13</text>
<line x1="490.00" y1="80" x2="490.00" y2="558" stroke="#ECECEC" stroke-width="1"/>
<text x="490.00" y="586" text-anchor="middle" font-family="Verdana, sans-serif" font-size="11" fill="#475569">2022-09-25</text>
<line x1="690.00" y1="80" x2="690.00" y2="558" stroke="#ECECEC" stroke-width="1"/>
<text x="690.00" y="586" text-anchor="middle" font-family="Verdana, sans-serif" font-size="11" fill="#475569">2023-12-08</text>
<line x1="890.00" y1="80" x2="890.00" y2="558" stroke="#ECECEC" stroke-width="1"/>
<text x="890.00" y="586" text-anchor="middle" font-family="Verdana, sans-serif" font-size="11" fill="#475569">2025-02-19</text>
<line x1="1090.00" y1="80" x2="1090.00" y2="558" stroke="#ECECEC" stroke-width="1"/>
<text x="1090.00" y="586" text-anchor="middle" font-family="Verdana, sans-serif" font-size="11" fill="#475569">2026-05-04</text>
<line x1="90" y1="80" x2="90" y2="558" stroke="#1F2933" stroke-width="1.2"/>
<line x1="90" y1="558" x2="1090" y2="558" stroke="#1F2933" stroke-width="1.2"/>
<text x="24" y="319" text-anchor="middle" transform="rotate(-90 24 319)" font-family="Verdana, sans-serif" font-size="13" fill="#1F2933">Cumulative PnL proxy</text>
<line x1="672.95" y1="80" x2="672.95" y2="558" stroke="#52796F" stroke-width="2.2" stroke-dasharray="2,5"/>
<text x="680.95" y="122" font-family="Verdana, sans-serif" font-size="12" fill="#52796F">Validation starts 2023-11-01</text>
<line x1="879.88" y1="80" x2="879.88" y2="558" stroke="#1D3557" stroke-width="2.2" stroke-dasharray="7,5"/>
<text x="887.88" y="122" font-family="Verdana, sans-serif" font-size="12" fill="#1D3557">Simulation starts 2025-01-28</text>
<polyline points="90.00,480.86 93.19,482.43 94.56,484.10 95.01,484.90 95.93,482.79 96.38,482.26 97.75,481.75 98.20,482.17 98.66,480.90 105.50,480.04 105.95,474.46 107.32,468.97 107.78,464.61 108.23,461.82 109.14,464.45 110.51,467.07 110.97,469.38 121.45,473.20 121.91,476.53 123.27,478.53 123.73,479.90 124.18,480.44 124.64,479.58 125.10,480.94 126.46,484.29 126.92,486.33 127.37,488.83 127.83,490.09 128.29,490.18 129.65,489.41 130.11,489.37 130.57,489.71 133.30,492.21 133.76,495.56 134.67,498.13 136.03,498.88 136.49,497.24 136.95,496.32 137.40,496.09 137.86,494.12 139.23,494.00 140.59,494.68 142.87,493.51 143.78,492.72 144.24,491.70 149.25,489.12 149.71,486.46 150.16,482.34 151.99,481.70 152.44,482.69 153.35,483.45 153.81,484.56 155.18,486.88 158.82,487.06 159.28,486.98 159.74,489.16 160.19,489.57 161.56,490.24 162.01,490.03 162.47,489.40 162.93,487.07 164.75,488.26 167.94,487.98 168.40,485.73 168.85,482.66 169.31,478.56 169.76,474.16 172.50,473.77 172.95,476.21 174.32,476.04 174.78,475.45 175.23,480.07 175.69,485.02 177.51,486.26 177.97,487.42 178.42,484.95 178.88,483.51 179.33,480.74 187.54,481.10 187.99,481.46 188.45,482.28 188.91,483.92 194.38,483.48 194.83,483.17 195.29,484.46 196.65,486.39 197.11,487.58 197.57,488.68 203.49,485.10 204.40,478.34 206.23,473.55 206.68,468.55 207.14,465.79 207.59,462.68 208.05,460.31 209.87,458.67 210.33,459.88 210.78,463.01 211.24,465.22 212.61,465.74 213.06,463.71 216.25,460.92 216.71,462.51 217.62,462.68 218.99,463.62 219.44,461.42 219.90,458.63 220.81,454.71 222.63,452.25 223.09,448.85 223.55,446.35 224.00,441.83 225.37,435.58 225.82,430.51 226.28,427.40 226.74,424.89 227.19,424.23 228.56,425.12 229.02,423.07 229.47,417.07 229.93,411.61 230.38,406.80 231.75,401.60 232.21,399.59 232.66,400.41 233.12,400.08 233.57,396.99 234.94,395.50 235.40,392.35 235.85,390.02 236.31,386.69 236.76,384.72 238.13,385.62 238.59,387.96 239.04,394.47 239.50,403.82 239.95,422.97 242.23,430.48 242.69,436.41 259.10,438.39 260.46,439.08 260.92,440.04 261.38,441.62 261.83,443.43 262.29,446.61 263.66,448.88 264.11,452.07 264.57,454.27 265.02,458.29 265.48,460.55 266.85,464.51 267.30,467.98 267.76,470.52 268.21,469.70 268.67,469.30 270.49,467.32 270.95,464.68 271.40,463.23 277.78,464.77 280.06,467.16 280.98,468.12 281.43,469.55 282.80,471.08 283.25,471.17 283.71,471.99 284.17,472.05 284.62,472.74 286.44,473.72 286.90,476.74 287.36,480.67 289.18,481.15 289.64,480.80 290.09,478.08 290.55,475.05 291.00,473.95 295.56,473.95 296.02,473.93 297.38,474.88 300.12,480.76 300.57,482.95 301.94,484.16 302.40,482.20 302.85,481.59 303.31,482.33 303.76,483.16 305.13,485.56 306.04,487.38 306.50,489.58 306.96,491.82 308.32,492.95 308.78,493.23 309.23,493.85 309.69,494.67 310.15,495.51 311.51,497.52 312.88,498.27 313.34,498.60 315.16,497.45 315.62,498.21 316.07,497.45 316.53,497.92 317.89,497.90 318.81,495.30 319.72,492.54 321.54,492.70 322.00,493.20 322.45,492.98 322.91,492.82 324.28,490.86 325.64,489.82 326.10,489.22 327.47,490.46 327.92,491.59 328.38,491.98 328.83,491.97 332.02,490.06 332.48,490.74 333.85,492.45 334.30,494.56 334.76,498.17 335.21,501.36 335.67,503.90 338.40,502.20 341.14,497.72 342.05,495.29 343.42,495.28 343.87,494.14 344.33,492.92 344.79,490.51 345.24,488.97 346.61,486.81 347.06,484.96 347.52,483.79 347.98,484.60 348.43,487.07 349.80,487.45 350.26,488.60 350.71,489.75 357.55,483.53 358.00,477.70 360.28,477.16 360.74,479.43 361.19,483.43 362.56,487.48 372.59,482.44 373.04,478.73 373.50,473.38 373.96,471.98 375.78,468.46 376.24,465.31 376.69,462.26 377.15,460.50 378.51,461.82 378.97,462.76 379.43,464.72 379.88,466.14 382.16,469.49 388.09,468.07 388.54,465.71 393.10,467.83 394.47,470.33 395.38,469.29 398.57,472.22 399.02,476.43 399.48,481.06 402.67,480.33 404.04,477.51 408.60,478.56 409.05,481.74 414.52,479.32 414.98,477.35 419.99,477.73 423.18,471.04 423.64,463.37 424.55,461.78 425.00,467.00 426.37,475.13 426.83,484.50 427.28,489.72 442.32,491.30 443.24,489.59 443.69,484.28 444.15,481.18 445.97,478.75 447.34,484.34 450.07,487.80 450.53,490.30 452.35,491.83 452.81,492.52 453.26,489.75 453.72,487.81 460.10,487.56 461.92,486.68 462.84,476.62 465.57,470.36 466.03,470.26 466.48,475.55 467.85,483.86 468.30,492.21 468.76,501.23 469.22,509.77 474.23,504.89 481.98,503.96 482.43,502.14 483.80,501.47 484.26,499.09 484.71,496.22 485.17,491.44 486.99,486.19 487.45,481.53 487.90,477.23 488.36,472.54 488.81,464.73 490.18,456.73 490.64,450.82 491.09,445.91 491.55,442.63 492.01,439.69 493.37,441.16 493.83,442.83 494.28,443.36 494.74,443.55 495.20,444.22 496.56,443.68 498.39,444.73 500.67,446.06 504.77,454.27 506.59,456.68 507.05,457.92 509.78,466.28 510.69,474.63 528.92,465.22 529.38,469.88 529.84,474.48 530.29,482.71 532.11,488.13 532.57,493.30 548.52,490.81 548.98,489.29 549.43,490.18 550.80,490.28 551.26,492.24 551.71,494.66 560.37,490.28 560.83,486.77 561.29,484.17 561.74,481.74 562.20,481.10 563.56,481.72 564.02,481.66 564.48,479.50 564.93,476.87 565.39,471.82 567.21,469.51 567.67,471.14 568.12,473.11 568.58,477.02 569.95,479.09 570.40,479.91 574.05,481.08 579.97,481.28 583.16,479.94 584.07,478.26 587.72,484.79 590.46,487.78 590.91,486.32 592.28,483.11 592.73,478.09 593.19,474.52 593.65,473.12 605.50,470.20 608.23,464.64 608.69,461.83 609.14,460.32 609.60,463.63 610.05,468.51 611.88,472.10 612.33,474.24 612.79,476.26 617.80,478.90 618.71,480.00 619.17,481.65 625.10,482.37 625.55,484.32 626.01,486.21 627.37,489.56 627.83,492.07 628.74,494.98 629.20,495.73 630.57,495.57 631.02,496.74 631.48,501.13 631.93,503.07 632.39,503.83 633.76,502.92 634.21,500.75 634.67,497.30 635.12,495.34 638.77,496.39 640.14,497.42 640.59,497.32 641.05,496.78 641.50,495.00 641.96,495.72 643.33,497.20 645.15,499.92 646.97,499.37 647.43,498.53 647.89,500.55 648.34,502.86 649.71,504.85 650.62,507.98 651.08,510.89 651.53,513.28 653.35,514.36 653.81,515.41 656.09,515.97 656.55,515.59 657.00,514.77 657.46,516.75 657.91,516.68 659.28,516.93 660.65,516.90 662.47,517.44 663.38,517.98 663.84,519.62 665.66,520.30 666.12,520.75 666.57,521.66 667.03,519.77 667.48,517.08 668.85,515.85 669.76,514.87 673.41,511.25 673.87,512.58 675.23,512.07 675.69,508.90 676.14,512.17 676.60,515.23 677.06,518.32 678.42,521.43 678.88,525.03 687.99,523.73 688.91,517.17 689.82,511.12 691.19,507.00 692.10,507.42 692.55,505.60 693.01,505.69 694.38,505.85 694.83,506.19 695.29,507.12 695.74,509.66 696.20,512.66 704.86,510.27 712.15,510.53 713.52,511.80 713.97,512.87 715.34,503.37 716.71,490.20 717.16,473.64 717.62,457.44 718.08,440.09 718.53,436.15 719.90,435.30 720.36,437.52 720.81,438.42 721.27,440.05 721.72,439.88 723.55,439.54 724.00,438.29 724.46,440.99 724.91,447.22 731.29,444.96 736.76,444.71 737.22,443.55 739.04,442.44 739.50,440.58 745.42,439.03 745.88,436.79 746.34,435.26 746.79,433.81 747.25,432.08 748.61,428.81 749.07,427.51 749.53,426.69 749.98,425.96 750.44,426.92 751.80,428.54 752.26,429.59 752.72,430.69 753.17,430.60 756.82,433.95 758.64,435.24 759.10,437.69 760.01,439.30 768.21,439.38 768.67,439.45 770.95,440.55 771.86,439.67 778.70,444.95 779.15,449.12 780.52,451.03 781.43,453.07 784.62,455.26 786.90,454.88 787.36,453.43 787.81,450.91 788.27,450.91 788.72,452.07 791.46,451.23 791.91,448.24 793.28,441.57 793.74,437.76 796.47,450.21 797.38,461.99 799.66,461.68 800.12,461.76 800.57,460.86 801.03,464.12 801.49,467.66 802.85,470.38 803.31,472.61 804.22,469.56 804.68,465.99 806.04,462.83 810.60,463.99 811.06,464.62 812.88,466.48 815.62,464.41 816.53,465.27 816.98,465.89 817.44,463.35 818.81,462.00 819.26,459.38 820.63,458.47 822.00,457.76 822.45,455.19 822.91,451.17 823.36,448.75 823.82,447.45 825.19,445.67 825.64,447.40 826.10,451.20 826.55,454.46 827.01,456.81 832.48,455.05 832.94,453.87 833.39,452.61 834.76,449.36 835.21,449.27 838.40,448.73 838.86,446.78 839.32,443.55 839.77,446.66 842.51,453.93 842.96,455.16 844.33,454.43 844.79,452.47 845.24,447.63 846.15,446.85 854.36,448.59 860.28,447.95 860.74,445.52 861.19,442.59 861.65,441.87 862.11,440.71 863.47,438.83 863.93,437.79 864.84,436.69 865.30,435.62 866.66,434.65 867.12,433.06 868.03,432.25 868.49,433.61 869.85,433.17 870.31,434.03 870.77,436.80 877.15,437.02 877.60,437.70 878.06,439.02 879.43,438.92 879.88,440.11 881.25,435.62 883.07,431.68 883.98,436.05 884.44,437.35 897.20,441.20 898.57,442.95 899.48,440.81 899.94,436.69 900.39,434.39 901.76,431.33 902.67,430.51 905.86,435.73 909.05,436.18 909.96,438.42 911.79,438.12 912.70,435.97 913.15,435.65 931.84,434.61 932.30,431.98 937.77,429.75 938.22,430.27 938.68,430.80 940.05,432.28 940.50,434.65 940.96,434.28 941.41,433.63 944.15,429.81 946.43,428.53 946.88,432.80 947.34,436.17 947.79,437.29 950.98,440.75 953.72,436.99 957.82,432.77 959.19,429.10 959.64,429.14 960.10,430.47 960.56,428.36 961.01,413.25 962.38,394.24 963.29,371.90 963.75,350.73 964.20,342.18 965.57,335.98 966.03,333.53 966.48,330.47 966.94,331.18 967.39,334.33 968.76,338.94 969.22,342.16 969.67,345.70 970.13,347.03 982.43,345.92 982.89,337.22 983.35,324.00 984.71,309.21 985.17,296.40 985.62,286.48 986.08,281.59 986.54,280.68 987.90,281.78 988.36,281.11 988.81,277.04 989.27,277.35 989.73,279.68 991.09,283.27 991.55,285.25 992.01,288.80 1002.03,281.27 1002.49,274.34 1003.86,268.54 1004.31,266.66 1004.77,264.60 1005.22,260.61 1005.68,256.03 1007.05,247.93 1007.50,238.06 1007.96,231.61 1008.41,226.81 1008.87,222.60 1010.24,218.22 1010.69,214.18 1011.15,211.47 1011.60,207.94 1012.06,202.43 1013.43,200.12 1013.88,196.65 1014.34,189.54 1014.79,185.33 1015.25,185.14 1016.62,184.13 1017.07,185.15 1017.53,185.96 1018.44,186.26 1021.18,185.50 1021.63,184.54 1023.00,182.95 1023.45,180.95 1023.91,179.42 1026.19,178.26 1026.65,179.49 1027.10,179.84 1027.56,180.21 1028.01,182.11 1029.38,182.09 1033.03,183.01 1033.48,184.47 1039.41,180.10 1040.32,175.18 1043.05,172.08 1043.51,169.28 1043.97,168.24 1045.33,169.99 1045.79,169.79 1046.24,168.85 1046.70,169.34 1047.16,175.15 1048.98,185.78 1049.43,199.90 1050.35,207.45 1051.71,214.80 1052.17,223.98 1052.63,227.57 1053.08,230.11 1053.54,231.60 1055.36,229.60 1055.82,226.17 1056.27,223.04 1056.73,220.22 1058.09,216.07 1067.67,214.88 1068.12,215.97 1069.03,214.74 1069.49,212.92 1070.86,212.77 1071.77,215.91 1072.22,218.61 1072.68,220.85 1080.88,218.49 1081.80,222.23 1083.62,227.21 1084.99,229.36 1085.44,212.43 1086.81,191.60 1087.27,170.67 1087.72,143.94 1088.18,119.48 1088.63,116.58 1090.00,112.97" fill="none" stroke="#0B6E4F" stroke-width="3" stroke-linejoin="round" stroke-linecap="round"/>
<rect x="96" y="90" width="330" height="58" rx="8" fill="#FFFFFF" opacity="0.86" stroke="#E5E7EB"/>
<line x1="108" y1="108" x2="144" y2="108" stroke="#0B6E4F" stroke-width="3"/>
<text x="154" y="112" font-family="Verdana, sans-serif" font-size="12" fill="#1F2933">Model cumulative PnL proxy</text>
</svg>