<svg xmlns="http://www.w3.org/2000/svg" width="1200" height="640" viewBox="0 0 1200 640">
<rect width="100%" height="100%" fill="#FBFAF7"/>
<text x="600" y="34" text-anchor="middle" font-family="Verdana, sans-serif" font-size="24" font-weight="700" fill="#1F2933">Consumer_Staples: GIS/HSY Model PnL With Train/Simulation Boundary</text>
<rect x="90.00" y="80" width="794.44" height="478" fill="#D8F3DC" opacity="0.35"/>
<text x="487.22" y="100" text-anchor="middle" font-family="Verdana, sans-serif" font-size="12" fill="#334155">Training/validation</text>
<rect x="884.44" y="80" width="205.56" height="478" fill="#FFE8D6" opacity="0.45"/>
<text x="987.22" y="100" text-anchor="middle" font-family="Verdana, sans-serif" font-size="12" fill="#334155">Simulation</text>
<line x1="90" y1="558.00" x2="1090" y2="558.00" stroke="#D7D7D7" stroke-width="1"/>
<text x="80" y="562.00" text-anchor="end" font-family="Verdana, sans-serif" font-size="11" fill="#475569">-1.2101</text>
<line x1="90" y1="462.40" x2="1090" y2="462.40" stroke="#D7D7D7" stroke-width="1"/>
<text x="80" y="466.40" text-anchor="end" font-family="Verdana, sans-serif" font-size="11" fill="#475569">-0.8187</text>
<line x1="90" y1="366.80" x2="1090" y2="366.80" stroke="#D7D7D7" stroke-width="1"/>
<text x="80" y="370.80" text-anchor="end" font-family="Verdana, sans-serif" font-size="11" fill="#475569">-0.4272</text>
<line x1="90" y1="271.20" x2="1090" y2="271.20" stroke="#D7D7D7" stroke-width="1"/>
<text x="80" y="275.20" text-anchor="end" font-family="Verdana, sans-serif" font-size="11" fill="#475569">-0.0358</text>
<line x1="90" y1="175.60" x2="1090" y2="175.60" stroke="#D7D7D7" stroke-width="1"/>
<text x="80" y="179.60" text-anchor="end" font-family="Verdana, sans-serif" font-size="11" fill="#475569">0.3557</text>
<line x1="90" y1="80.00" x2="1090" y2="80.00" stroke="#D7D7D7" stroke-width="1"/>
<text x="80" y="84.00" text-anchor="end" font-family="Verdana, sans-serif" font-size="11" fill="#475569">0.7471</text>
<line x1="90.00" y1="80" x2="90.00" y2="558" stroke="#ECECEC" stroke-width="1"/>
<text x="90.00" y="586" text-anchor="middle" font-family="Verdana, sans-serif" font-size="11" fill="#475569">2020-04-27</text>
<line x1="290.00" y1="80" x2="290.00" y2="558" stroke="#ECECEC" stroke-width="1"/>
<text x="290.00" y="586" text-anchor="middle" font-family="Verdana, sans-serif" font-size="11" fill="#475569">2021-07-09</text>
<line x1="490.00" y1="80" x2="490.00" y2="558" stroke="#ECECEC" stroke-width="1"/>
<text x="490.00" y="586" text-anchor="middle" font-family="Verdana, sans-serif" font-size="11" fill="#475569">2022-09-21</text>
<line x1="690.00" y1="80" x2="690.00" y2="558" stroke="#ECECEC" stroke-width="1"/>
<text x="690.00" y="586" text-anchor="middle" font-family="Verdana, sans-serif" font-size="11" fill="#475569">2023-12-04</text>
<line x1="890.00" y1="80" x2="890.00" y2="558" stroke="#ECECEC" stroke-width="1"/>
<text x="890.00" y="586" text-anchor="middle" font-family="Verdana, sans-serif" font-size="11" fill="#475569">2025-02-15</text>
<line x1="1090.00" y1="80" x2="1090.00" y2="558" stroke="#ECECEC" stroke-width="1"/>
<text x="1090.00" y="586" text-anchor="middle" font-family="Verdana, sans-serif" font-size="11" fill="#475569">2026-04-30</text>
<line x1="90" y1="80" x2="90" y2="558" stroke="#1F2933" stroke-width="1.2"/>
<line x1="90" y1="558" x2="1090" y2="558" stroke="#1F2933" stroke-width="1.2"/>
<text x="24" y="319" text-anchor="middle" transform="rotate(-90 24 319)" font-family="Verdana, sans-serif" font-size="13" fill="#1F2933">Cumulative PnL proxy</text>
<line x1="696.65" y1="80" x2="696.65" y2="558" stroke="#52796F" stroke-width="2.2" stroke-dasharray="2,5"/>
<text x="704.65" y="122" font-family="Verdana, sans-serif" font-size="12" fill="#52796F">Validation starts 2023-12-19</text>
<line x1="884.44" y1="80" x2="884.44" y2="558" stroke="#1D3557" stroke-width="2.2" stroke-dasharray="7,5"/>
<text x="892.44" y="122" font-family="Verdana, sans-serif" font-size="12" fill="#1D3557">Simulation starts 2025-02-03</text>
<polyline points="90.00,262.47 93.19,266.24 93.65,265.21 94.56,263.05 110.97,267.46 117.35,262.54 122.36,269.45 122.82,276.00 134.67,279.59 135.12,285.80 135.58,290.07 136.03,294.67 136.49,300.59 141.50,302.50 141.96,306.07 142.42,308.80 142.87,309.43 147.43,309.08 147.89,306.47 149.25,306.10 151.53,294.52 152.44,279.97 153.81,267.21 154.27,266.59 154.72,266.67 155.18,268.20 155.63,270.63 157.00,275.61 157.46,279.34 157.91,285.42 158.37,293.53 158.82,302.77 164.29,302.46 164.75,300.43 165.21,297.01 166.57,293.11 167.03,293.05 180.25,280.29 180.70,270.45 181.16,265.29 182.53,271.35 182.98,280.35 183.44,288.68 183.89,298.38 184.35,305.84 196.20,306.25 196.65,307.75 197.11,306.30 198.48,304.38 198.93,304.45 199.39,305.75 202.58,303.65 206.23,302.65 206.68,295.04 209.42,289.76 209.87,293.01 211.70,295.04 212.15,299.21 212.61,299.90 214.89,313.92 215.34,339.16 215.80,357.46 217.62,358.76 218.08,355.17 218.99,346.04 227.65,351.25 229.02,348.35 230.38,345.53 231.75,344.86 232.21,347.57 233.57,353.64 234.03,358.21 237.68,359.77 238.13,362.86 238.59,366.03 239.95,372.83 246.79,370.37 247.25,367.18 256.36,363.80 256.82,360.26 260.46,364.74 260.92,369.44 262.29,374.84 262.74,378.15 263.20,383.43 263.66,382.04 268.67,380.92 269.12,378.19 269.58,376.58 270.04,373.95 270.49,373.68 272.32,373.63 272.77,377.32 273.23,380.96 273.68,386.51 279.15,382.97 279.61,378.09 280.06,371.21 281.43,363.60 281.89,358.41 282.34,352.82 282.80,346.06 283.25,341.34 284.62,340.98 285.08,340.63 285.53,344.18 285.99,347.46 286.44,351.02 291.46,349.54 292.83,348.16 294.19,351.87 294.65,351.30 295.10,349.85 295.56,348.27 296.02,346.39 297.84,345.93 298.30,346.73 298.75,345.85 299.21,344.08 301.94,338.42 302.40,334.66 304.68,340.27 305.13,347.13 305.59,354.70 310.60,349.41 311.97,342.88 314.70,342.79 316.98,342.12 317.44,349.76 317.89,355.60 318.35,360.75 319.72,366.76 320.17,374.50 320.63,373.31 324.73,381.01 326.10,387.21 327.01,391.23 327.47,393.07 327.92,396.56 329.74,400.18 330.66,400.20 331.11,399.26 339.77,394.43 340.23,393.60 342.51,401.43 342.96,411.45 343.87,414.87 345.24,416.30 351.62,409.14 354.81,415.18 358.46,422.08 358.92,426.09 359.83,422.15 361.19,420.92 364.84,418.18 365.30,413.05 375.78,414.86 377.60,413.70 378.06,411.43 380.34,406.48 385.35,396.61 388.09,390.06 388.54,388.78 389.91,388.14 390.36,386.34 390.82,382.15 391.28,385.23 391.73,387.01 393.56,386.41 394.01,386.46 394.47,386.15 397.20,383.26 397.66,384.25 399.94,373.60 400.39,363.74 401.30,348.21 402.67,334.31 403.13,328.83 403.58,322.68 404.04,322.04 404.49,321.11 405.86,320.93 406.32,319.13 406.77,323.73 407.23,332.19 407.68,345.22 409.05,355.77 409.51,369.66 414.07,372.61 415.43,376.21 415.89,377.05 416.34,379.51 418.62,381.46 419.08,383.56 419.99,389.92 420.45,396.74 421.81,401.10 422.27,403.80 422.73,404.24 425.46,399.62 425.92,395.63 431.39,391.26 432.75,382.32 433.21,374.60 435.94,383.28 436.40,389.36 438.22,396.03 445.97,393.97 447.79,393.16 448.25,392.36 448.71,392.96 450.53,398.93 450.98,405.09 451.44,425.61 467.39,424.41 467.85,426.83 468.30,432.02 469.67,436.69 470.13,441.75 470.58,449.36 473.77,445.26 474.23,442.50 474.69,439.74 486.08,436.65 486.54,435.40 486.99,437.95 487.45,440.53 488.81,442.71 489.27,446.60 489.73,462.32 493.37,454.21 493.83,448.82 506.13,452.13 506.59,458.13 507.96,465.74 508.41,469.51 509.78,469.51 511.15,468.89 512.97,470.65 514.34,471.88 515.25,473.46 516.16,479.90 517.99,483.09 538.50,493.08 539.86,501.50 541.23,496.86 546.70,486.30 547.16,481.63 547.61,476.82 548.07,475.14 549.43,473.31 549.89,474.55 550.35,471.94 550.80,458.96 552.63,443.80 553.08,428.72 553.54,415.01 553.99,412.43 554.45,412.61 555.82,411.31 556.27,407.12 556.73,403.41 557.18,402.43 557.64,402.95 559.46,412.80 559.92,427.05 560.37,440.76 560.83,455.65 565.39,449.62 576.33,451.93 592.73,453.95 594.10,456.36 594.56,458.22 595.01,460.42 600.48,451.76 600.94,442.06 601.39,431.27 604.13,428.40 604.59,426.43 605.04,424.87 605.50,424.90 606.86,426.98 607.32,429.28 607.78,425.64 608.23,424.96 608.69,421.56 610.97,414.48 611.42,405.22 611.88,397.52 613.70,392.76 614.16,394.12 614.61,396.38 615.07,399.43 616.44,403.75 616.89,403.76 617.80,395.74 620.54,391.80 620.99,392.19 621.45,394.29 622.82,395.25 623.27,397.59 624.18,400.46 632.39,402.31 632.84,403.24 633.30,407.35 633.76,407.66 639.23,411.54 643.33,406.33 643.78,401.05 645.15,399.19 645.61,396.62 646.06,395.76 646.52,393.89 646.97,388.90 648.80,384.56 649.25,380.65 649.71,375.00 650.16,374.04 651.53,374.21 651.99,375.53 652.44,373.90 652.90,376.98 654.72,377.55 655.63,378.70 656.55,378.36 659.74,381.54 662.93,382.30 664.29,392.76 666.12,398.51 667.48,399.14 667.94,401.17 668.85,403.17 683.89,406.48 684.35,409.71 685.26,413.89 686.63,415.90 687.08,416.74 690.27,421.97 690.73,431.65 693.92,439.24 694.38,441.55 707.14,433.82 707.59,427.54 709.42,422.90 709.87,419.38 710.33,418.57 710.78,419.00 712.15,420.34 712.61,427.39 713.06,431.52 713.52,437.86 713.97,443.40 721.72,443.99 723.09,449.09 723.55,458.44 725.82,469.55 726.28,476.96 728.56,476.59 729.02,477.13 731.29,478.86 731.75,479.64 732.21,477.68 734.48,470.01 739.50,474.88 749.07,470.91 750.44,473.51 753.63,483.93 754.08,491.27 761.83,488.65 763.20,483.68 763.66,478.57 764.11,475.41 764.57,472.01 765.02,471.14 766.39,474.00 766.85,473.48 767.30,474.21 770.49,470.67 771.40,472.18 773.23,475.60 773.68,475.30 774.14,474.67 776.42,478.40 776.87,479.84 777.33,483.30 782.80,484.46 783.25,475.01 787.36,471.51 788.72,467.87 789.18,465.36 789.64,464.96 790.09,465.14 790.55,464.05 791.91,464.34 792.37,461.39 792.83,464.68 793.74,468.10 795.10,472.88 795.56,477.23 799.21,478.90 824.28,481.49 824.73,483.01 835.21,480.34 836.58,474.41 838.40,472.65 839.77,472.58 840.23,471.73 840.68,474.59 841.14,476.74 841.60,478.43 842.96,481.33 843.42,482.67 847.06,473.16 847.52,466.83 847.98,462.61 849.34,464.62 849.80,468.07 850.26,470.87 850.71,471.09 851.17,473.11 852.53,478.14 852.99,487.58 862.56,495.37 875.32,498.30 875.78,504.25 876.69,514.57 881.25,521.89 881.70,525.03 891.28,512.93 891.73,500.38 892.19,494.27 892.64,487.29 894.01,478.40 894.47,480.27 894.92,478.70 895.38,476.12 895.83,474.86 897.20,477.27 897.66,477.67 898.11,479.26 898.57,481.33 906.77,472.45 909.96,476.41 910.42,480.33 914.07,475.54 914.52,465.15 914.98,457.64 920.90,457.66 923.64,454.89 924.09,448.43 924.55,445.37 925.92,438.89 926.37,427.25 926.83,415.85 927.28,409.26 927.74,397.97 929.11,396.27 929.56,399.32 930.02,400.96 930.47,405.90 930.93,419.62 932.30,429.31 932.75,440.34 933.21,450.21 936.40,443.71 945.06,434.77 945.52,428.13 945.97,420.87 946.88,413.69 948.25,409.62 948.71,407.65 949.16,397.75 949.62,388.23 950.07,380.94 951.44,380.18 951.90,375.81 952.35,381.74 952.81,386.10 954.63,384.47 957.82,393.46 962.38,385.26 962.84,375.83 964.20,372.30 964.66,363.94 965.11,349.20 965.57,337.75 966.03,325.85 967.39,316.85 967.85,310.36 968.30,311.18 968.76,315.89 969.22,324.50 970.58,339.47 971.04,350.64 971.49,360.28 983.80,363.81 984.71,368.59 989.73,368.15 990.18,375.43 990.64,385.12 992.92,390.28 997.93,390.94 999.30,389.04 1000.21,385.43 1000.67,385.95 1002.49,391.96 1003.40,405.68 1003.86,411.49 1006.59,406.29 1010.24,404.14 1010.69,404.75 1012.06,397.34 1012.52,392.44 1016.16,393.42 1018.44,387.44 1018.90,380.41 1019.35,373.19 1020.26,366.24 1021.63,360.71 1022.09,358.12 1022.54,359.67 1023.00,358.55 1023.45,356.26 1024.82,354.34 1025.28,356.47 1026.19,358.69 1026.65,363.24 1032.11,358.70 1033.03,353.78 1038.04,338.66 1039.41,330.36 1040.77,317.60 1041.23,309.75 1041.69,311.82 1042.14,310.89 1042.60,303.28 1044.42,304.07 1044.88,301.95 1045.33,302.95 1045.79,305.54 1047.16,312.79 1047.61,320.31 1048.07,325.86 1052.17,306.47 1054.45,290.64 1054.90,290.48 1055.36,299.34 1057.18,289.90 1060.37,284.76 1060.83,275.00 1061.29,267.56 1061.74,260.79 1063.11,252.80 1063.56,245.40 1064.02,238.41 1064.48,234.48 1064.93,237.36 1066.30,237.07 1066.75,235.25 1067.21,228.72 1067.67,212.35 1069.95,192.07 1070.40,176.85 1070.86,168.62 1071.31,158.83 1072.68,152.24 1073.14,141.68 1073.59,129.19 1074.05,119.60 1074.50,113.27 1075.87,112.97 1076.33,121.43 1076.78,139.30 1077.24,152.01 1079.06,164.57 1086.81,165.11 1087.27,162.52 1088.63,162.97 1089.09,161.66 1089.54,156.30 1090.00,160.74" fill="none" stroke="#0B6E4F" stroke-width="3" stroke-linejoin="round" stroke-linecap="round"/>
<rect x="96" y="90" width="330" height="58" rx="8" fill="#FFFFFF" opacity="0.86" stroke="#E5E7EB"/>
<line x1="108" y1="108" x2="144" y2="108" stroke="#0B6E4F" stroke-width="3"/>
<text x="154" y="112" font-family="Verdana, sans-serif" font-size="12" fill="#1F2933">Model cumulative PnL proxy</text>
</svg>