<svg xmlns="http://www.w3.org/2000/svg" width="1200" height="640" viewBox="0 0 1200 640">
<rect width="100%" height="100%" fill="#FBFAF7"/>
<text x="600" y="34" text-anchor="middle" font-family="Verdana, sans-serif" font-size="24" font-weight="700" fill="#1F2933">Consumer_Disc: TSLA/LULU Simulation PnL vs S&amp;P 500</text>
<line x1="90" y1="558.00" x2="1090" y2="558.00" stroke="#D7D7D7" stroke-width="1"/>
<text x="80" y="562.00" text-anchor="end" font-family="Verdana, sans-serif" font-size="11" fill="#475569">-0.8991</text>
<text x="1100" y="562.00" text-anchor="start" font-family="Verdana, sans-serif" font-size="11" fill="#475569">-14.5%</text>
<line x1="90" y1="462.40" x2="1090" y2="462.40" stroke="#D7D7D7" stroke-width="1"/>
<text x="80" y="466.40" text-anchor="end" font-family="Verdana, sans-serif" font-size="11" fill="#475569">0.9317</text>
<text x="1100" y="466.40" text-anchor="start" font-family="Verdana, sans-serif" font-size="11" fill="#475569">-5.2%</text>
<line x1="90" y1="366.80" x2="1090" y2="366.80" stroke="#D7D7D7" stroke-width="1"/>
<text x="80" y="370.80" text-anchor="end" font-family="Verdana, sans-serif" font-size="11" fill="#475569">2.7625</text>
<text x="1100" y="370.80" text-anchor="start" font-family="Verdana, sans-serif" font-size="11" fill="#475569">4.1%</text>
<line x1="90" y1="271.20" x2="1090" y2="271.20" stroke="#D7D7D7" stroke-width="1"/>
<text x="80" y="275.20" text-anchor="end" font-family="Verdana, sans-serif" font-size="11" fill="#475569">4.5932</text>
<text x="1100" y="275.20" text-anchor="start" font-family="Verdana, sans-serif" font-size="11" fill="#475569">13.4%</text>
<line x1="90" y1="175.60" x2="1090" y2="175.60" stroke="#D7D7D7" stroke-width="1"/>
<text x="80" y="179.60" text-anchor="end" font-family="Verdana, sans-serif" font-size="11" fill="#475569">6.4240</text>
<text x="1100" y="179.60" text-anchor="start" font-family="Verdana, sans-serif" font-size="11" fill="#475569">22.7%</text>
<line x1="90" y1="80.00" x2="1090" y2="80.00" stroke="#D7D7D7" stroke-width="1"/>
<text x="80" y="84.00" text-anchor="end" font-family="Verdana, sans-serif" font-size="11" fill="#475569">8.2548</text>
<text x="1100" y="84.00" text-anchor="start" font-family="Verdana, sans-serif" font-size="11" fill="#475569">32.0%</text>
<line x1="90.00" y1="80" x2="90.00" y2="558" stroke="#ECECEC" stroke-width="1"/>
<text x="90.00" y="586" text-anchor="middle" font-family="Verdana, sans-serif" font-size="11" fill="#475569">2025-03-10</text>
<line x1="290.00" y1="80" x2="290.00" y2="558" stroke="#ECECEC" stroke-width="1"/>
<text x="290.00" y="586" text-anchor="middle" font-family="Verdana, sans-serif" font-size="11" fill="#475569">2025-06-02</text>
<line x1="490.00" y1="80" x2="490.00" y2="558" stroke="#ECECEC" stroke-width="1"/>
<text x="490.00" y="586" text-anchor="middle" font-family="Verdana, sans-serif" font-size="11" fill="#475569">2025-08-25</text>
<line x1="690.00" y1="80" x2="690.00" y2="558" stroke="#ECECEC" stroke-width="1"/>
<text x="690.00" y="586" text-anchor="middle" font-family="Verdana, sans-serif" font-size="11" fill="#475569">2025-11-17</text>
<line x1="890.00" y1="80" x2="890.00" y2="558" stroke="#ECECEC" stroke-width="1"/>
<text x="890.00" y="586" text-anchor="middle" font-family="Verdana, sans-serif" font-size="11" fill="#475569">2026-02-09</text>
<line x1="1090.00" y1="80" x2="1090.00" y2="558" stroke="#ECECEC" stroke-width="1"/>
<text x="1090.00" y="586" text-anchor="middle" font-family="Verdana, sans-serif" font-size="11" fill="#475569">2026-05-04</text>
<line x1="90" y1="80" x2="90" y2="558" stroke="#1F2933" stroke-width="1.2"/>
<line x1="90" y1="558" x2="1090" y2="558" stroke="#1F2933" stroke-width="1.2"/>
<text x="24" y="319" text-anchor="middle" transform="rotate(-90 24 319)" font-family="Verdana, sans-serif" font-size="13" fill="#1F2933">Cumulative PnL proxy</text>
<line x1="1090" y1="80" x2="1090" y2="558" stroke="#1F2933" stroke-width="1.2"/>
<text x="1178" y="319" text-anchor="middle" transform="rotate(90 1178 319)" font-family="Verdana, sans-serif" font-size="13" fill="#1F2933">S&amp;P 500 cumulative return</text>
<polyline points="90.00,511.05 106.67,504.82 111.43,512.81 113.81,519.93 116.19,525.03 140.00,506.66 142.38,485.70 149.52,476.85 156.67,473.70 159.05,467.68 161.43,465.49 163.81,469.00 166.19,464.95 173.33,458.25 175.71,455.39 178.10,449.34 180.48,448.83 190.00,450.62 192.38,454.70 194.76,460.57 197.14,467.62 240.00,472.57 244.76,478.46 247.14,484.81 256.67,489.25 259.05,494.61 261.43,497.35 263.81,498.26 266.19,495.46 275.71,491.38 278.10,484.79 280.48,481.03 282.86,478.67 306.67,455.16 309.05,423.96 311.43,387.51 313.81,343.18 316.19,324.47 323.33,311.79 325.71,300.98 328.10,288.77 332.86,277.45 340.00,266.18 342.38,259.80 344.76,255.94 347.14,257.04 349.52,261.12 356.67,272.84 359.05,286.06 409.05,283.65 411.43,280.72 423.33,277.25 425.71,273.08 428.10,264.54 430.48,252.65 432.86,238.29 440.00,228.17 442.38,218.06 444.76,211.44 447.14,202.84 449.52,195.72 456.67,184.07 459.05,177.47 461.43,177.05 463.81,177.72 466.19,183.73 473.33,195.95 475.71,200.96 530.48,167.88 532.86,155.23 540.00,139.94 542.38,127.10 544.76,116.21 547.14,112.97 549.52,116.95 556.67,124.59 559.05,132.71 561.43,142.79 625.71,150.42 628.10,158.51 630.48,167.19 632.86,176.08 642.38,173.00 644.76,164.38 649.52,155.97 656.67,142.11 661.43,139.96 663.81,135.75 666.19,135.52 673.33,142.02 675.71,149.88 678.10,156.16 680.48,166.42 723.33,172.16 728.10,172.39 730.48,170.30 732.86,171.49 740.00,170.84 742.38,168.88 749.52,178.42 761.43,190.13 763.81,204.47 766.19,204.86 773.33,207.26 775.71,211.47 778.10,211.10 782.86,208.21 790.00,212.55 792.38,215.32 794.76,216.31 799.52,221.95 809.05,227.15 811.43,230.54 816.19,225.36 823.33,223.60 825.71,219.49 828.10,213.14 830.48,208.32 856.67,202.57 859.05,199.51 861.43,192.79 863.81,180.90 866.19,171.21 873.33,163.17 875.71,153.39 878.10,154.87 880.48,155.50 882.86,156.67 890.00,154.73 892.38,161.12 897.14,158.17 899.52,160.08 916.19,173.88 932.86,173.60 947.14,164.55 949.52,154.19 966.19,145.04 973.33,137.61 975.71,131.85 978.10,135.92 980.48,143.93 982.86,151.29 990.00,156.92 992.38,160.49 1013.81,165.87 1023.33,176.21 1025.71,184.41 1044.76,180.68 1047.14,171.68 1049.52,167.21 1056.67,165.01 1080.48,160.21 1082.86,148.56 1090.00,129.57" fill="none" stroke="#184E77" stroke-width="3" stroke-linejoin="round" stroke-linecap="round"/>
<polyline points="90.00,409.19 90.00,409.19 92.38,416.98 94.76,411.99 97.14,426.25 99.52,404.72 106.67,398.09 109.05,409.17 111.43,398.06 113.81,400.33 116.19,399.47 123.33,381.14 125.71,379.47 128.10,391.29 130.48,394.75 132.86,415.36 140.00,409.69 142.38,405.80 144.76,398.85 147.14,449.17 149.52,508.29 156.67,510.46 159.05,525.03 161.43,438.10 163.81,472.73 166.19,455.25 173.33,447.44 175.71,449.15 178.10,471.32 180.48,470.04 190.00,492.87 192.38,469.11 194.76,452.96 197.14,432.99 199.52,425.57 206.67,424.92 209.05,419.04 211.43,417.53 213.81,411.10 216.19,395.97 223.33,402.62 225.71,410.59 228.10,406.13 230.48,400.14 232.86,400.88 240.00,367.09 242.38,359.32 244.76,358.21 247.14,353.75 249.52,346.15 256.67,345.19 259.05,349.43 261.43,367.01 263.81,367.49 266.19,374.67 275.71,352.90 278.10,358.95 280.48,354.62 282.86,354.71 290.00,350.26 292.38,343.95 294.76,343.87 297.14,349.65 299.52,338.45 306.67,337.44 309.05,331.40 311.43,334.44 313.81,330.22 316.19,342.74 323.33,332.45 325.71,341.69 328.10,342.03 332.86,344.41 340.00,333.90 342.38,321.62 344.76,321.62 347.14,312.66 349.52,306.78 356.67,300.94 359.05,302.21 361.43,296.82 363.81,287.30 373.33,296.35 375.71,297.17 378.10,290.25 380.48,287.09 382.86,290.89 390.00,289.27 392.38,293.82 394.76,290.17 397.14,283.99 399.52,284.10 406.67,282.48 409.05,281.75 411.43,272.71 413.81,271.89 416.19,267.26 423.33,267.05 425.71,270.52 428.10,271.98 430.48,276.29 432.86,294.88 440.00,278.02 442.38,283.66 444.76,275.25 447.14,276.18 449.52,267.11 456.67,270.04 459.05,256.78 461.43,252.97 463.81,252.61 466.19,256.04 473.33,256.16 475.71,263.09 478.10,265.95 480.48,270.64 482.86,252.91 490.00,257.96 492.38,253.08 494.76,250.25 497.14,246.50 499.52,254.13 509.05,262.33 511.43,256.33 513.81,246.46 516.19,250.23 523.33,247.73 525.71,244.53 528.10,240.96 530.48,230.80 532.86,231.38 540.00,225.70 542.38,227.26 544.76,228.44 547.14,222.64 549.52,216.70 556.67,211.31 559.05,218.07 561.43,221.54 563.81,227.64 566.19,220.49 573.33,217.28 575.71,212.28 578.10,208.11 580.48,207.35 582.86,207.27 590.00,202.78 592.38,207.49 594.76,200.32 597.14,203.73 599.52,237.21 606.67,218.47 609.05,220.38 611.43,215.47 613.81,223.17 616.19,216.77 623.33,203.73 625.71,203.69 628.10,210.28 630.48,203.12 632.86,193.36 640.00,178.05 642.38,175.17 644.76,175.22 647.14,187.74 649.52,184.46 656.67,182.30 659.05,197.05 661.43,192.51 663.81,206.44 666.19,204.89 673.33,185.89 675.71,183.29 678.10,182.49 680.48,203.29 682.86,203.91 690.00,215.23 692.38,225.33 694.76,220.77 697.14,239.73 699.52,227.95 706.67,209.23 709.05,198.09 711.43,189.52 716.19,182.83 723.33,189.52 725.71,186.45 728.10,182.71 730.48,181.36 732.86,178.92 740.00,183.30 742.38,184.40 744.76,175.94 747.14,173.31 749.52,186.81 756.67,188.80 759.05,191.78 761.43,206.24 763.81,196.46 766.19,185.51 773.33,177.44 775.71,171.70 778.10,167.62 782.86,168.01 790.00,172.44 792.38,174.18 794.76,183.49 799.52,181.11 806.67,173.12 809.05,165.28 811.43,169.66 813.81,169.56 816.19,161.34 823.33,159.33 825.71,161.81 828.10,168.62 830.48,165.34 832.86,166.16 842.38,192.41 844.76,177.97 847.14,171.05 849.52,170.63 856.67,164.29 859.05,159.08 861.43,159.19 863.81,160.84 866.19,166.34 873.33,159.48 875.71,170.23 878.10,176.66 880.48,192.12 882.86,167.57 890.00,161.61 892.38,165.83 894.76,165.89 897.14,185.82 899.52,185.20 909.05,183.91 911.43,176.92 913.81,180.48 916.19,171.75 923.33,184.91 925.71,175.32 928.10,165.04 930.48,171.87 932.86,177.37 940.00,176.87 942.38,188.78 944.76,179.09 947.14,186.20 949.52,202.83 956.67,192.57 959.05,195.23 961.43,196.27 963.81,215.19 966.19,222.60 973.33,210.28 975.71,207.22 978.10,223.97 980.48,227.31 982.86,245.65 990.00,231.99 992.38,236.50 994.76,229.99 997.14,251.03 999.52,270.89 1006.67,275.49 1009.05,241.61 1011.43,233.03 1013.81,231.68 1023.33,226.33 1025.71,225.41 1028.10,194.98 1030.48,187.31 1032.86,188.73 1040.00,176.02 1042.38,161.14 1044.76,150.95 1047.14,147.59 1049.52,132.05 1056.67,135.15 1059.05,143.42 1061.43,129.87 1063.81,135.28 1066.19,124.89 1073.33,123.27 1075.71,129.71 1078.10,130.23 1080.48,116.84 1082.86,112.97 1090.00,118.35" fill="none" stroke="#D1495B" stroke-width="2.5" stroke-linejoin="round" stroke-linecap="round" opacity="0.9"/>
<rect x="96" y="90" width="330" height="58" rx="8" fill="#FFFFFF" opacity="0.86" stroke="#E5E7EB"/>
<line x1="108" y1="108" x2="144" y2="108" stroke="#184E77" stroke-width="3"/>
<text x="154" y="112" font-family="Verdana, sans-serif" font-size="12" fill="#1F2933">Model cumulative PnL proxy</text>
<line x1="108" y1="132" x2="144" y2="132" stroke="#D1495B" stroke-width="2.5"/>
<text x="154" y="136" font-family="Verdana, sans-serif" font-size="12" fill="#1F2933">S&amp;P 500 cumulative return</text>
<text x="90" y="618" font-family="Verdana, sans-serif" font-size="12" fill="#475569">simulation trades=153, total pnl=7.30553</text>
</svg>