<svg xmlns="http://www.w3.org/2000/svg" width="1200" height="640" viewBox="0 0 1200 640">
<rect width="100%" height="100%" fill="#FBFAF7"/>
<text x="600" y="34" text-anchor="middle" font-family="Verdana, sans-serif" font-size="24" font-weight="700" fill="#1F2933">Energy: EOG/LNG Simulation PnL vs S&amp;P 500</text>
<line x1="90" y1="558.00" x2="1090" y2="558.00" stroke="#D7D7D7" stroke-width="1"/>
<text x="80" y="562.00" text-anchor="end" font-family="Verdana, sans-serif" font-size="11" fill="#475569">-0.1451</text>
<text x="1100" y="562.00" text-anchor="start" font-family="Verdana, sans-serif" font-size="11" fill="#475569">-18.1%</text>
<line x1="90" y1="462.40" x2="1090" y2="462.40" stroke="#D7D7D7" stroke-width="1"/>
<text x="80" y="466.40" text-anchor="end" font-family="Verdana, sans-serif" font-size="11" fill="#475569">0.1119</text>
<text x="1100" y="466.40" text-anchor="start" font-family="Verdana, sans-serif" font-size="11" fill="#475569">-9.3%</text>
<line x1="90" y1="366.80" x2="1090" y2="366.80" stroke="#D7D7D7" stroke-width="1"/>
<text x="80" y="370.80" text-anchor="end" font-family="Verdana, sans-serif" font-size="11" fill="#475569">0.3688</text>
<text x="1100" y="370.80" text-anchor="start" font-family="Verdana, sans-serif" font-size="11" fill="#475569">-0.4%</text>
<line x1="90" y1="271.20" x2="1090" y2="271.20" stroke="#D7D7D7" stroke-width="1"/>
<text x="80" y="275.20" text-anchor="end" font-family="Verdana, sans-serif" font-size="11" fill="#475569">0.6258</text>
<text x="1100" y="275.20" text-anchor="start" font-family="Verdana, sans-serif" font-size="11" fill="#475569">8.5%</text>
<line x1="90" y1="175.60" x2="1090" y2="175.60" stroke="#D7D7D7" stroke-width="1"/>
<text x="80" y="179.60" text-anchor="end" font-family="Verdana, sans-serif" font-size="11" fill="#475569">0.8827</text>
<text x="1100" y="179.60" text-anchor="start" font-family="Verdana, sans-serif" font-size="11" fill="#475569">17.4%</text>
<line x1="90" y1="80.00" x2="1090" y2="80.00" stroke="#D7D7D7" stroke-width="1"/>
<text x="80" y="84.00" text-anchor="end" font-family="Verdana, sans-serif" font-size="11" fill="#475569">1.1397</text>
<text x="1100" y="84.00" text-anchor="start" font-family="Verdana, sans-serif" font-size="11" fill="#475569">26.3%</text>
<line x1="90.00" y1="80" x2="90.00" y2="558" stroke="#ECECEC" stroke-width="1"/>
<text x="90.00" y="586" text-anchor="middle" font-family="Verdana, sans-serif" font-size="11" fill="#475569">2024-12-19</text>
<line x1="290.00" y1="80" x2="290.00" y2="558" stroke="#ECECEC" stroke-width="1"/>
<text x="290.00" y="586" text-anchor="middle" font-family="Verdana, sans-serif" font-size="11" fill="#475569">2025-03-28</text>
<line x1="490.00" y1="80" x2="490.00" y2="558" stroke="#ECECEC" stroke-width="1"/>
<text x="490.00" y="586" text-anchor="middle" font-family="Verdana, sans-serif" font-size="11" fill="#475569">2025-07-06</text>
<line x1="690.00" y1="80" x2="690.00" y2="558" stroke="#ECECEC" stroke-width="1"/>
<text x="690.00" y="586" text-anchor="middle" font-family="Verdana, sans-serif" font-size="11" fill="#475569">2025-10-13</text>
<line x1="890.00" y1="80" x2="890.00" y2="558" stroke="#ECECEC" stroke-width="1"/>
<text x="890.00" y="586" text-anchor="middle" font-family="Verdana, sans-serif" font-size="11" fill="#475569">2026-01-21</text>
<line x1="1090.00" y1="80" x2="1090.00" y2="558" stroke="#ECECEC" stroke-width="1"/>
<text x="1090.00" y="586" text-anchor="middle" font-family="Verdana, sans-serif" font-size="11" fill="#475569">2026-05-01</text>
<line x1="90" y1="80" x2="90" y2="558" stroke="#1F2933" stroke-width="1.2"/>
<line x1="90" y1="558" x2="1090" y2="558" stroke="#1F2933" stroke-width="1.2"/>
<text x="24" y="319" text-anchor="middle" transform="rotate(-90 24 319)" font-family="Verdana, sans-serif" font-size="13" fill="#1F2933">Cumulative PnL proxy</text>
<line x1="1090" y1="80" x2="1090" y2="558" stroke="#1F2933" stroke-width="1.2"/>
<text x="1178" y="319" text-anchor="middle" transform="rotate(90 1178 319)" font-family="Verdana, sans-serif" font-size="13" fill="#1F2933">S&amp;P 500 cumulative return</text>
<polyline points="90.00,504.03 106.06,504.94 112.09,507.18 114.10,507.92 118.11,512.54 120.12,513.64 126.14,517.11 128.15,512.86 134.18,500.73 142.21,502.64 156.27,525.03 158.27,513.31 160.28,502.66 162.29,486.37 168.31,458.39 170.32,441.15 172.33,444.05 182.37,468.01 196.43,444.62 202.45,424.88 212.49,414.74 214.50,408.06 216.51,416.89 218.51,423.43 224.54,421.37 226.55,421.10 228.55,434.77 246.63,427.05 252.65,400.85 254.66,380.08 256.67,369.12 258.67,366.43 280.76,369.51 282.77,367.44 284.78,362.99 286.79,350.77 314.90,390.16 322.93,426.81 324.94,453.00 326.95,484.17 328.96,489.51 336.99,489.07 339.00,485.82 341.00,470.45 343.01,460.35 345.02,454.55 379.16,429.49 381.16,401.64 383.17,369.12 385.18,347.42 393.21,352.03 395.22,365.77 397.23,373.88 429.36,364.52 435.38,333.71 437.39,296.93 439.40,259.05 441.41,215.75 449.44,195.40 451.45,183.49 453.45,171.98 457.47,157.71 463.49,159.28 465.50,176.34 467.51,191.68 469.52,210.09 471.53,231.28 477.55,254.74 527.75,224.88 535.78,227.53 537.79,235.53 539.80,247.76 541.81,272.89 547.83,307.40 555.86,298.33 561.89,282.30 563.90,268.00 565.90,253.01 567.91,237.98 596.02,222.49 612.09,233.18 618.11,243.13 620.12,260.83 626.14,260.75 634.18,250.62 654.26,256.81 660.28,270.60 662.29,282.48 664.30,293.77 666.31,307.94 668.31,320.25 674.34,326.84 676.35,333.14 678.35,341.26 680.36,335.75 682.37,337.94 688.39,331.21 690.40,322.26 692.41,313.06 696.43,303.11 722.53,296.45 724.54,286.39 730.56,274.19 732.57,261.53 734.58,255.46 736.59,251.53 738.59,247.41 744.62,248.44 746.63,244.05 748.63,245.85 750.64,240.86 752.65,235.74 760.68,235.89 762.69,235.35 764.70,238.09 766.71,234.12 774.74,236.01 786.79,235.39 788.80,234.90 794.82,215.85 800.84,196.37 802.85,177.57 804.86,151.27 806.87,132.17 808.88,117.87 814.90,112.97 816.91,123.18 818.92,141.80 820.92,163.03 822.93,185.50 828.96,195.59 871.12,189.16 875.14,167.12 889.20,187.18 891.20,211.00 893.21,214.34 899.24,206.24 901.24,202.73 903.25,194.05 905.26,184.81 945.42,163.02 947.43,156.34 949.44,154.01 955.46,153.34 957.47,144.51 959.48,139.28 961.49,157.30 963.49,168.30 969.52,187.10 971.53,211.69 973.53,237.70 975.54,233.05 983.57,227.19 985.58,227.29 987.59,215.92 991.61,206.04 1017.71,195.16 1019.72,186.52 1025.74,168.11 1027.75,150.09 1067.91,156.79 1085.98,159.49 1087.99,164.55 1090.00,165.80" fill="none" stroke="#184E77" stroke-width="3" stroke-linejoin="round" stroke-linecap="round"/>
<polyline points="90.00,362.89 90.00,362.89 92.01,351.20 98.03,343.27 100.04,331.18 104.06,331.63 106.06,343.86 112.09,355.58 114.10,360.22 118.11,362.62 120.12,349.07 126.14,343.03 128.15,355.20 130.16,353.51 134.18,370.23 140.20,368.55 142.21,367.32 144.22,347.70 146.22,350.01 148.23,339.13 156.27,329.49 158.27,322.68 160.28,316.75 162.29,319.95 168.31,336.27 170.32,326.10 172.33,331.31 174.34,325.47 176.35,331.09 182.37,339.51 184.38,331.57 186.39,327.24 188.39,323.19 190.40,333.75 196.43,326.34 198.43,325.96 200.44,328.99 202.45,317.42 204.46,317.50 212.49,314.76 214.50,312.09 216.51,316.97 218.51,336.11 224.54,341.59 226.55,346.72 228.55,346.57 230.56,363.90 232.57,346.86 238.59,366.07 240.60,379.20 242.61,367.37 244.62,386.46 246.63,380.65 252.65,409.19 254.66,416.98 256.67,411.99 258.67,426.25 260.68,404.72 266.71,398.09 268.71,409.17 270.72,398.06 272.73,400.33 274.74,399.47 280.76,381.14 282.77,379.47 284.78,391.29 286.79,394.75 288.80,415.36 294.82,409.69 296.83,405.80 298.84,398.85 300.84,449.17 302.85,508.29 308.88,510.46 310.88,525.03 312.89,438.10 314.90,472.73 316.91,455.25 322.93,447.44 324.94,449.15 326.95,471.32 328.96,470.04 336.99,492.87 339.00,469.11 341.00,452.96 343.01,432.99 345.02,425.57 351.04,424.92 353.05,419.04 355.06,417.53 357.07,411.10 359.08,395.97 365.10,402.62 367.11,410.59 369.12,406.13 371.12,400.14 373.13,400.88 379.16,367.09 381.16,359.32 383.17,358.21 385.18,353.75 387.19,346.15 393.21,345.19 395.22,349.43 397.23,367.01 399.24,367.49 401.24,374.67 409.28,352.90 411.29,358.95 413.29,354.62 415.30,354.71 421.33,350.26 423.33,343.95 425.34,343.87 427.35,349.65 429.36,338.45 435.38,337.44 437.39,331.40 439.40,334.44 441.41,330.22 443.41,342.74 449.44,332.45 451.45,341.69 453.45,342.03 457.47,344.41 463.49,333.90 465.50,321.62 467.51,321.62 469.52,312.66 471.53,306.78 477.55,300.94 479.56,302.21 481.57,296.82 483.57,287.30 491.61,296.35 493.61,297.17 495.62,290.25 497.63,287.09 499.64,290.89 505.66,289.27 507.67,293.82 509.68,290.17 511.69,283.99 513.69,284.10 519.72,282.48 521.73,281.75 523.73,272.71 525.74,271.89 527.75,267.26 533.78,267.05 535.78,270.52 537.79,271.98 539.80,276.29 541.81,294.88 547.83,278.02 549.84,283.66 551.85,275.25 553.86,276.18 555.86,267.11 561.89,270.04 563.90,256.78 565.90,252.97 567.91,252.61 569.92,256.04 575.94,256.16 577.95,263.09 579.96,265.95 581.97,270.64 583.98,252.91 590.00,257.96 592.01,253.08 594.02,250.25 596.02,246.50 598.03,254.13 606.06,262.33 608.07,256.33 610.08,246.46 612.09,250.23 618.11,247.73 620.12,244.53 622.13,240.96 624.14,230.80 626.14,231.38 632.17,225.70 634.18,227.26 636.18,228.44 638.19,222.64 640.20,216.70 646.22,211.31 648.23,218.07 650.24,221.54 652.25,227.64 654.26,220.49 660.28,217.28 662.29,212.28 664.30,208.11 666.31,207.35 668.31,207.27 674.34,202.78 676.35,207.49 678.35,200.32 680.36,203.73 682.37,237.21 688.39,218.47 690.40,220.38 692.41,215.47 694.42,223.17 696.43,216.77 702.45,203.73 704.46,203.69 706.47,210.28 708.47,203.12 710.48,193.36 716.51,178.05 718.51,175.17 720.52,175.22 722.53,187.74 724.54,184.46 730.56,182.30 732.57,197.05 734.58,192.51 736.59,206.44 738.59,204.89 744.62,185.89 746.63,183.29 748.63,182.49 750.64,203.29 752.65,203.91 758.67,215.23 760.68,225.33 762.69,220.77 764.70,239.73 766.71,227.95 772.73,209.23 774.74,198.09 776.75,189.52 780.76,182.83 786.79,189.52 788.80,186.45 790.80,182.71 792.81,181.36 794.82,178.92 800.84,183.30 802.85,184.40 804.86,175.94 806.87,173.31 808.88,186.81 814.90,188.80 816.91,191.78 818.92,206.24 820.92,196.46 822.93,185.51 828.96,177.44 830.96,171.70 832.97,167.62 836.99,168.01 843.01,172.44 845.02,174.18 847.03,183.49 851.04,181.11 857.07,173.12 859.08,165.28 861.08,169.66 863.09,169.56 865.10,161.34 871.12,159.33 873.13,161.81 875.14,168.62 877.15,165.34 879.16,166.16 887.19,192.41 889.20,177.97 891.20,171.05 893.21,170.63 899.24,164.29 901.24,159.08 903.25,159.19 905.26,160.84 907.27,166.34 913.29,159.48 915.30,170.23 917.31,176.66 919.32,192.12 921.33,167.57 927.35,161.61 929.36,165.83 931.37,165.89 933.37,185.82 935.38,185.20 943.41,183.91 945.42,176.92 947.43,180.48 949.44,171.75 955.46,184.91 957.47,175.32 959.48,165.04 961.49,171.87 963.49,177.37 969.52,176.87 971.53,188.78 973.53,179.09 975.54,186.20 977.55,202.83 983.57,192.57 985.58,195.23 987.59,196.27 989.60,215.19 991.61,222.60 997.63,210.28 999.64,207.22 1001.65,223.97 1003.65,227.31 1005.66,245.65 1011.69,231.99 1013.69,236.50 1015.70,229.99 1017.71,251.03 1019.72,270.89 1025.74,275.49 1027.75,241.61 1029.76,233.03 1031.77,231.68 1039.80,226.33 1041.81,225.41 1043.82,194.98 1045.82,187.31 1047.83,188.73 1053.86,176.02 1055.86,161.14 1057.87,150.95 1059.88,147.59 1061.89,132.05 1067.91,135.15 1069.92,143.42 1071.93,129.87 1073.94,135.28 1075.94,124.89 1081.97,123.27 1083.98,129.71 1085.98,130.23 1087.99,116.84 1090.00,112.97" fill="none" stroke="#D1495B" stroke-width="2.5" stroke-linejoin="round" stroke-linecap="round" opacity="0.9"/>
<rect x="96" y="90" width="330" height="58" rx="8" fill="#FFFFFF" opacity="0.86" stroke="#E5E7EB"/>
<line x1="108" y1="108" x2="144" y2="108" stroke="#184E77" stroke-width="3"/>
<text x="154" y="112" font-family="Verdana, sans-serif" font-size="12" fill="#1F2933">Model cumulative PnL proxy</text>
<line x1="108" y1="132" x2="144" y2="132" stroke="#D1495B" stroke-width="2.5"/>
<text x="154" y="136" font-family="Verdana, sans-serif" font-size="12" fill="#1F2933">S&amp;P 500 cumulative return</text>
<text x="90" y="618" font-family="Verdana, sans-serif" font-size="12" fill="#475569">simulation trades=163, total pnl=0.90904</text>
</svg>