<svg xmlns="http://www.w3.org/2000/svg" width="1200" height="640" viewBox="0 0 1200 640">
<rect width="100%" height="100%" fill="#FBFAF7"/>
<text x="600" y="34" text-anchor="middle" font-family="Verdana, sans-serif" font-size="24" font-weight="700" fill="#1F2933">Financials: MS/V Simulation PnL vs S&amp;P 500</text>
<line x1="90" y1="558.00" x2="1090" y2="558.00" stroke="#D7D7D7" stroke-width="1"/>
<text x="80" y="562.00" text-anchor="end" font-family="Verdana, sans-serif" font-size="11" fill="#475569">-0.2667</text>
<text x="1100" y="562.00" text-anchor="start" font-family="Verdana, sans-serif" font-size="11" fill="#475569">-14.9%</text>
<line x1="90" y1="462.40" x2="1090" y2="462.40" stroke="#D7D7D7" stroke-width="1"/>
<text x="80" y="466.40" text-anchor="end" font-family="Verdana, sans-serif" font-size="11" fill="#475569">0.1688</text>
<text x="1100" y="466.40" text-anchor="start" font-family="Verdana, sans-serif" font-size="11" fill="#475569">-6.7%</text>
<line x1="90" y1="366.80" x2="1090" y2="366.80" stroke="#D7D7D7" stroke-width="1"/>
<text x="80" y="370.80" text-anchor="end" font-family="Verdana, sans-serif" font-size="11" fill="#475569">0.6042</text>
<text x="1100" y="370.80" text-anchor="start" font-family="Verdana, sans-serif" font-size="11" fill="#475569">1.4%</text>
<line x1="90" y1="271.20" x2="1090" y2="271.20" stroke="#D7D7D7" stroke-width="1"/>
<text x="80" y="275.20" text-anchor="end" font-family="Verdana, sans-serif" font-size="11" fill="#475569">1.0396</text>
<text x="1100" y="275.20" text-anchor="start" font-family="Verdana, sans-serif" font-size="11" fill="#475569">9.6%</text>
<line x1="90" y1="175.60" x2="1090" y2="175.60" stroke="#D7D7D7" stroke-width="1"/>
<text x="80" y="179.60" text-anchor="end" font-family="Verdana, sans-serif" font-size="11" fill="#475569">1.4751</text>
<text x="1100" y="179.60" text-anchor="start" font-family="Verdana, sans-serif" font-size="11" fill="#475569">17.8%</text>
<line x1="90" y1="80.00" x2="1090" y2="80.00" stroke="#D7D7D7" stroke-width="1"/>
<text x="80" y="84.00" text-anchor="end" font-family="Verdana, sans-serif" font-size="11" fill="#475569">1.9105</text>
<text x="1100" y="84.00" text-anchor="start" font-family="Verdana, sans-serif" font-size="11" fill="#475569">25.9%</text>
<line x1="90.00" y1="80" x2="90.00" y2="558" stroke="#ECECEC" stroke-width="1"/>
<text x="90.00" y="586" text-anchor="middle" font-family="Verdana, sans-serif" font-size="11" fill="#475569">2025-03-21</text>
<line x1="290.00" y1="80" x2="290.00" y2="558" stroke="#ECECEC" stroke-width="1"/>
<text x="290.00" y="586" text-anchor="middle" font-family="Verdana, sans-serif" font-size="11" fill="#475569">2025-05-21</text>
<line x1="490.00" y1="80" x2="490.00" y2="558" stroke="#ECECEC" stroke-width="1"/>
<text x="490.00" y="586" text-anchor="middle" font-family="Verdana, sans-serif" font-size="11" fill="#475569">2025-07-21</text>
<line x1="690.00" y1="80" x2="690.00" y2="558" stroke="#ECECEC" stroke-width="1"/>
<text x="690.00" y="586" text-anchor="middle" font-family="Verdana, sans-serif" font-size="11" fill="#475569">2025-09-20</text>
<line x1="890.00" y1="80" x2="890.00" y2="558" stroke="#ECECEC" stroke-width="1"/>
<text x="890.00" y="586" text-anchor="middle" font-family="Verdana, sans-serif" font-size="11" fill="#475569">2025-11-20</text>
<line x1="1090.00" y1="80" x2="1090.00" y2="558" stroke="#ECECEC" stroke-width="1"/>
<text x="1090.00" y="586" text-anchor="middle" font-family="Verdana, sans-serif" font-size="11" fill="#475569">2026-01-21</text>
<line x1="90" y1="80" x2="90" y2="558" stroke="#1F2933" stroke-width="1.2"/>
<line x1="90" y1="558" x2="1090" y2="558" stroke="#1F2933" stroke-width="1.2"/>
<text x="24" y="319" text-anchor="middle" transform="rotate(-90 24 319)" font-family="Verdana, sans-serif" font-size="13" fill="#1F2933">Cumulative PnL proxy</text>
<line x1="1090" y1="80" x2="1090" y2="558" stroke="#1F2933" stroke-width="1.2"/>
<text x="1178" y="319" text-anchor="middle" transform="rotate(90 1178 319)" font-family="Verdana, sans-serif" font-size="13" fill="#1F2933">S&amp;P 500 cumulative return</text>
<polyline points="90.00,499.45 112.88,520.17 132.48,525.03 145.56,493.72 148.82,461.30 171.70,487.27 214.18,497.60 243.59,497.69 259.93,495.76 263.20,490.40 266.47,480.72 273.01,482.85 295.88,475.66 338.37,478.18 341.63,479.39 351.44,475.52 354.71,477.56 357.97,479.37 364.51,457.01 377.58,440.63 380.85,388.86 387.39,336.84 397.19,315.09 400.46,300.99 403.73,268.94 406.99,266.43 410.26,269.76 420.07,276.67 423.33,274.54 426.60,280.67 429.87,293.98 442.94,301.89 478.89,306.01 537.71,287.29 540.98,273.70 544.25,254.51 547.52,244.09 557.32,230.19 560.59,219.72 563.86,215.50 567.12,226.78 570.39,238.04 580.20,248.81 583.46,263.01 678.24,271.45 838.37,266.69 841.63,254.93 844.90,249.59 854.71,244.48 857.97,239.05 861.24,232.16 864.51,228.99 867.78,218.28 877.58,211.93 880.85,192.58 884.12,178.33 946.21,161.87 949.48,144.46 952.75,130.63 956.01,154.32 959.28,178.91 1073.66,141.00 1086.73,117.90 1090.00,112.97" fill="none" stroke="#184E77" stroke-width="3" stroke-linejoin="round" stroke-linecap="round"/>
<polyline points="90.00,383.56 90.00,383.56 99.80,362.89 103.07,361.02 106.34,374.33 109.61,378.24 112.88,401.45 122.68,395.06 125.95,390.68 129.22,382.85 132.48,439.55 135.75,506.17 145.56,508.61 148.82,525.03 152.09,427.08 155.36,466.09 158.63,446.40 168.43,437.60 171.70,439.53 174.97,464.51 178.24,463.07 191.31,488.79 194.58,462.02 197.84,443.82 201.11,421.32 204.38,412.96 214.18,412.23 217.45,405.61 220.72,403.91 223.99,396.66 227.25,379.61 237.06,387.10 240.33,396.09 243.59,391.05 246.86,384.30 250.13,385.14 259.93,347.06 263.20,338.31 266.47,337.07 269.74,332.03 273.01,323.47 282.81,322.39 286.08,327.17 289.35,346.98 292.61,347.51 295.88,355.61 308.95,331.08 312.22,337.90 315.49,333.02 318.76,333.12 328.56,328.11 331.83,320.99 335.10,320.90 338.37,327.41 341.63,314.80 351.44,313.66 354.71,306.85 357.97,310.28 361.24,305.52 364.51,319.63 374.31,308.03 377.58,318.44 380.85,318.82 387.39,321.52 397.19,309.67 400.46,295.83 403.73,295.83 406.99,285.74 410.26,279.12 420.07,272.53 423.33,273.96 426.60,267.89 429.87,257.16 442.94,267.36 446.21,268.28 449.48,260.48 452.75,256.93 456.01,261.21 465.82,259.39 469.08,264.51 472.35,260.39 475.62,253.44 478.89,253.55 488.69,251.73 491.96,250.90 495.23,240.72 498.50,239.80 501.76,234.58 511.57,234.34 514.84,238.25 518.10,239.90 521.37,244.75 524.64,265.70 534.44,246.71 537.71,253.06 540.98,243.58 544.25,244.63 547.52,234.41 557.32,237.72 560.59,222.78 563.86,218.48 567.12,218.07 570.39,221.94 580.20,222.08 583.46,229.88 586.73,233.10 590.00,238.39 593.27,218.41 603.07,224.11 606.34,218.61 609.61,215.41 612.88,211.19 616.14,219.78 629.22,229.02 632.48,222.26 635.75,211.14 639.02,215.39 648.82,212.57 652.09,208.97 655.36,204.95 658.63,193.50 661.90,194.16 671.70,187.75 674.97,189.51 678.24,190.84 681.50,184.31 684.77,177.61 694.58,171.54 697.84,179.15 701.11,183.07 704.38,189.94 707.65,181.88 717.45,178.26 720.72,172.63 723.99,167.94 727.25,167.08 730.52,166.99 740.33,161.93 743.59,167.24 746.86,159.15 750.13,163.00 753.40,200.72 763.20,179.61 766.47,181.76 769.74,176.23 773.01,184.90 776.27,177.69 786.08,162.99 789.35,162.95 792.61,170.37 795.88,162.31 799.15,151.31 808.95,134.06 812.22,130.81 815.49,130.87 818.76,144.97 822.03,141.28 831.83,138.85 835.10,155.47 838.37,150.36 841.63,166.05 844.90,164.30 854.71,142.89 857.97,139.96 861.24,139.07 864.51,162.50 867.78,163.20 877.58,175.95 880.85,187.33 884.12,182.20 887.39,203.56 890.65,190.29 900.46,169.19 903.73,156.64 906.99,146.98 913.53,139.45 923.33,146.98 926.60,143.52 929.87,139.32 933.14,137.79 936.41,135.05 946.21,139.98 949.48,141.22 952.75,131.68 956.01,128.72 959.28,143.93 969.08,146.18 972.35,149.54 975.62,165.82 978.89,154.80 982.16,142.46 991.96,133.37 995.23,126.91 998.50,122.31 1005.03,122.74 1014.84,127.74 1018.10,129.71 1021.37,140.19 1027.91,137.51 1037.71,128.51 1040.98,119.67 1044.25,124.61 1047.52,124.50 1050.78,115.24 1060.59,112.97 1063.86,115.76 1067.12,123.43 1070.39,119.74 1073.66,120.66 1086.73,150.24 1090.00,133.97" fill="none" stroke="#D1495B" stroke-width="2.5" stroke-linejoin="round" stroke-linecap="round" opacity="0.9"/>
<rect x="96" y="90" width="330" height="58" rx="8" fill="#FFFFFF" opacity="0.86" stroke="#E5E7EB"/>
<line x1="108" y1="108" x2="144" y2="108" stroke="#184E77" stroke-width="3"/>
<text x="154" y="112" font-family="Verdana, sans-serif" font-size="12" fill="#1F2933">Model cumulative PnL proxy</text>
<line x1="108" y1="132" x2="144" y2="132" stroke="#D1495B" stroke-width="2.5"/>
<text x="154" y="136" font-family="Verdana, sans-serif" font-size="12" fill="#1F2933">S&amp;P 500 cumulative return</text>
<text x="90" y="618" font-family="Verdana, sans-serif" font-size="12" fill="#475569">simulation trades=63, total pnl=1.76035</text>
</svg>