<svg xmlns="http://www.w3.org/2000/svg" width="1200" height="640" viewBox="0 0 1200 640">
<rect width="100%" height="100%" fill="#FBFAF7"/>
<text x="600" y="34" text-anchor="middle" font-family="Verdana, sans-serif" font-size="24" font-weight="700" fill="#1F2933">Healthcare: LLY/UNH Simulation PnL vs S&amp;P 500</text>
<line x1="90" y1="558.00" x2="1090" y2="558.00" stroke="#D7D7D7" stroke-width="1"/>
<text x="80" y="562.00" text-anchor="end" font-family="Verdana, sans-serif" font-size="11" fill="#475569">-2.4429</text>
<text x="1100" y="562.00" text-anchor="start" font-family="Verdana, sans-serif" font-size="11" fill="#475569">-21.8%</text>
<line x1="90" y1="462.40" x2="1090" y2="462.40" stroke="#D7D7D7" stroke-width="1"/>
<text x="80" y="466.40" text-anchor="end" font-family="Verdana, sans-serif" font-size="11" fill="#475569">-0.8322</text>
<text x="1100" y="466.40" text-anchor="start" font-family="Verdana, sans-serif" font-size="11" fill="#475569">-13.3%</text>
<line x1="90" y1="366.80" x2="1090" y2="366.80" stroke="#D7D7D7" stroke-width="1"/>
<text x="80" y="370.80" text-anchor="end" font-family="Verdana, sans-serif" font-size="11" fill="#475569">0.7784</text>
<text x="1100" y="370.80" text-anchor="start" font-family="Verdana, sans-serif" font-size="11" fill="#475569">-4.9%</text>
<line x1="90" y1="271.20" x2="1090" y2="271.20" stroke="#D7D7D7" stroke-width="1"/>
<text x="80" y="275.20" text-anchor="end" font-family="Verdana, sans-serif" font-size="11" fill="#475569">2.3891</text>
<text x="1100" y="275.20" text-anchor="start" font-family="Verdana, sans-serif" font-size="11" fill="#475569">3.6%</text>
<line x1="90" y1="175.60" x2="1090" y2="175.60" stroke="#D7D7D7" stroke-width="1"/>
<text x="80" y="179.60" text-anchor="end" font-family="Verdana, sans-serif" font-size="11" fill="#475569">3.9997</text>
<text x="1100" y="179.60" text-anchor="start" font-family="Verdana, sans-serif" font-size="11" fill="#475569">12.1%</text>
<line x1="90" y1="80.00" x2="1090" y2="80.00" stroke="#D7D7D7" stroke-width="1"/>
<text x="80" y="84.00" text-anchor="end" font-family="Verdana, sans-serif" font-size="11" fill="#475569">5.6104</text>
<text x="1100" y="84.00" text-anchor="start" font-family="Verdana, sans-serif" font-size="11" fill="#475569">20.6%</text>
<line x1="90.00" y1="80" x2="90.00" y2="558" stroke="#ECECEC" stroke-width="1"/>
<text x="90.00" y="586" text-anchor="middle" font-family="Verdana, sans-serif" font-size="11" fill="#475569">2025-02-19</text>
<line x1="290.00" y1="80" x2="290.00" y2="558" stroke="#ECECEC" stroke-width="1"/>
<text x="290.00" y="586" text-anchor="middle" font-family="Verdana, sans-serif" font-size="11" fill="#475569">2025-05-17</text>
<line x1="490.00" y1="80" x2="490.00" y2="558" stroke="#ECECEC" stroke-width="1"/>
<text x="490.00" y="586" text-anchor="middle" font-family="Verdana, sans-serif" font-size="11" fill="#475569">2025-08-13</text>
<line x1="690.00" y1="80" x2="690.00" y2="558" stroke="#ECECEC" stroke-width="1"/>
<text x="690.00" y="586" text-anchor="middle" font-family="Verdana, sans-serif" font-size="11" fill="#475569">2025-11-09</text>
<line x1="890.00" y1="80" x2="890.00" y2="558" stroke="#ECECEC" stroke-width="1"/>
<text x="890.00" y="586" text-anchor="middle" font-family="Verdana, sans-serif" font-size="11" fill="#475569">2026-02-05</text>
<line x1="1090.00" y1="80" x2="1090.00" y2="558" stroke="#ECECEC" stroke-width="1"/>
<text x="1090.00" y="586" text-anchor="middle" font-family="Verdana, sans-serif" font-size="11" fill="#475569">2026-05-04</text>
<line x1="90" y1="80" x2="90" y2="558" stroke="#1F2933" stroke-width="1.2"/>
<line x1="90" y1="558" x2="1090" y2="558" stroke="#1F2933" stroke-width="1.2"/>
<text x="24" y="319" text-anchor="middle" transform="rotate(-90 24 319)" font-family="Verdana, sans-serif" font-size="13" fill="#1F2933">Cumulative PnL proxy</text>
<line x1="1090" y1="80" x2="1090" y2="558" stroke="#1F2933" stroke-width="1.2"/>
<text x="1178" y="319" text-anchor="middle" transform="rotate(90 1178 319)" font-family="Verdana, sans-serif" font-size="13" fill="#1F2933">S&amp;P 500 cumulative return</text>
<polyline points="90.00,413.00 105.95,400.88 108.22,392.35 110.50,390.94 117.33,388.90 119.61,389.15 121.89,390.65 124.17,393.87 126.45,400.81 133.28,410.54 135.56,419.10 137.84,427.83 158.34,431.29 165.17,431.66 167.45,431.32 169.73,434.78 172.00,437.09 174.28,438.05 185.67,439.58 187.95,446.32 190.23,454.36 197.06,462.39 199.34,473.67 201.62,487.82 203.90,501.96 206.17,514.65 213.01,522.54 215.28,525.03 219.84,491.24 228.95,453.15 231.23,418.45 233.51,384.55 235.79,345.71 238.06,335.20 244.90,329.91 247.18,322.00 249.45,313.63 251.73,313.12 254.01,313.18 260.84,313.72 263.12,318.26 265.40,322.30 269.95,324.58 295.01,327.37 297.29,324.99 299.57,333.57 301.85,338.28 310.96,334.41 315.51,333.16 317.79,332.97 324.62,333.09 326.90,332.98 358.79,336.37 392.96,339.05 395.24,341.96 404.35,340.56 406.63,339.47 408.91,331.87 427.13,330.54 436.24,327.58 438.52,325.15 440.80,324.51 443.08,318.13 445.35,314.57 452.19,311.12 454.46,304.08 456.74,298.34 459.02,293.28 461.30,281.73 468.13,270.21 470.41,266.39 472.69,260.21 474.97,266.97 477.24,283.66 484.08,299.28 486.36,313.82 488.63,330.36 502.30,338.52 509.13,338.69 515.97,337.87 518.25,334.03 520.52,332.92 522.80,330.80 525.08,329.85 534.19,327.75 556.97,335.75 563.80,343.21 566.08,340.54 568.36,339.33 570.64,334.40 572.92,331.05 579.75,328.79 597.97,326.93 600.25,319.70 602.53,313.72 627.59,315.55 636.70,318.35 661.75,317.49 677.70,301.80 682.26,289.23 684.53,280.38 691.37,272.51 693.64,266.47 695.92,264.00 698.20,261.94 700.48,255.06 707.31,251.41 709.59,244.94 711.87,234.55 714.15,227.32 716.42,224.85 723.26,221.71 725.54,220.95 727.81,223.90 732.37,227.36 739.20,228.42 741.48,231.37 743.76,239.34 773.37,238.13 775.65,236.26 777.93,231.18 780.21,224.76 834.87,222.18 837.15,217.43 859.93,220.26 869.04,203.85 871.32,191.53 873.60,177.38 875.88,159.04 882.71,140.99 884.99,143.60 887.27,133.14 889.54,125.57 891.82,121.05 898.66,117.81 900.93,112.97 905.49,117.25 916.88,122.04 919.16,127.13 948.77,134.14 962.44,132.35 964.72,131.26 966.99,130.08 969.27,127.38 996.61,124.15 998.88,119.73 1001.16,116.94 1026.22,121.37 1042.16,131.04 1044.44,133.53 1046.72,139.04 1049.00,145.14 1051.28,151.90 1058.11,155.57 1060.39,165.74 1062.67,175.59 1064.94,185.20 1067.22,196.25 1074.05,208.18 1076.33,215.51 1078.61,224.62 1080.89,227.60 1083.17,226.05 1090.00,223.70" fill="none" stroke="#184E77" stroke-width="3" stroke-linejoin="round" stroke-linecap="round"/>
<polyline points="90.00,312.09 90.00,312.09 92.28,316.97 94.56,336.11 101.39,341.59 103.67,346.72 105.95,346.57 108.22,363.90 110.50,346.86 117.33,366.07 119.61,379.20 121.89,367.37 124.17,386.46 126.45,380.65 133.28,409.19 135.56,416.98 137.84,411.99 140.11,426.25 142.39,404.72 149.23,398.09 151.50,409.17 153.78,398.06 156.06,400.33 158.34,399.47 165.17,381.14 167.45,379.47 169.73,391.29 172.00,394.75 174.28,415.36 181.12,409.69 183.39,405.80 185.67,398.85 187.95,449.17 190.23,508.29 197.06,510.46 199.34,525.03 201.62,438.10 203.90,472.73 206.17,455.25 213.01,447.44 215.28,449.15 217.56,471.32 219.84,470.04 228.95,492.87 231.23,469.11 233.51,452.96 235.79,432.99 238.06,425.57 244.90,424.92 247.18,419.04 249.45,417.53 251.73,411.10 254.01,395.97 260.84,402.62 263.12,410.59 265.40,406.13 267.68,400.14 269.95,400.88 276.79,367.09 279.07,359.32 281.34,358.21 283.62,353.75 285.90,346.15 292.73,345.19 295.01,349.43 297.29,367.01 299.57,367.49 301.85,374.67 310.96,352.90 313.23,358.95 315.51,354.62 317.79,354.71 324.62,350.26 326.90,343.95 329.18,343.87 331.46,349.65 333.74,338.45 340.57,337.44 342.85,331.40 345.13,334.44 347.40,330.22 349.68,342.74 356.51,332.45 358.79,341.69 361.07,342.03 365.63,344.41 372.46,333.90 374.74,321.62 377.02,321.62 379.29,312.66 381.57,306.78 388.41,300.94 390.68,302.21 392.96,296.82 395.24,287.30 404.35,296.35 406.63,297.17 408.91,290.25 411.18,287.09 413.46,290.89 420.30,289.27 422.57,293.82 424.85,290.17 427.13,283.99 429.41,284.10 436.24,282.48 438.52,281.75 440.80,272.71 443.08,271.89 445.35,267.26 452.19,267.05 454.46,270.52 456.74,271.98 459.02,276.29 461.30,294.88 468.13,278.02 470.41,283.66 472.69,275.25 474.97,276.18 477.24,267.11 484.08,270.04 486.36,256.78 488.63,252.97 490.91,252.61 493.19,256.04 500.02,256.16 502.30,263.09 504.58,265.95 506.86,270.64 509.13,252.91 515.97,257.96 518.25,253.08 520.52,250.25 522.80,246.50 525.08,254.13 534.19,262.33 536.47,256.33 538.75,246.46 541.03,250.23 547.86,247.73 550.14,244.53 552.41,240.96 554.69,230.80 556.97,231.38 563.80,225.70 566.08,227.26 568.36,228.44 570.64,222.64 572.92,216.70 579.75,211.31 582.03,218.07 584.31,221.54 586.58,227.64 588.86,220.49 595.69,217.28 597.97,212.28 600.25,208.11 602.53,207.35 604.81,207.27 611.64,202.78 613.92,207.49 616.20,200.32 618.47,203.73 620.75,237.21 627.59,218.47 629.86,220.38 632.14,215.47 634.42,223.17 636.70,216.77 643.53,203.73 645.81,203.69 648.09,210.28 650.36,203.12 652.64,193.36 659.48,178.05 661.75,175.17 664.03,175.22 666.31,187.74 668.59,184.46 675.42,182.30 677.70,197.05 679.98,192.51 682.26,206.44 684.53,204.89 691.37,185.89 693.64,183.29 695.92,182.49 698.20,203.29 700.48,203.91 707.31,215.23 709.59,225.33 711.87,220.77 714.15,239.73 716.42,227.95 723.26,209.23 725.54,198.09 727.81,189.52 732.37,182.83 739.20,189.52 741.48,186.45 743.76,182.71 746.04,181.36 748.31,178.92 755.15,183.30 757.43,184.40 759.70,175.94 761.98,173.31 764.26,186.81 771.09,188.80 773.37,191.78 775.65,206.24 777.93,196.46 780.21,185.51 787.04,177.44 789.32,171.70 791.59,167.62 796.15,168.01 802.98,172.44 805.26,174.18 807.54,183.49 812.10,181.11 818.93,173.12 821.21,165.28 823.49,169.66 825.76,169.56 828.04,161.34 834.87,159.33 837.15,161.81 839.43,168.62 841.71,165.34 843.99,166.16 853.10,192.41 855.38,177.97 857.65,171.05 859.93,170.63 866.77,164.29 869.04,159.08 871.32,159.19 873.60,160.84 875.88,166.34 882.71,159.48 884.99,170.23 887.27,176.66 889.54,192.12 891.82,167.57 898.66,161.61 900.93,165.83 903.21,165.89 905.49,185.82 907.77,185.20 916.88,183.91 919.16,176.92 921.44,180.48 923.71,171.75 930.55,184.91 932.82,175.32 935.10,165.04 937.38,171.87 939.66,177.37 946.49,176.87 948.77,188.78 951.05,179.09 953.33,186.20 955.60,202.83 962.44,192.57 964.72,195.23 966.99,196.27 969.27,215.19 971.55,222.60 978.38,210.28 980.66,207.22 982.94,223.97 985.22,227.31 987.49,245.65 994.33,231.99 996.61,236.50 998.88,229.99 1001.16,251.03 1003.44,270.89 1010.27,275.49 1012.55,241.61 1014.83,233.03 1017.11,231.68 1026.22,226.33 1028.50,225.41 1030.77,194.98 1033.05,187.31 1035.33,188.73 1042.16,176.02 1044.44,161.14 1046.72,150.95 1049.00,147.59 1051.28,132.05 1058.11,135.15 1060.39,143.42 1062.67,129.87 1064.94,135.28 1067.22,124.89 1074.05,123.27 1076.33,129.71 1078.61,130.23 1080.89,116.84 1083.17,112.97 1090.00,118.35" fill="none" stroke="#D1495B" stroke-width="2.5" stroke-linejoin="round" stroke-linecap="round" opacity="0.9"/>
<rect x="96" y="90" width="330" height="58" rx="8" fill="#FFFFFF" opacity="0.86" stroke="#E5E7EB"/>
<line x1="108" y1="108" x2="144" y2="108" stroke="#184E77" stroke-width="3"/>
<text x="154" y="112" font-family="Verdana, sans-serif" font-size="12" fill="#1F2933">Model cumulative PnL proxy</text>
<line x1="108" y1="132" x2="144" y2="132" stroke="#D1495B" stroke-width="2.5"/>
<text x="154" y="136" font-family="Verdana, sans-serif" font-size="12" fill="#1F2933">S&amp;P 500 cumulative return</text>
<text x="90" y="618" font-family="Verdana, sans-serif" font-size="12" fill="#475569">simulation trades=163, total pnl=3.18929</text>
</svg>