<svg xmlns="http://www.w3.org/2000/svg" width="1200" height="640" viewBox="0 0 1200 640">
<rect width="100%" height="100%" fill="#FBFAF7"/>
<text x="600" y="34" text-anchor="middle" font-family="Verdana, sans-serif" font-size="24" font-weight="700" fill="#1F2933">Healthcare: LLY/UNH Model PnL With Train/Simulation Boundary</text>
<rect x="90.00" y="80" width="800.00" height="478" fill="#D8F3DC" opacity="0.35"/>
<text x="490.00" y="100" text-anchor="middle" font-family="Verdana, sans-serif" font-size="12" fill="#334155">Training/validation</text>
<rect x="890.00" y="80" width="200.00" height="478" fill="#FFE8D6" opacity="0.45"/>
<text x="990.00" y="100" text-anchor="middle" font-family="Verdana, sans-serif" font-size="12" fill="#334155">Simulation</text>
<line x1="90" y1="558.00" x2="1090" y2="558.00" stroke="#D7D7D7" stroke-width="1"/>
<text x="80" y="562.00" text-anchor="end" font-family="Verdana, sans-serif" font-size="11" fill="#475569">-2.4433</text>
<line x1="90" y1="462.40" x2="1090" y2="462.40" stroke="#D7D7D7" stroke-width="1"/>
<text x="80" y="466.40" text-anchor="end" font-family="Verdana, sans-serif" font-size="11" fill="#475569">-0.7130</text>
<line x1="90" y1="366.80" x2="1090" y2="366.80" stroke="#D7D7D7" stroke-width="1"/>
<text x="80" y="370.80" text-anchor="end" font-family="Verdana, sans-serif" font-size="11" fill="#475569">1.0173</text>
<line x1="90" y1="271.20" x2="1090" y2="271.20" stroke="#D7D7D7" stroke-width="1"/>
<text x="80" y="275.20" text-anchor="end" font-family="Verdana, sans-serif" font-size="11" fill="#475569">2.7476</text>
<line x1="90" y1="175.60" x2="1090" y2="175.60" stroke="#D7D7D7" stroke-width="1"/>
<text x="80" y="179.60" text-anchor="end" font-family="Verdana, sans-serif" font-size="11" fill="#475569">4.4779</text>
<line x1="90" y1="80.00" x2="1090" y2="80.00" stroke="#D7D7D7" stroke-width="1"/>
<text x="80" y="84.00" text-anchor="end" font-family="Verdana, sans-serif" font-size="11" fill="#475569">6.2082</text>
<line x1="90.00" y1="80" x2="90.00" y2="558" stroke="#ECECEC" stroke-width="1"/>
<text x="90.00" y="586" text-anchor="middle" font-family="Verdana, sans-serif" font-size="11" fill="#475569">2020-04-30</text>
<line x1="290.00" y1="80" x2="290.00" y2="558" stroke="#ECECEC" stroke-width="1"/>
<text x="290.00" y="586" text-anchor="middle" font-family="Verdana, sans-serif" font-size="11" fill="#475569">2021-07-13</text>
<line x1="490.00" y1="80" x2="490.00" y2="558" stroke="#ECECEC" stroke-width="1"/>
<text x="490.00" y="586" text-anchor="middle" font-family="Verdana, sans-serif" font-size="11" fill="#475569">2022-09-25</text>
<line x1="690.00" y1="80" x2="690.00" y2="558" stroke="#ECECEC" stroke-width="1"/>
<text x="690.00" y="586" text-anchor="middle" font-family="Verdana, sans-serif" font-size="11" fill="#475569">2023-12-08</text>
<line x1="890.00" y1="80" x2="890.00" y2="558" stroke="#ECECEC" stroke-width="1"/>
<text x="890.00" y="586" text-anchor="middle" font-family="Verdana, sans-serif" font-size="11" fill="#475569">2025-02-19</text>
<line x1="1090.00" y1="80" x2="1090.00" y2="558" stroke="#ECECEC" stroke-width="1"/>
<text x="1090.00" y="586" text-anchor="middle" font-family="Verdana, sans-serif" font-size="11" fill="#475569">2026-05-04</text>
<line x1="90" y1="80" x2="90" y2="558" stroke="#1F2933" stroke-width="1.2"/>
<line x1="90" y1="558" x2="1090" y2="558" stroke="#1F2933" stroke-width="1.2"/>
<text x="24" y="319" text-anchor="middle" transform="rotate(-90 24 319)" font-family="Verdana, sans-serif" font-size="13" fill="#1F2933">Cumulative PnL proxy</text>
<line x1="704.12" y1="80" x2="704.12" y2="558" stroke="#52796F" stroke-width="2.2" stroke-dasharray="2,5"/>
<text x="712.12" y="122" font-family="Verdana, sans-serif" font-size="12" fill="#52796F">Validation starts 2024-01-08</text>
<line x1="890.00" y1="80" x2="890.00" y2="558" stroke="#1D3557" stroke-width="2.2" stroke-dasharray="7,5"/>
<text x="898.00" y="122" font-family="Verdana, sans-serif" font-size="12" fill="#1D3557">Simulation starts 2025-02-19</text>
<polyline points="90.00,423.01 93.19,421.42 99.11,425.92 104.58,430.07 105.03,431.19 105.49,429.13 105.95,427.46 106.40,430.80 107.77,433.00 108.22,435.56 108.68,436.26 109.59,430.76 110.96,427.04 111.41,417.31 115.97,415.06 117.33,413.45 118.25,413.81 120.52,417.10 120.98,417.79 125.08,422.88 126.90,422.30 127.36,420.90 127.81,421.88 128.27,421.91 128.72,422.50 131.00,423.56 131.46,427.22 131.91,431.11 134.19,435.33 134.65,437.84 135.10,440.85 136.47,445.07 136.92,449.68 137.38,453.00 137.84,455.65 138.29,458.22 139.66,458.89 140.11,458.09 140.57,456.10 141.03,453.60 141.48,451.36 142.85,448.95 150.59,445.94 152.41,446.08 152.87,446.17 153.33,445.39 153.78,443.57 154.24,443.21 156.06,439.62 156.51,435.96 156.97,433.80 159.25,438.00 159.70,444.26 160.16,451.76 162.89,454.52 163.35,453.64 163.80,453.64 165.17,453.91 165.63,456.20 166.08,456.06 169.73,458.36 170.18,460.00 171.55,460.15 172.00,464.10 172.46,464.17 172.92,461.86 173.37,459.86 175.19,460.50 177.93,466.02 178.38,468.05 179.29,469.52 179.75,471.41 181.12,473.48 181.57,474.90 182.03,474.66 182.48,469.45 182.94,463.08 184.31,456.64 184.76,451.23 188.86,455.39 189.32,458.33 190.68,460.88 201.16,463.32 207.54,455.64 208.00,445.65 208.45,435.23 221.21,434.52 223.03,434.39 225.76,436.05 226.22,438.25 226.67,440.18 233.51,443.75 233.96,445.94 235.33,452.16 235.79,457.37 236.24,463.60 236.70,472.13 237.15,481.13 240.34,483.37 241.71,486.05 242.16,486.70 242.62,485.06 243.08,483.51 244.90,482.22 245.35,479.93 245.81,479.07 251.28,479.81 252.19,482.61 252.64,483.72 253.10,485.92 254.46,487.97 254.92,490.04 255.38,492.26 255.83,494.81 256.29,496.28 257.65,498.84 258.11,500.66 259.48,500.94 261.30,499.15 264.03,496.19 268.13,495.74 268.59,496.71 269.04,496.84 270.87,496.70 271.78,495.16 274.51,487.19 275.42,479.84 280.89,480.74 281.34,478.79 281.80,479.30 292.73,478.32 293.19,477.27 294.10,474.77 294.56,471.68 299.11,471.36 299.57,470.03 300.02,469.14 300.48,464.89 300.93,461.17 302.30,455.80 303.67,454.71 304.12,453.26 306.86,456.36 307.31,459.09 308.68,461.21 316.42,464.53 316.88,465.21 318.25,468.62 318.70,472.08 319.61,474.99 320.07,480.60 321.44,481.74 321.89,482.42 322.35,481.92 322.80,479.85 323.26,476.79 324.62,476.53 325.08,475.76 329.18,478.28 329.64,480.70 331.00,482.49 331.46,484.18 335.56,487.53 336.01,490.32 337.38,493.84 338.29,495.96 338.75,495.78 339.20,495.49 340.57,495.45 341.03,493.14 341.48,490.45 341.94,487.00 342.39,483.98 343.76,483.17 350.59,481.82 351.05,481.90 351.96,480.30 353.33,483.88 353.78,487.90 354.24,490.17 355.15,495.52 357.88,502.03 358.34,507.72 359.70,510.55 360.16,512.29 360.62,510.27 361.07,506.09 361.53,502.66 362.89,500.46 363.35,498.53 373.83,500.25 374.28,505.51 376.10,507.64 376.56,510.24 378.84,509.93 383.39,513.00 385.22,515.43 386.13,520.36 386.58,521.21 387.04,521.85 388.41,522.03 388.86,518.26 389.32,514.37 389.77,510.93 390.23,507.80 395.69,508.94 396.15,511.11 401.62,512.50 402.98,512.29 404.35,511.63 406.17,512.55 407.54,513.13 411.64,511.97 413.92,513.25 415.28,514.13 417.11,514.61 418.47,517.14 418.93,519.32 420.30,520.34 420.75,519.18 421.21,515.50 421.66,511.98 422.12,507.36 425.31,504.97 426.67,502.51 427.13,500.98 427.59,498.87 428.04,496.21 428.50,494.57 429.86,492.99 430.32,490.67 430.77,486.25 431.23,487.11 431.69,485.84 433.05,485.78 433.51,485.85 433.96,488.42 434.87,487.76 439.43,488.43 439.89,488.75 440.34,488.52 443.53,487.07 446.26,488.17 446.72,490.59 447.18,493.63 447.63,494.00 449.00,497.11 450.82,500.97 453.10,500.01 453.55,498.97 455.38,497.86 460.39,497.00 461.75,497.02 462.21,495.85 462.67,497.17 465.40,499.74 465.85,503.33 466.31,506.47 466.77,510.31 468.13,514.35 468.59,517.71 469.04,518.92 469.50,519.65 469.95,519.64 471.32,518.71 471.78,518.64 472.23,517.47 472.69,516.50 473.14,514.68 474.97,512.23 478.61,512.62 479.07,512.27 479.52,512.74 481.80,511.76 482.71,510.60 484.08,510.84 484.53,510.58 484.99,509.26 485.44,509.87 485.90,510.91 487.72,513.26 488.18,516.07 490.46,513.14 490.91,509.08 491.82,504.37 492.28,500.88 493.64,499.64 494.10,498.88 498.20,497.52 498.66,498.14 500.02,500.54 500.48,503.08 500.93,505.73 510.05,504.49 513.69,501.21 514.15,497.63 514.60,497.34 515.97,497.15 516.42,498.83 516.88,500.49 517.79,503.46 519.61,504.84 526.90,503.42 527.36,501.12 528.72,499.03 529.18,495.99 532.82,496.52 533.28,497.07 533.74,497.52 538.75,493.87 539.20,492.40 539.66,493.39 540.11,493.54 541.94,491.46 542.39,489.87 542.85,489.76 543.30,490.28 544.67,492.69 545.13,495.64 545.58,498.90 551.50,495.74 551.96,493.66 556.06,497.08 558.79,498.44 559.25,498.69 560.62,497.99 561.07,498.12 561.53,498.28 561.98,497.98 562.44,497.53 563.80,496.70 564.26,496.46 568.36,495.93 568.82,495.21 570.18,496.13 570.64,498.30 571.09,499.91 571.55,499.03 572.00,499.08 574.74,497.82 577.02,498.80 577.47,502.13 577.93,505.31 579.75,509.05 581.12,509.96 581.57,508.86 582.94,506.44 583.39,502.83 583.85,496.69 584.31,490.22 587.04,488.82 587.49,487.13 587.95,487.10 589.32,485.16 589.77,482.73 590.23,476.37 590.68,470.70 597.06,468.60 598.88,467.59 599.34,469.30 599.79,470.12 600.25,471.22 600.71,473.84 613.01,476.50 613.46,477.95 614.83,481.12 615.28,482.00 622.12,481.47 622.57,480.97 623.03,484.70 625.31,492.45 625.76,499.07 626.22,502.14 627.59,504.93 628.04,506.04 628.50,506.79 628.95,508.05 629.41,507.89 630.77,508.10 631.23,507.63 631.69,507.01 632.14,507.68 633.96,508.50 644.44,509.43 644.90,506.80 645.35,504.20 648.54,502.18 649.91,499.41 650.36,495.69 650.82,492.85 651.28,491.25 651.73,493.36 653.10,496.87 653.55,499.32 654.01,504.28 654.46,511.37 657.65,513.49 658.11,514.56 659.48,516.72 659.93,519.98 660.39,523.04 660.84,524.39 661.30,525.03 662.67,523.69 663.12,520.75 663.58,515.82 664.03,510.75 675.42,508.53 675.88,504.52 676.33,499.27 689.54,499.12 690.00,498.24 691.37,497.70 691.82,497.34 692.28,496.52 692.73,495.72 698.20,495.55 698.66,495.21 699.11,495.70 699.57,495.76 701.39,496.79 701.85,495.98 702.30,496.59 702.76,495.15 705.95,490.48 707.77,486.94 708.22,484.51 708.68,481.68 709.13,476.40 710.50,476.06 710.96,475.92 711.41,473.59 711.87,469.35 712.32,468.39 713.69,465.77 714.15,462.47 714.60,461.22 715.06,460.79 715.51,459.60 716.88,454.35 717.33,450.65 718.25,446.88 718.70,442.54 720.07,442.65 721.89,440.09 723.71,439.22 724.17,439.78 724.62,440.48 725.08,440.69 726.45,442.06 730.09,434.19 730.55,428.10 731.00,423.61 731.46,423.11 732.82,428.95 733.28,433.83 733.74,438.52 734.19,442.08 734.65,445.21 746.04,446.02 746.49,445.23 746.95,443.27 747.40,442.47 748.77,442.45 749.68,448.63 750.14,459.09 750.59,472.31 751.96,482.12 753.33,483.85 753.78,482.34 755.15,481.54 756.06,477.74 756.51,475.30 756.97,474.72 763.35,475.88 764.72,474.90 765.17,473.66 766.08,470.35 766.54,465.02 771.09,461.62 771.55,460.29 772.00,462.14 772.46,464.21 772.92,461.47 774.28,458.87 774.74,455.15 775.19,451.14 775.65,447.42 776.10,446.74 777.47,444.87 777.93,440.99 778.84,438.70 779.29,436.49 780.66,434.91 781.12,432.90 781.57,432.85 782.03,431.80 782.48,435.10 783.85,434.46 784.31,436.75 784.76,438.00 785.67,437.97 788.86,440.02 790.23,442.56 790.68,451.40 793.42,463.45 793.87,468.23 794.33,469.07 794.78,470.22 795.24,474.43 796.61,479.55 797.06,488.69 797.52,494.89 797.97,496.14 798.43,499.15 799.79,501.93 800.25,500.56 800.71,501.33 801.62,491.03 802.98,483.08 817.11,480.76 817.56,479.14 818.93,477.84 819.38,474.80 825.31,478.49 825.76,482.16 826.22,486.57 827.13,487.37 828.50,486.46 829.41,484.58 829.86,483.78 830.32,482.06 833.05,477.04 835.33,479.39 835.79,479.20 836.24,480.01 836.70,480.82 838.97,484.16 848.09,485.05 848.54,488.35 849.00,491.52 849.45,491.22 850.82,491.49 854.46,487.32 858.11,478.40 858.56,471.83 859.02,470.09 860.39,461.79 860.84,450.28 861.30,446.92 861.75,444.21 862.21,442.34 863.58,442.49 864.03,444.87 864.94,444.75 865.40,446.49 866.77,447.39 867.22,449.05 868.13,450.04 876.79,451.43 877.24,446.92 877.70,443.32 879.98,441.68 886.81,437.73 889.54,433.01 890.00,429.06 890.46,424.83 890.91,413.52 892.28,400.38 892.73,392.26 893.19,380.97 893.64,373.03 894.10,371.72 895.47,369.82 895.92,370.05 896.38,371.45 896.83,374.45 897.29,380.90 898.66,389.96 899.11,397.93 899.57,406.06 903.67,409.28 905.03,409.62 905.49,409.30 905.95,412.53 906.40,414.68 906.86,415.57 909.13,417.00 909.59,423.27 910.05,430.75 911.41,438.23 911.87,448.73 912.32,461.90 912.78,475.06 913.23,486.87 914.60,494.22 915.06,496.54 915.97,465.08 917.79,429.63 918.25,397.32 918.70,365.77 919.16,329.62 919.61,319.83 920.98,314.91 921.44,307.54 921.89,299.76 922.35,299.28 922.80,299.33 924.17,299.84 924.62,304.07 925.08,307.82 925.99,309.94 931.00,312.55 931.46,310.33 931.91,318.32 932.37,322.70 934.19,319.10 935.10,317.94 935.56,317.76 936.92,317.86 937.38,317.76 943.76,320.92 950.59,323.42 951.05,326.12 952.87,324.82 953.33,323.81 953.78,316.73 957.43,315.50 959.25,312.74 959.70,310.48 960.16,309.88 960.62,303.94 961.07,300.63 962.44,297.41 962.89,290.86 963.35,285.52 963.80,280.81 964.26,270.06 965.63,259.33 966.08,255.78 966.54,250.03 966.99,256.32 967.45,271.86 968.82,286.40 969.27,299.93 969.73,315.33 972.46,322.92 973.83,323.08 975.19,322.31 975.65,318.74 976.10,317.71 976.56,315.74 977.02,314.85 978.84,312.90 983.39,320.35 984.76,327.29 985.22,324.80 985.67,323.68 986.13,319.09 986.58,315.97 987.95,313.87 991.59,312.13 992.05,305.40 992.51,299.84 997.52,301.54 999.34,304.14 1004.35,303.35 1007.54,288.74 1008.45,277.04 1008.91,268.80 1010.27,261.48 1010.73,255.86 1011.18,253.56 1011.64,251.64 1012.10,245.24 1013.46,241.84 1013.92,235.81 1014.37,226.14 1014.83,219.42 1015.28,217.11 1016.65,214.19 1017.11,213.49 1017.56,216.23 1018.47,219.45 1019.84,220.43 1020.30,223.18 1020.75,230.60 1026.67,229.47 1027.13,227.73 1027.59,223.01 1028.04,217.03 1038.97,214.62 1039.43,210.20 1043.99,212.84 1045.81,197.56 1046.26,186.10 1046.72,172.93 1047.18,155.86 1048.54,139.05 1049.00,141.48 1049.45,131.74 1049.91,124.70 1050.36,120.50 1051.73,117.48 1052.19,112.97 1053.10,116.96 1055.38,121.41 1055.83,126.15 1061.75,132.68 1064.49,131.01 1064.94,129.99 1065.40,128.90 1065.85,126.38 1071.32,123.38 1071.78,119.26 1072.23,116.67 1077.24,120.79 1080.43,129.79 1080.89,132.11 1081.34,137.23 1081.80,142.91 1082.26,149.20 1083.62,152.63 1084.08,162.09 1084.53,171.26 1084.99,180.20 1085.44,190.50 1086.81,201.60 1087.27,208.42 1087.72,216.90 1088.18,219.68 1088.63,218.23 1090.00,216.05" fill="none" stroke="#0B6E4F" stroke-width="3" stroke-linejoin="round" stroke-linecap="round"/>
<rect x="96" y="90" width="330" height="58" rx="8" fill="#FFFFFF" opacity="0.86" stroke="#E5E7EB"/>
<line x1="108" y1="108" x2="144" y2="108" stroke="#0B6E4F" stroke-width="3"/>
<text x="154" y="112" font-family="Verdana, sans-serif" font-size="12" fill="#1F2933">Model cumulative PnL proxy</text>
</svg>