<svg xmlns="http://www.w3.org/2000/svg" width="1200" height="640" viewBox="0 0 1200 640">
<rect width="100%" height="100%" fill="#FBFAF7"/>
<text x="600" y="34" text-anchor="middle" font-family="Verdana, sans-serif" font-size="24" font-weight="700" fill="#1F2933">Industrials: CAT/HON Simulation PnL vs S&amp;P 500</text>
<line x1="90" y1="558.00" x2="1090" y2="558.00" stroke="#D7D7D7" stroke-width="1"/>
<text x="80" y="562.00" text-anchor="end" font-family="Verdana, sans-serif" font-size="11" fill="#475569">-0.2441</text>
<text x="1100" y="562.00" text-anchor="start" font-family="Verdana, sans-serif" font-size="11" fill="#475569">-20.1%</text>
<line x1="90" y1="462.40" x2="1090" y2="462.40" stroke="#D7D7D7" stroke-width="1"/>
<text x="80" y="466.40" text-anchor="end" font-family="Verdana, sans-serif" font-size="11" fill="#475569">0.4363</text>
<text x="1100" y="466.40" text-anchor="start" font-family="Verdana, sans-serif" font-size="11" fill="#475569">-11.5%</text>
<line x1="90" y1="366.80" x2="1090" y2="366.80" stroke="#D7D7D7" stroke-width="1"/>
<text x="80" y="370.80" text-anchor="end" font-family="Verdana, sans-serif" font-size="11" fill="#475569">1.1167</text>
<text x="1100" y="370.80" text-anchor="start" font-family="Verdana, sans-serif" font-size="11" fill="#475569">-2.8%</text>
<line x1="90" y1="271.20" x2="1090" y2="271.20" stroke="#D7D7D7" stroke-width="1"/>
<text x="80" y="275.20" text-anchor="end" font-family="Verdana, sans-serif" font-size="11" fill="#475569">1.7971</text>
<text x="1100" y="275.20" text-anchor="start" font-family="Verdana, sans-serif" font-size="11" fill="#475569">5.9%</text>
<line x1="90" y1="175.60" x2="1090" y2="175.60" stroke="#D7D7D7" stroke-width="1"/>
<text x="80" y="179.60" text-anchor="end" font-family="Verdana, sans-serif" font-size="11" fill="#475569">2.4775</text>
<text x="1100" y="179.60" text-anchor="start" font-family="Verdana, sans-serif" font-size="11" fill="#475569">14.6%</text>
<line x1="90" y1="80.00" x2="1090" y2="80.00" stroke="#D7D7D7" stroke-width="1"/>
<text x="80" y="84.00" text-anchor="end" font-family="Verdana, sans-serif" font-size="11" fill="#475569">3.1579</text>
<text x="1100" y="84.00" text-anchor="start" font-family="Verdana, sans-serif" font-size="11" fill="#475569">23.2%</text>
<line x1="90.00" y1="80" x2="90.00" y2="558" stroke="#ECECEC" stroke-width="1"/>
<text x="90.00" y="586" text-anchor="middle" font-family="Verdana, sans-serif" font-size="11" fill="#475569">2025-02-21</text>
<line x1="290.00" y1="80" x2="290.00" y2="558" stroke="#ECECEC" stroke-width="1"/>
<text x="290.00" y="586" text-anchor="middle" font-family="Verdana, sans-serif" font-size="11" fill="#475569">2025-05-19</text>
<line x1="490.00" y1="80" x2="490.00" y2="558" stroke="#ECECEC" stroke-width="1"/>
<text x="490.00" y="586" text-anchor="middle" font-family="Verdana, sans-serif" font-size="11" fill="#475569">2025-08-14</text>
<line x1="690.00" y1="80" x2="690.00" y2="558" stroke="#ECECEC" stroke-width="1"/>
<text x="690.00" y="586" text-anchor="middle" font-family="Verdana, sans-serif" font-size="11" fill="#475569">2025-11-10</text>
<line x1="890.00" y1="80" x2="890.00" y2="558" stroke="#ECECEC" stroke-width="1"/>
<text x="890.00" y="586" text-anchor="middle" font-family="Verdana, sans-serif" font-size="11" fill="#475569">2026-02-05</text>
<line x1="1090.00" y1="80" x2="1090.00" y2="558" stroke="#ECECEC" stroke-width="1"/>
<text x="1090.00" y="586" text-anchor="middle" font-family="Verdana, sans-serif" font-size="11" fill="#475569">2026-05-04</text>
<line x1="90" y1="80" x2="90" y2="558" stroke="#1F2933" stroke-width="1.2"/>
<line x1="90" y1="558" x2="1090" y2="558" stroke="#1F2933" stroke-width="1.2"/>
<text x="24" y="319" text-anchor="middle" transform="rotate(-90 24 319)" font-family="Verdana, sans-serif" font-size="13" fill="#1F2933">Cumulative PnL proxy</text>
<line x1="1090" y1="80" x2="1090" y2="558" stroke="#1F2933" stroke-width="1.2"/>
<text x="1178" y="319" text-anchor="middle" transform="rotate(90 1178 319)" font-family="Verdana, sans-serif" font-size="13" fill="#1F2933">S&amp;P 500 cumulative return</text>
<polyline points="90.00,523.70 106.02,524.17 128.90,520.51 131.19,515.67 167.80,517.64 183.82,525.03 186.11,524.27 192.97,522.32 195.26,517.07 197.55,515.33 199.84,509.61 225.01,508.72 227.30,509.50 229.59,506.23 243.32,511.81 250.18,519.06 259.34,511.58 261.62,510.69 263.91,509.90 277.64,500.08 291.37,508.75 293.66,517.15 330.27,516.99 337.14,513.16 341.72,506.31 357.73,504.05 362.31,500.40 369.18,497.32 371.46,493.81 373.75,488.53 376.04,484.36 378.33,481.72 385.19,480.90 387.48,486.93 389.77,492.75 392.06,499.38 401.21,506.19 424.10,504.33 426.38,502.26 435.54,498.64 437.83,495.33 440.11,478.78 442.40,460.74 449.27,444.15 451.56,426.65 453.84,409.37 456.13,404.73 458.42,400.39 465.29,396.27 467.57,394.37 469.86,393.80 472.15,395.35 474.44,398.14 481.30,402.54 483.59,405.95 485.88,411.18 545.38,405.52 549.95,400.76 552.24,397.29 554.53,391.90 561.40,384.77 563.68,374.31 565.97,365.43 568.26,349.44 570.55,336.51 577.41,322.71 579.70,311.75 581.99,302.98 584.28,301.57 586.57,300.72 593.43,301.21 595.72,300.70 598.01,299.05 600.30,294.46 602.59,286.01 609.45,278.90 611.74,274.69 614.03,268.35 616.32,258.95 618.60,252.73 625.47,244.10 630.05,228.20 632.33,216.24 634.62,208.52 641.49,204.14 643.78,205.03 646.06,214.22 648.35,236.25 650.64,249.98 657.51,259.95 678.10,260.28 680.39,259.26 682.68,255.29 689.54,253.53 694.12,257.32 696.41,265.55 698.70,274.31 705.56,280.32 739.89,279.59 742.17,276.24 744.46,272.62 746.75,265.24 753.62,260.34 755.90,254.38 758.19,247.40 760.48,243.12 762.77,246.90 769.63,254.32 771.92,264.23 774.21,285.26 776.50,303.87 790.23,295.52 794.81,290.65 801.67,288.05 865.74,291.84 868.03,295.21 870.32,293.36 872.61,294.11 874.90,292.99 881.76,287.26 884.05,283.00 888.63,286.22 890.92,281.86 902.36,272.28 904.65,261.87 920.66,262.95 922.95,266.27 929.82,271.01 936.68,272.59 954.99,277.78 961.85,278.18 964.14,276.59 966.43,275.90 968.72,272.71 971.01,269.42 977.87,267.82 980.16,262.81 982.45,257.36 1003.04,255.96 1009.91,263.50 1012.20,269.27 1014.49,269.33 1016.77,270.49 1025.93,270.06 1030.50,263.90 1032.79,260.40 1044.23,255.98 1046.52,256.06 1048.81,252.84 1051.10,250.90 1057.96,246.07 1060.25,234.85 1064.83,209.80 1067.12,184.63 1073.98,163.02 1076.27,151.31 1078.56,141.95 1080.85,133.07 1083.14,122.88 1090.00,112.97" fill="none" stroke="#184E77" stroke-width="3" stroke-linejoin="round" stroke-linecap="round"/>
<polyline points="90.00,336.11 90.00,336.11 96.86,341.59 99.15,346.72 101.44,346.57 103.73,363.90 106.02,346.86 112.88,366.07 115.17,379.20 117.46,367.37 119.75,386.46 122.04,380.65 128.90,409.19 131.19,416.98 133.48,411.99 135.77,426.25 138.05,404.72 144.92,398.09 147.21,409.17 149.50,398.06 151.78,400.33 154.07,399.47 160.94,381.14 163.23,379.47 165.51,391.29 167.80,394.75 170.09,415.36 176.96,409.69 179.24,405.80 181.53,398.85 183.82,449.17 186.11,508.29 192.97,510.46 195.26,525.03 197.55,438.10 199.84,472.73 202.13,455.25 208.99,447.44 211.28,449.15 213.57,471.32 215.86,470.04 225.01,492.87 227.30,469.11 229.59,452.96 231.88,432.99 234.16,425.57 241.03,424.92 243.32,419.04 245.61,417.53 247.89,411.10 250.18,395.97 257.05,402.62 259.34,410.59 261.62,406.13 263.91,400.14 266.20,400.88 273.07,367.09 275.35,359.32 277.64,358.21 279.93,353.75 282.22,346.15 289.08,345.19 291.37,349.43 293.66,367.01 295.95,367.49 298.24,374.67 307.39,352.90 309.68,358.95 311.97,354.62 314.26,354.71 321.12,350.26 323.41,343.95 325.70,343.87 327.99,349.65 330.27,338.45 337.14,337.44 339.43,331.40 341.72,334.44 344.00,330.22 346.29,342.74 353.16,332.45 355.45,341.69 357.73,342.03 362.31,344.41 369.18,333.90 371.46,321.62 373.75,321.62 376.04,312.66 378.33,306.78 385.19,300.94 387.48,302.21 389.77,296.82 392.06,287.30 401.21,296.35 403.50,297.17 405.79,290.25 408.08,287.09 410.37,290.89 417.23,289.27 419.52,293.82 421.81,290.17 424.10,283.99 426.38,284.10 433.25,282.48 435.54,281.75 437.83,272.71 440.11,271.89 442.40,267.26 449.27,267.05 451.56,270.52 453.84,271.98 456.13,276.29 458.42,294.88 465.29,278.02 467.57,283.66 469.86,275.25 472.15,276.18 474.44,267.11 481.30,270.04 483.59,256.78 485.88,252.97 488.17,252.61 490.46,256.04 497.32,256.16 499.61,263.09 501.90,265.95 504.19,270.64 506.48,252.91 513.34,257.96 515.63,253.08 517.92,250.25 520.21,246.50 522.49,254.13 531.65,262.33 533.94,256.33 536.22,246.46 538.51,250.23 545.38,247.73 547.67,244.53 549.95,240.96 552.24,230.80 554.53,231.38 561.40,225.70 563.68,227.26 565.97,228.44 568.26,222.64 570.55,216.70 577.41,211.31 579.70,218.07 581.99,221.54 584.28,227.64 586.57,220.49 593.43,217.28 595.72,212.28 598.01,208.11 600.30,207.35 602.59,207.27 609.45,202.78 611.74,207.49 614.03,200.32 616.32,203.73 618.60,237.21 625.47,218.47 627.76,220.38 630.05,215.47 632.33,223.17 634.62,216.77 641.49,203.73 643.78,203.69 646.06,210.28 648.35,203.12 650.64,193.36 657.51,178.05 659.79,175.17 662.08,175.22 664.37,187.74 666.66,184.46 673.52,182.30 675.81,197.05 678.10,192.51 680.39,206.44 682.68,204.89 689.54,185.89 691.83,183.29 694.12,182.49 696.41,203.29 698.70,203.91 705.56,215.23 707.85,225.33 710.14,220.77 712.43,239.73 714.71,227.95 721.58,209.23 723.87,198.09 726.16,189.52 730.73,182.83 737.60,189.52 739.89,186.45 742.17,182.71 744.46,181.36 746.75,178.92 753.62,183.30 755.90,184.40 758.19,175.94 760.48,173.31 762.77,186.81 769.63,188.80 771.92,191.78 774.21,206.24 776.50,196.46 778.79,185.51 785.65,177.44 787.94,171.70 790.23,167.62 794.81,168.01 801.67,172.44 803.96,174.18 806.25,183.49 810.82,181.11 817.69,173.12 819.98,165.28 822.27,169.66 824.55,169.56 826.84,161.34 833.71,159.33 836.00,161.81 838.28,168.62 840.57,165.34 842.86,166.16 852.01,192.41 854.30,177.97 856.59,171.05 858.88,170.63 865.74,164.29 868.03,159.08 870.32,159.19 872.61,160.84 874.90,166.34 881.76,159.48 884.05,170.23 886.34,176.66 888.63,192.12 890.92,167.57 897.78,161.61 900.07,165.83 902.36,165.89 904.65,185.82 906.93,185.20 916.09,183.91 918.38,176.92 920.66,180.48 922.95,171.75 929.82,184.91 932.11,175.32 934.39,165.04 936.68,171.87 938.97,177.37 945.84,176.87 948.12,188.78 950.41,179.09 952.70,186.20 954.99,202.83 961.85,192.57 964.14,195.23 966.43,196.27 968.72,215.19 971.01,222.60 977.87,210.28 980.16,207.22 982.45,223.97 984.74,227.31 987.03,245.65 993.89,231.99 996.18,236.50 998.47,229.99 1000.76,251.03 1003.04,270.89 1009.91,275.49 1012.20,241.61 1014.49,233.03 1016.77,231.68 1025.93,226.33 1028.22,225.41 1030.50,194.98 1032.79,187.31 1035.08,188.73 1041.95,176.02 1044.23,161.14 1046.52,150.95 1048.81,147.59 1051.10,132.05 1057.96,135.15 1060.25,143.42 1062.54,129.87 1064.83,135.28 1067.12,124.89 1073.98,123.27 1076.27,129.71 1078.56,130.23 1080.85,116.84 1083.14,112.97 1090.00,118.35" fill="none" stroke="#D1495B" stroke-width="2.5" stroke-linejoin="round" stroke-linecap="round" opacity="0.9"/>
<rect x="96" y="90" width="330" height="58" rx="8" fill="#FFFFFF" opacity="0.86" stroke="#E5E7EB"/>
<line x1="108" y1="108" x2="144" y2="108" stroke="#184E77" stroke-width="3"/>
<text x="154" y="112" font-family="Verdana, sans-serif" font-size="12" fill="#1F2933">Model cumulative PnL proxy</text>
<line x1="108" y1="132" x2="144" y2="132" stroke="#D1495B" stroke-width="2.5"/>
<text x="154" y="136" font-family="Verdana, sans-serif" font-size="12" fill="#1F2933">S&amp;P 500 cumulative return</text>
<text x="90" y="618" font-family="Verdana, sans-serif" font-size="12" fill="#475569">simulation trades=159, total pnl=2.92331</text>
</svg>