<svg xmlns="http://www.w3.org/2000/svg" width="1200" height="640" viewBox="0 0 1200 640">
<rect width="100%" height="100%" fill="#FBFAF7"/>
<text x="600" y="34" text-anchor="middle" font-family="Verdana, sans-serif" font-size="24" font-weight="700" fill="#1F2933">Industrials: CAT/HON Model PnL With Train/Simulation Boundary</text>
<rect x="90.00" y="80" width="801.18" height="478" fill="#D8F3DC" opacity="0.35"/>
<text x="490.59" y="100" text-anchor="middle" font-family="Verdana, sans-serif" font-size="12" fill="#334155">Training/validation</text>
<rect x="891.18" y="80" width="198.82" height="478" fill="#FFE8D6" opacity="0.45"/>
<text x="990.59" y="100" text-anchor="middle" font-family="Verdana, sans-serif" font-size="12" fill="#334155">Simulation</text>
<line x1="90" y1="558.00" x2="1090" y2="558.00" stroke="#D7D7D7" stroke-width="1"/>
<text x="80" y="562.00" text-anchor="end" font-family="Verdana, sans-serif" font-size="11" fill="#475569">-1.6154</text>
<line x1="90" y1="462.40" x2="1090" y2="462.40" stroke="#D7D7D7" stroke-width="1"/>
<text x="80" y="466.40" text-anchor="end" font-family="Verdana, sans-serif" font-size="11" fill="#475569">-0.8112</text>
<line x1="90" y1="366.80" x2="1090" y2="366.80" stroke="#D7D7D7" stroke-width="1"/>
<text x="80" y="370.80" text-anchor="end" font-family="Verdana, sans-serif" font-size="11" fill="#475569">-0.0070</text>
<line x1="90" y1="271.20" x2="1090" y2="271.20" stroke="#D7D7D7" stroke-width="1"/>
<text x="80" y="275.20" text-anchor="end" font-family="Verdana, sans-serif" font-size="11" fill="#475569">0.7973</text>
<line x1="90" y1="175.60" x2="1090" y2="175.60" stroke="#D7D7D7" stroke-width="1"/>
<text x="80" y="179.60" text-anchor="end" font-family="Verdana, sans-serif" font-size="11" fill="#475569">1.6015</text>
<line x1="90" y1="80.00" x2="1090" y2="80.00" stroke="#D7D7D7" stroke-width="1"/>
<text x="80" y="84.00" text-anchor="end" font-family="Verdana, sans-serif" font-size="11" fill="#475569">2.4057</text>
<line x1="90.00" y1="80" x2="90.00" y2="558" stroke="#ECECEC" stroke-width="1"/>
<text x="90.00" y="586" text-anchor="middle" font-family="Verdana, sans-serif" font-size="11" fill="#475569">2020-04-27</text>
<line x1="290.00" y1="80" x2="290.00" y2="558" stroke="#ECECEC" stroke-width="1"/>
<text x="290.00" y="586" text-anchor="middle" font-family="Verdana, sans-serif" font-size="11" fill="#475569">2021-07-10</text>
<line x1="490.00" y1="80" x2="490.00" y2="558" stroke="#ECECEC" stroke-width="1"/>
<text x="490.00" y="586" text-anchor="middle" font-family="Verdana, sans-serif" font-size="11" fill="#475569">2022-09-23</text>
<line x1="690.00" y1="80" x2="690.00" y2="558" stroke="#ECECEC" stroke-width="1"/>
<text x="690.00" y="586" text-anchor="middle" font-family="Verdana, sans-serif" font-size="11" fill="#475569">2023-12-06</text>
<line x1="890.00" y1="80" x2="890.00" y2="558" stroke="#ECECEC" stroke-width="1"/>
<text x="890.00" y="586" text-anchor="middle" font-family="Verdana, sans-serif" font-size="11" fill="#475569">2025-02-18</text>
<line x1="1090.00" y1="80" x2="1090.00" y2="558" stroke="#ECECEC" stroke-width="1"/>
<text x="1090.00" y="586" text-anchor="middle" font-family="Verdana, sans-serif" font-size="11" fill="#475569">2026-05-04</text>
<line x1="90" y1="80" x2="90" y2="558" stroke="#1F2933" stroke-width="1.2"/>
<line x1="90" y1="558" x2="1090" y2="558" stroke="#1F2933" stroke-width="1.2"/>
<text x="24" y="319" text-anchor="middle" transform="rotate(-90 24 319)" font-family="Verdana, sans-serif" font-size="13" fill="#1F2933">Cumulative PnL proxy</text>
<line x1="699.19" y1="80" x2="699.19" y2="558" stroke="#52796F" stroke-width="2.2" stroke-dasharray="2,5"/>
<text x="707.19" y="122" font-family="Verdana, sans-serif" font-size="12" fill="#52796F">Validation starts 2023-12-27</text>
<line x1="891.18" y1="80" x2="891.18" y2="558" stroke="#1D3557" stroke-width="2.2" stroke-dasharray="7,5"/>
<text x="899.18" y="122" font-family="Verdana, sans-serif" font-size="12" fill="#1D3557">Simulation starts 2025-02-21</text>
<polyline points="90.00,365.97 93.18,368.11 93.64,365.24 94.09,361.93 94.55,360.14 96.37,358.04 100.01,357.45 100.46,364.18 100.92,369.70 101.37,382.92 105.92,383.30 106.38,381.56 106.83,382.64 107.29,384.42 110.02,380.45 110.47,373.08 110.93,365.01 112.29,359.64 115.93,358.26 116.39,352.09 116.84,347.97 117.30,344.09 118.66,342.61 119.12,342.12 119.57,345.42 120.03,345.73 121.85,350.10 126.40,352.42 126.85,358.26 128.22,365.37 128.67,373.06 130.04,366.18 131.40,358.68 131.86,353.76 132.31,350.74 133.22,354.86 134.59,359.43 135.95,365.48 139.14,368.22 139.59,370.59 140.96,373.69 141.41,375.08 141.87,376.45 142.32,376.14 142.78,374.47 144.14,372.68 144.60,378.09 147.78,377.68 148.23,379.02 148.69,376.62 149.14,371.23 150.96,364.86 151.42,357.33 151.87,348.47 154.15,352.67 154.60,358.36 155.06,361.57 155.51,365.08 160.06,366.71 160.52,368.50 160.97,370.95 161.43,375.02 167.34,370.41 167.80,363.10 170.07,359.95 170.53,356.69 170.98,357.67 171.44,357.80 172.80,358.80 173.26,359.55 173.71,358.85 175.99,362.33 176.44,367.75 176.90,382.78 177.81,398.89 180.08,407.25 180.54,416.53 180.99,425.51 183.72,427.70 184.18,427.80 185.54,423.40 186.00,422.21 192.82,421.61 195.55,421.46 196.92,416.67 201.46,418.36 204.65,415.40 207.83,408.40 208.29,400.13 208.74,394.62 209.20,389.46 209.65,385.91 211.47,383.88 211.93,385.81 212.38,386.00 212.84,383.39 214.20,383.86 214.66,383.34 215.57,386.33 216.02,386.15 219.21,386.36 220.57,385.71 221.03,384.50 221.48,383.34 221.94,380.68 224.21,377.45 224.67,374.42 225.12,374.33 225.58,368.84 227.40,360.23 227.85,356.67 228.76,353.13 230.13,355.23 230.58,359.73 231.04,361.33 231.49,364.77 231.95,366.08 233.31,366.40 240.59,372.29 243.78,370.68 244.23,368.68 246.05,367.16 246.51,367.25 249.69,375.57 250.60,382.29 251.06,384.89 252.42,385.99 252.88,385.67 253.33,386.64 253.79,388.13 254.24,383.54 255.61,376.75 256.06,371.48 256.52,365.24 256.97,361.40 262.88,356.95 263.79,356.05 266.07,358.08 266.52,359.47 268.34,361.22 268.80,363.77 269.25,365.70 273.35,363.50 274.71,362.16 275.17,361.14 278.35,366.31 278.81,368.72 279.26,369.87 279.72,366.43 281.08,364.01 281.54,361.99 281.99,360.45 282.45,356.14 291.55,363.34 292.00,374.15 292.46,384.08 293.82,388.85 294.28,396.60 294.73,399.62 295.19,400.26 295.64,398.02 297.01,400.14 297.46,399.63 297.92,398.27 298.37,396.51 298.83,401.51 302.01,397.58 303.38,392.34 307.47,395.30 307.93,401.02 308.38,405.67 317.48,401.92 319.75,403.25 321.12,403.35 322.48,406.40 322.94,409.82 323.39,414.79 323.85,419.04 325.67,415.25 326.12,408.84 326.58,403.23 328.85,404.48 329.31,410.02 329.76,415.30 332.95,416.16 336.13,413.36 340.23,412.42 341.59,412.39 342.05,410.34 342.50,411.59 342.96,415.10 343.41,419.88 344.78,419.56 345.23,423.16 347.96,425.13 349.33,429.07 352.97,420.62 355.24,415.13 355.70,414.39 356.15,411.04 357.52,406.71 357.97,404.27 358.43,401.18 358.88,398.57 359.34,400.58 360.70,403.15 361.16,404.48 361.61,409.78 362.07,411.67 367.53,411.27 367.98,411.01 368.43,413.25 368.89,415.76 370.25,415.78 373.89,420.79 374.35,425.23 374.80,429.59 379.81,426.05 380.26,424.44 380.72,420.02 381.63,424.83 382.99,432.22 383.45,439.94 383.90,451.17 384.36,450.02 386.18,440.62 387.09,432.07 387.54,430.68 388.00,424.92 389.36,419.64 390.73,418.07 391.18,419.18 393.00,420.63 393.46,420.94 393.91,427.29 395.73,438.15 398.92,425.48 402.10,415.71 402.56,416.43 403.01,418.16 403.47,419.76 403.92,428.00 405.29,432.64 405.74,435.88 413.48,432.16 415.30,429.46 419.85,431.01 421.21,437.32 421.67,439.97 422.12,441.59 422.58,446.43 425.30,459.05 426.21,458.53 427.58,459.29 428.03,463.40 428.49,461.06 428.94,464.93 430.76,465.36 431.22,464.32 432.13,461.97 432.58,462.46 438.50,462.51 438.95,458.70 440.32,454.23 440.77,451.80 441.23,447.70 442.14,444.17 443.50,443.64 443.96,441.82 444.41,446.14 444.87,451.31 445.32,458.28 447.60,464.38 450.78,462.74 451.24,461.99 451.69,461.95 453.51,464.98 454.88,464.34 456.24,464.33 456.70,465.42 457.15,462.05 459.43,461.25 459.88,460.70 461.25,464.89 463.52,466.69 463.98,472.09 464.43,469.96 465.80,471.76 466.25,477.54 466.71,486.39 467.16,490.95 468.98,498.45 469.44,501.39 469.89,501.56 470.35,501.35 470.80,502.75 472.17,504.61 472.62,506.77 473.08,509.30 473.53,511.82 473.99,513.23 475.35,512.03 475.81,506.98 476.26,503.80 476.72,500.11 480.35,501.61 482.17,502.51 482.63,505.03 483.08,504.69 485.36,501.79 486.72,494.82 488.09,488.86 488.54,485.42 489.00,488.40 489.45,492.92 489.91,497.58 491.27,502.58 491.73,506.56 499.01,506.25 499.46,508.64 500.83,512.41 501.28,516.13 501.74,519.38 510.38,517.77 514.48,518.67 514.93,519.53 517.21,520.90 517.66,522.62 518.57,524.42 519.94,525.03 520.39,523.72 520.85,524.83 521.30,524.30 521.76,523.38 524.03,522.34 529.95,519.76 530.40,516.50 530.86,515.82 531.31,515.67 533.13,514.78 533.59,513.29 534.04,513.82 534.49,514.49 536.31,515.39 536.77,512.36 537.22,505.55 539.95,502.94 540.41,505.40 540.86,506.11 542.68,502.90 543.14,495.94 543.59,488.03 544.05,478.47 545.41,470.62 545.87,465.10 546.32,464.03 546.78,463.78 547.23,462.14 548.60,459.25 549.05,463.08 549.51,467.35 549.96,473.85 550.42,477.10 551.78,480.36 564.52,477.77 564.98,478.31 565.43,480.75 565.89,484.82 566.34,495.74 567.71,506.85 569.53,505.39 570.89,504.87 571.35,503.69 571.80,501.40 572.26,499.02 574.08,498.59 575.90,495.05 581.36,495.52 581.81,496.96 582.27,494.51 583.63,494.84 584.54,496.75 585.00,497.24 585.45,498.06 586.82,497.49 587.73,495.30 588.18,500.67 590.45,504.66 591.36,504.83 591.82,505.69 593.18,504.03 593.64,504.02 594.09,504.90 594.55,504.08 595.00,503.90 597.28,504.30 604.10,506.52 604.56,503.35 605.92,500.61 607.74,495.50 609.11,488.75 609.56,483.52 610.02,481.57 610.47,479.93 610.93,479.32 612.75,479.42 613.20,482.01 613.66,485.14 614.11,488.59 615.48,492.42 615.93,495.24 623.21,491.93 626.40,488.37 626.85,488.96 628.22,488.51 628.67,492.48 629.13,497.15 629.58,488.57 632.77,473.14 633.22,460.71 634.59,449.50 635.04,446.65 635.50,444.65 635.95,443.04 636.41,441.66 637.77,441.37 638.23,444.86 638.68,447.59 639.14,448.77 647.78,443.88 650.51,443.68 650.96,446.91 651.42,456.47 651.87,464.73 652.33,473.95 654.60,475.42 655.06,478.07 655.51,477.80 656.88,478.38 657.33,476.08 657.79,472.72 658.24,467.00 660.06,459.59 670.53,460.61 670.98,459.06 671.44,460.13 672.80,461.95 673.26,475.48 673.71,487.73 674.62,498.08 675.99,507.38 676.44,506.01 676.90,505.14 677.35,506.14 677.81,505.64 679.17,504.12 679.63,502.16 680.08,499.85 680.54,499.50 687.36,499.00 689.18,497.80 689.64,497.91 690.09,496.49 691.91,495.47 693.73,491.75 696.46,491.18 696.92,491.23 698.74,489.70 699.19,491.39 699.65,493.83 700.10,495.51 701.92,497.43 702.37,499.18 702.83,500.68 708.29,498.56 708.74,501.11 709.20,503.95 709.65,505.48 711.02,505.65 711.47,508.98 714.20,504.91 715.11,503.16 715.57,495.96 716.02,484.99 717.39,469.34 718.30,453.38 718.75,444.62 719.21,442.77 720.57,446.60 721.03,450.69 721.48,453.99 721.94,457.64 722.39,457.99 724.21,462.40 731.95,463.39 733.31,465.66 733.77,465.96 736.95,460.21 737.41,456.44 737.86,453.27 738.32,452.22 739.68,452.43 740.14,453.35 740.59,454.08 741.05,456.84 742.87,456.14 743.32,454.80 746.05,448.03 746.51,444.22 746.96,443.42 747.42,443.50 747.87,447.05 749.24,446.90 749.69,444.00 750.15,443.78 750.60,443.24 752.88,446.64 753.33,448.54 756.97,450.06 757.42,454.54 758.79,458.35 759.24,458.43 759.70,456.19 760.15,456.75 760.61,456.79 762.43,457.91 762.88,458.76 763.34,465.20 763.79,468.27 765.16,467.94 766.52,461.82 766.98,458.99 772.89,469.35 773.35,478.39 774.71,486.03 775.17,488.06 775.62,487.74 776.08,488.65 776.53,491.23 777.90,494.91 778.35,498.55 779.26,503.10 779.72,507.91 781.08,510.87 781.54,511.14 781.99,511.07 782.45,511.93 782.90,508.85 784.27,505.22 793.82,505.08 794.28,509.32 794.73,511.11 795.19,502.09 795.64,490.82 798.37,497.20 798.83,508.56 800.19,517.13 800.65,519.31 801.10,520.70 804.74,516.27 805.20,515.69 806.56,515.66 807.02,518.02 807.47,520.47 807.93,524.07 816.57,522.93 817.02,522.34 817.48,521.71 820.21,512.78 820.66,500.76 822.94,491.32 823.39,488.25 823.85,485.63 824.30,482.34 825.67,478.66 826.12,477.42 826.58,470.17 827.03,466.67 827.49,461.67 828.85,456.72 829.31,458.91 829.76,466.49 830.22,473.81 830.67,482.50 832.04,495.62 835.22,499.39 835.68,502.89 836.13,506.02 836.59,499.45 837.04,490.17 838.41,477.68 838.86,464.76 839.32,453.64 845.69,475.40 847.96,482.74 849.33,479.49 849.78,475.56 851.15,470.57 851.60,464.61 852.06,460.21 860.70,474.70 862.07,480.69 862.52,485.89 863.89,483.63 864.34,483.14 865.25,485.94 865.71,486.52 867.07,486.26 867.53,486.22 868.43,486.25 868.89,483.35 870.25,477.64 874.80,473.43 877.08,466.51 877.53,461.69 877.99,456.49 878.44,447.02 879.81,446.34 880.26,445.43 880.72,445.21 881.17,453.60 881.63,466.44 883.45,477.68 883.90,489.64 886.18,477.96 886.63,464.53 887.09,452.78 887.54,452.92 888.00,454.12 890.27,460.46 894.37,460.87 898.92,457.77 899.37,453.68 906.65,455.34 909.84,461.60 910.29,460.95 911.66,459.30 912.11,454.85 912.57,453.38 913.02,448.54 918.03,447.80 918.48,448.45 918.94,445.68 921.67,450.41 923.03,456.54 924.85,450.21 925.30,449.46 925.76,448.79 928.49,440.48 931.22,447.82 931.67,454.92 938.95,454.79 940.32,451.55 941.23,445.75 944.41,443.85 945.32,440.76 946.69,438.15 947.14,435.18 947.60,430.71 948.05,427.18 948.51,424.95 949.87,424.25 950.33,429.36 950.78,434.28 951.24,439.89 953.06,445.65 957.61,444.08 958.06,442.33 959.88,439.26 960.34,436.47 960.79,422.46 961.25,407.20 962.61,393.16 963.07,378.35 963.52,363.74 963.98,359.81 964.43,356.14 965.80,352.65 966.25,351.04 966.71,350.56 967.16,351.87 967.62,354.24 968.98,357.96 969.44,360.85 969.89,365.27 981.72,360.48 982.63,356.45 983.08,353.52 983.54,348.96 984.90,342.92 985.36,334.08 985.81,326.56 986.27,313.03 986.72,302.09 988.09,290.42 988.54,281.15 989.00,273.72 989.45,272.53 989.91,271.81 991.27,272.23 991.73,271.79 992.18,270.40 992.64,266.52 993.09,259.37 994.46,253.35 994.91,249.80 995.37,244.43 995.82,236.47 996.28,231.22 997.64,223.91 998.55,210.46 999.01,200.34 999.46,193.81 1000.83,190.11 1001.28,190.85 1001.74,198.63 1002.19,217.27 1002.65,228.89 1004.01,237.32 1008.11,237.60 1008.56,236.74 1009.02,233.38 1010.38,231.89 1011.29,235.09 1011.75,242.06 1012.20,249.47 1013.57,254.56 1020.39,253.94 1020.85,251.10 1021.30,248.04 1021.76,241.79 1023.12,237.65 1023.58,232.61 1024.03,226.70 1024.49,223.08 1024.94,226.28 1026.31,232.56 1026.76,240.94 1027.22,258.74 1027.67,274.48 1030.40,267.41 1031.31,263.30 1032.68,261.09 1045.41,264.30 1045.87,267.15 1046.32,265.58 1046.78,266.22 1047.23,265.28 1048.60,260.43 1049.05,256.82 1049.96,259.55 1050.42,255.86 1052.69,247.76 1053.15,238.95 1056.33,239.86 1056.79,242.66 1058.15,246.68 1059.52,248.01 1063.16,252.41 1064.52,252.75 1064.98,251.40 1065.43,250.81 1065.89,248.12 1066.34,245.33 1067.71,243.98 1068.16,239.74 1068.62,235.13 1072.71,233.95 1074.08,240.33 1074.53,245.21 1074.99,245.26 1075.44,246.24 1077.26,245.87 1078.17,240.66 1078.63,237.70 1080.90,233.96 1081.36,234.03 1081.81,231.30 1082.27,229.66 1083.63,225.58 1084.09,216.09 1085.00,194.90 1085.45,173.60 1086.82,155.31 1087.27,145.40 1087.73,137.49 1088.18,129.98 1088.64,121.35 1090.00,112.97" fill="none" stroke="#0B6E4F" stroke-width="3" stroke-linejoin="round" stroke-linecap="round"/>
<rect x="96" y="90" width="330" height="58" rx="8" fill="#FFFFFF" opacity="0.86" stroke="#E5E7EB"/>
<line x1="108" y1="108" x2="144" y2="108" stroke="#0B6E4F" stroke-width="3"/>
<text x="154" y="112" font-family="Verdana, sans-serif" font-size="12" fill="#1F2933">Model cumulative PnL proxy</text>
</svg>