<svg xmlns="http://www.w3.org/2000/svg" width="1200" height="640" viewBox="0 0 1200 640">
<rect width="100%" height="100%" fill="#FBFAF7"/>
<text x="600" y="34" text-anchor="middle" font-family="Verdana, sans-serif" font-size="24" font-weight="700" fill="#1F2933">Real_Estate: SPG/AVB Model PnL With Train/Simulation Boundary</text>
<rect x="90.00" y="80" width="924.14" height="478" fill="#D8F3DC" opacity="0.35"/>
<text x="552.07" y="100" text-anchor="middle" font-family="Verdana, sans-serif" font-size="12" fill="#334155">Training/validation</text>
<rect x="1014.14" y="80" width="75.86" height="478" fill="#FFE8D6" opacity="0.45"/>
<text x="1052.07" y="100" text-anchor="middle" font-family="Verdana, sans-serif" font-size="12" fill="#334155">Simulation</text>
<line x1="90" y1="558.00" x2="1090" y2="558.00" stroke="#D7D7D7" stroke-width="1"/>
<text x="80" y="562.00" text-anchor="end" font-family="Verdana, sans-serif" font-size="11" fill="#475569">-1.1086</text>
<line x1="90" y1="462.40" x2="1090" y2="462.40" stroke="#D7D7D7" stroke-width="1"/>
<text x="80" y="466.40" text-anchor="end" font-family="Verdana, sans-serif" font-size="11" fill="#475569">-0.3822</text>
<line x1="90" y1="366.80" x2="1090" y2="366.80" stroke="#D7D7D7" stroke-width="1"/>
<text x="80" y="370.80" text-anchor="end" font-family="Verdana, sans-serif" font-size="11" fill="#475569">0.3442</text>
<line x1="90" y1="271.20" x2="1090" y2="271.20" stroke="#D7D7D7" stroke-width="1"/>
<text x="80" y="275.20" text-anchor="end" font-family="Verdana, sans-serif" font-size="11" fill="#475569">1.0706</text>
<line x1="90" y1="175.60" x2="1090" y2="175.60" stroke="#D7D7D7" stroke-width="1"/>
<text x="80" y="179.60" text-anchor="end" font-family="Verdana, sans-serif" font-size="11" fill="#475569">1.7970</text>
<line x1="90" y1="80.00" x2="1090" y2="80.00" stroke="#D7D7D7" stroke-width="1"/>
<text x="80" y="84.00" text-anchor="end" font-family="Verdana, sans-serif" font-size="11" fill="#475569">2.5234</text>
<line x1="90.00" y1="80" x2="90.00" y2="558" stroke="#ECECEC" stroke-width="1"/>
<text x="90.00" y="586" text-anchor="middle" font-family="Verdana, sans-serif" font-size="11" fill="#475569">2020-04-29</text>
<line x1="290.00" y1="80" x2="290.00" y2="558" stroke="#ECECEC" stroke-width="1"/>
<text x="290.00" y="586" text-anchor="middle" font-family="Verdana, sans-serif" font-size="11" fill="#475569">2021-05-11</text>
<line x1="490.00" y1="80" x2="490.00" y2="558" stroke="#ECECEC" stroke-width="1"/>
<text x="490.00" y="586" text-anchor="middle" font-family="Verdana, sans-serif" font-size="11" fill="#475569">2022-05-23</text>
<line x1="690.00" y1="80" x2="690.00" y2="558" stroke="#ECECEC" stroke-width="1"/>
<text x="690.00" y="586" text-anchor="middle" font-family="Verdana, sans-serif" font-size="11" fill="#475569">2023-06-04</text>
<line x1="890.00" y1="80" x2="890.00" y2="558" stroke="#ECECEC" stroke-width="1"/>
<text x="890.00" y="586" text-anchor="middle" font-family="Verdana, sans-serif" font-size="11" fill="#475569">2024-06-15</text>
<line x1="1090.00" y1="80" x2="1090.00" y2="558" stroke="#ECECEC" stroke-width="1"/>
<text x="1090.00" y="586" text-anchor="middle" font-family="Verdana, sans-serif" font-size="11" fill="#475569">2025-06-27</text>
<line x1="90" y1="80" x2="90" y2="558" stroke="#1F2933" stroke-width="1.2"/>
<line x1="90" y1="558" x2="1090" y2="558" stroke="#1F2933" stroke-width="1.2"/>
<text x="24" y="319" text-anchor="middle" transform="rotate(-90 24 319)" font-family="Verdana, sans-serif" font-size="13" fill="#1F2933">Cumulative PnL proxy</text>
<line x1="775.94" y1="80" x2="775.94" y2="558" stroke="#52796F" stroke-width="2.2" stroke-dasharray="2,5"/>
<text x="783.94" y="122" font-family="Verdana, sans-serif" font-size="12" fill="#52796F">Validation starts 2023-11-13</text>
<line x1="1014.14" y1="80" x2="1014.14" y2="558" stroke="#1D3557" stroke-width="2.2" stroke-dasharray="7,5"/>
<text x="1022.14" y="122" font-family="Verdana, sans-serif" font-size="12" fill="#1D3557">Simulation starts 2025-02-04</text>
<polyline points="90.00,412.11 93.71,428.25 94.24,445.90 108.57,431.21 111.22,395.30 111.75,373.95 114.93,385.55 115.46,395.03 115.99,403.70 128.20,401.16 129.79,399.18 130.32,404.42 131.38,404.21 134.03,396.83 135.09,390.66 135.62,384.90 140.93,392.88 141.46,397.34 141.99,402.86 143.05,404.27 146.76,391.13 148.89,399.20 149.42,406.12 149.95,412.60 150.48,419.06 161.09,410.72 161.62,404.43 166.92,398.35 168.51,407.06 169.05,415.27 175.94,412.01 176.47,411.10 178.06,408.43 180.19,401.52 181.78,391.06 183.90,382.56 185.49,378.12 186.02,375.08 186.55,362.60 187.08,353.38 187.61,351.98 189.20,354.81 189.73,364.76 190.27,384.73 190.80,402.41 191.33,417.27 195.04,420.62 197.16,423.29 197.69,418.70 198.22,403.23 198.75,395.56 205.12,393.03 205.65,389.57 206.18,384.63 207.77,381.76 208.30,376.47 208.83,367.72 209.36,355.86 209.89,350.41 212.02,341.75 212.55,339.30 213.08,342.35 213.61,341.08 215.20,344.55 215.73,349.33 216.26,348.16 216.79,346.12 218.91,346.52 220.50,351.03 228.46,348.72 230.58,341.05 233.77,338.21 234.30,336.69 234.83,332.32 235.89,334.62 237.48,339.23 238.01,346.28 238.54,355.78 239.07,366.24 241.72,361.72 242.25,354.59 242.79,344.86 243.32,337.55 249.15,334.13 250.74,327.41 252.86,328.54 253.40,330.18 253.93,333.12 254.46,337.48 256.05,348.09 259.76,348.11 260.29,350.29 261.88,343.07 263.47,340.44 264.01,342.19 267.72,341.15 268.25,337.45 268.78,337.01 270.90,334.94 276.74,337.93 278.86,342.31 282.57,336.19 283.10,327.82 283.63,318.45 284.16,311.18 287.35,313.61 289.47,315.65 290.00,320.57 290.53,329.61 294.77,328.22 298.49,326.60 299.02,326.92 301.14,324.59 301.67,322.04 302.20,322.88 306.45,323.83 308.57,328.19 309.10,332.00 309.63,333.40 310.16,334.05 311.75,333.82 313.34,333.88 313.87,335.82 315.99,335.45 317.06,333.24 317.59,332.35 319.71,336.32 323.42,344.79 323.95,351.03 324.48,356.79 325.01,366.92 326.60,380.17 327.14,388.22 327.67,391.57 328.20,392.70 328.73,393.99 330.32,386.25 330.85,385.65 331.38,387.86 332.44,386.38 339.34,380.27 339.87,377.83 341.46,377.54 341.99,383.34 342.52,389.58 343.05,396.59 343.58,401.65 349.42,407.03 349.95,413.36 354.19,411.06 354.72,409.51 356.31,404.33 357.37,400.14 360.03,398.79 361.62,399.76 362.15,403.35 363.74,399.90 364.27,398.00 364.80,399.27 367.45,405.63 367.98,411.65 372.23,409.08 376.47,404.50 378.59,404.98 379.12,407.14 382.31,407.04 386.02,394.99 387.61,401.67 388.14,408.96 389.73,415.96 390.27,419.62 400.88,425.94 401.41,425.15 401.94,430.27 402.47,432.17 403.00,433.98 404.59,440.10 405.12,445.92 405.65,452.10 406.18,455.56 406.71,456.80 408.30,455.60 408.83,453.40 409.36,449.04 409.89,445.73 412.55,443.33 421.03,442.82 421.56,447.36 423.69,452.71 424.22,461.29 425.28,467.32 426.87,468.71 427.40,469.49 427.93,467.57 428.46,465.50 428.99,467.23 430.58,469.61 431.11,471.71 431.64,477.65 432.71,482.16 434.30,480.81 434.83,482.29 435.36,485.78 435.89,480.33 436.42,477.82 439.07,469.61 443.85,480.22 447.56,485.75 450.74,491.52 451.27,491.37 452.86,485.33 453.40,486.50 453.93,486.57 454.46,489.24 454.99,492.16 456.58,496.07 458.17,495.31 458.70,497.62 460.29,499.31 462.41,503.81 464.01,503.26 464.54,504.73 465.07,514.20 465.60,521.28 466.13,522.94 468.25,525.03 468.78,519.32 469.31,514.63 471.43,509.58 476.74,502.41 477.27,490.63 480.45,472.10 480.98,454.16 482.57,435.63 483.10,415.64 484.16,410.64 484.69,410.66 486.29,413.35 486.82,419.47 487.35,416.80 487.88,418.49 488.41,421.44 490.00,431.50 490.53,443.60 498.49,438.40 499.02,432.21 505.92,440.44 508.57,442.86 509.63,446.26 510.16,448.07 512.81,448.39 513.34,450.71 513.87,447.26 514.40,439.55 515.99,431.38 523.42,431.19 523.95,433.06 524.48,440.11 525.01,452.68 528.73,446.33 529.26,440.04 535.09,440.95 538.28,440.99 538.81,437.90 539.34,435.43 543.58,434.78 544.11,433.50 549.95,432.86 550.48,429.74 551.01,423.12 551.54,415.98 553.13,407.73 556.84,409.19 557.37,410.01 557.90,411.60 558.44,410.03 561.09,409.29 561.62,402.21 562.15,389.84 564.80,375.92 565.33,366.15 565.86,362.55 566.39,354.69 567.98,351.09 568.51,349.54 569.05,345.66 569.58,337.77 571.70,331.00 572.23,323.03 572.76,314.84 573.29,304.89 573.82,295.86 575.94,282.21 595.04,274.30 595.57,268.92 617.85,268.00 621.03,270.67 621.56,270.77 628.99,273.71 631.64,274.71 632.18,272.90 632.71,272.74 633.24,272.37 635.36,271.74 636.42,271.38 636.95,268.14 650.21,260.40 650.74,249.00 658.70,252.58 662.41,258.50 662.94,263.30 664.54,267.80 665.07,270.16 665.60,273.43 666.13,275.14 666.66,275.67 668.25,275.94 668.78,276.40 669.31,275.86 669.84,281.37 670.37,286.60 671.96,292.91 673.55,297.01 674.08,300.82 675.68,305.90 676.21,313.91 676.74,318.01 677.27,322.47 677.80,326.94 679.39,326.34 679.92,325.12 680.45,322.00 680.98,317.77 681.51,314.47 692.12,315.69 692.65,316.51 694.24,317.04 695.84,320.23 696.37,322.36 698.49,324.45 699.02,325.12 699.55,321.62 700.08,315.26 701.67,310.28 702.20,305.07 706.98,306.02 707.51,305.14 710.16,305.10 711.22,309.49 712.81,310.70 713.34,311.16 714.93,308.11 717.06,305.21 723.95,309.73 725.01,314.61 736.15,317.62 736.68,317.74 737.21,312.82 739.34,306.20 739.87,298.50 740.40,290.83 740.93,282.21 746.23,285.66 747.29,289.96 754.72,291.61 755.25,295.72 758.97,299.96 759.50,302.04 761.09,303.36 761.62,304.79 762.15,302.26 762.68,299.09 763.21,292.05 764.80,282.15 765.33,275.39 839.07,275.49 839.60,273.31 857.64,274.35 858.17,272.15 858.70,270.61 866.13,269.38 869.31,269.50 870.37,267.54 872.49,267.24 878.33,264.36 880.45,258.19 880.98,248.41 881.51,238.28 894.77,241.53 895.31,244.17 895.84,245.16 896.37,246.50 896.90,246.35 898.49,249.50 899.02,251.28 899.55,249.46 900.61,251.47 902.20,252.06 902.73,250.67 903.26,249.66 904.32,245.31 918.65,239.33 919.18,233.37 925.54,233.26 926.07,232.96 926.60,231.26 928.73,228.96 934.03,230.24 935.62,232.77 936.15,233.18 936.68,235.49 937.21,238.97 939.34,243.34 939.87,244.38 940.40,244.09 940.93,240.47 941.46,234.33 943.05,232.10 948.36,226.79 951.54,221.95 954.72,221.16 962.68,220.93 963.21,216.76 963.74,209.55 965.33,200.30 965.86,197.40 966.39,193.70 971.17,188.95 981.78,180.13 988.14,181.40 1004.59,186.19 1015.73,180.46 1017.32,174.22 1017.85,164.43 1033.24,162.28 1033.77,162.21 1034.30,159.91 1035.89,154.24 1036.42,150.60 1045.44,145.37 1047.03,138.15 1047.56,132.35 1048.62,124.43 1054.99,129.40 1055.52,132.12 1056.05,131.96 1058.17,128.39 1058.70,123.99 1069.84,126.30 1084.16,128.78 1084.69,130.28 1085.23,132.49 1086.29,132.00 1087.88,131.74 1088.41,128.84 1088.94,123.49 1089.47,118.24 1090.00,112.97" fill="none" stroke="#0B6E4F" stroke-width="3" stroke-linejoin="round" stroke-linecap="round"/>
<rect x="96" y="90" width="330" height="58" rx="8" fill="#FFFFFF" opacity="0.86" stroke="#E5E7EB"/>
<line x1="108" y1="108" x2="144" y2="108" stroke="#0B6E4F" stroke-width="3"/>
<text x="154" y="112" font-family="Verdana, sans-serif" font-size="12" fill="#1F2933">Model cumulative PnL proxy</text>
</svg>