<svg xmlns="http://www.w3.org/2000/svg" width="1200" height="640" viewBox="0 0 1200 640">
<rect width="100%" height="100%" fill="#FBFAF7"/>
<text x="600" y="34" text-anchor="middle" font-family="Verdana, sans-serif" font-size="24" font-weight="700" fill="#1F2933">Tech: ADBE/AMD Simulation PnL vs S&amp;P 500</text>
<line x1="90" y1="558.00" x2="1090" y2="558.00" stroke="#D7D7D7" stroke-width="1"/>
<text x="80" y="562.00" text-anchor="end" font-family="Verdana, sans-serif" font-size="11" fill="#475569">-0.3902</text>
<text x="1100" y="562.00" text-anchor="start" font-family="Verdana, sans-serif" font-size="11" fill="#475569">-21.6%</text>
<line x1="90" y1="462.40" x2="1090" y2="462.40" stroke="#D7D7D7" stroke-width="1"/>
<text x="80" y="466.40" text-anchor="end" font-family="Verdana, sans-serif" font-size="11" fill="#475569">0.2916</text>
<text x="1100" y="466.40" text-anchor="start" font-family="Verdana, sans-serif" font-size="11" fill="#475569">-13.1%</text>
<line x1="90" y1="366.80" x2="1090" y2="366.80" stroke="#D7D7D7" stroke-width="1"/>
<text x="80" y="370.80" text-anchor="end" font-family="Verdana, sans-serif" font-size="11" fill="#475569">0.9733</text>
<text x="1100" y="370.80" text-anchor="start" font-family="Verdana, sans-serif" font-size="11" fill="#475569">-4.6%</text>
<line x1="90" y1="271.20" x2="1090" y2="271.20" stroke="#D7D7D7" stroke-width="1"/>
<text x="80" y="275.20" text-anchor="end" font-family="Verdana, sans-serif" font-size="11" fill="#475569">1.6551</text>
<text x="1100" y="275.20" text-anchor="start" font-family="Verdana, sans-serif" font-size="11" fill="#475569">3.9%</text>
<line x1="90" y1="175.60" x2="1090" y2="175.60" stroke="#D7D7D7" stroke-width="1"/>
<text x="80" y="179.60" text-anchor="end" font-family="Verdana, sans-serif" font-size="11" fill="#475569">2.3369</text>
<text x="1100" y="179.60" text-anchor="start" font-family="Verdana, sans-serif" font-size="11" fill="#475569">12.4%</text>
<line x1="90" y1="80.00" x2="1090" y2="80.00" stroke="#D7D7D7" stroke-width="1"/>
<text x="80" y="84.00" text-anchor="end" font-family="Verdana, sans-serif" font-size="11" fill="#475569">3.0186</text>
<text x="1100" y="84.00" text-anchor="start" font-family="Verdana, sans-serif" font-size="11" fill="#475569">20.9%</text>
<line x1="90.00" y1="80" x2="90.00" y2="558" stroke="#ECECEC" stroke-width="1"/>
<text x="90.00" y="586" text-anchor="middle" font-family="Verdana, sans-serif" font-size="11" fill="#475569">2025-02-18</text>
<line x1="290.00" y1="80" x2="290.00" y2="558" stroke="#ECECEC" stroke-width="1"/>
<text x="290.00" y="586" text-anchor="middle" font-family="Verdana, sans-serif" font-size="11" fill="#475569">2025-05-17</text>
<line x1="490.00" y1="80" x2="490.00" y2="558" stroke="#ECECEC" stroke-width="1"/>
<text x="490.00" y="586" text-anchor="middle" font-family="Verdana, sans-serif" font-size="11" fill="#475569">2025-08-13</text>
<line x1="690.00" y1="80" x2="690.00" y2="558" stroke="#ECECEC" stroke-width="1"/>
<text x="690.00" y="586" text-anchor="middle" font-family="Verdana, sans-serif" font-size="11" fill="#475569">2025-11-09</text>
<line x1="890.00" y1="80" x2="890.00" y2="558" stroke="#ECECEC" stroke-width="1"/>
<text x="890.00" y="586" text-anchor="middle" font-family="Verdana, sans-serif" font-size="11" fill="#475569">2026-02-05</text>
<line x1="1090.00" y1="80" x2="1090.00" y2="558" stroke="#ECECEC" stroke-width="1"/>
<text x="1090.00" y="586" text-anchor="middle" font-family="Verdana, sans-serif" font-size="11" fill="#475569">2026-05-04</text>
<line x1="90" y1="80" x2="90" y2="558" stroke="#1F2933" stroke-width="1.2"/>
<line x1="90" y1="558" x2="1090" y2="558" stroke="#1F2933" stroke-width="1.2"/>
<text x="24" y="319" text-anchor="middle" transform="rotate(-90 24 319)" font-family="Verdana, sans-serif" font-size="13" fill="#1F2933">Cumulative PnL proxy</text>
<line x1="1090" y1="80" x2="1090" y2="558" stroke="#1F2933" stroke-width="1.2"/>
<text x="1178" y="319" text-anchor="middle" transform="rotate(90 1178 319)" font-family="Verdana, sans-serif" font-size="13" fill="#1F2933">S&amp;P 500 cumulative return</text>
<polyline points="90.00,503.28 105.91,503.88 126.36,506.85 128.64,510.02 135.45,509.48 137.73,508.56 140.00,505.29 183.18,508.92 185.45,509.81 187.73,510.54 219.55,509.28 221.82,509.84 230.91,512.60 233.18,518.94 235.45,523.51 267.27,525.03 269.55,524.84 271.82,522.86 280.91,518.51 283.18,512.09 299.09,520.78 303.64,522.06 312.73,519.69 315.00,518.36 317.27,517.58 319.55,517.89 335.45,515.06 342.27,515.13 358.18,507.47 360.45,493.56 362.73,477.94 376.36,464.42 378.64,457.43 380.91,450.89 383.18,445.86 390.00,441.75 392.27,446.59 394.55,445.87 396.82,446.87 405.91,448.40 408.18,448.92 412.73,443.43 426.36,428.43 428.64,418.79 430.91,414.70 437.73,409.84 440.00,413.64 442.27,418.45 444.55,419.73 446.82,417.40 453.64,410.77 460.45,399.32 462.73,388.17 469.55,374.81 471.82,363.53 474.09,363.34 476.36,357.23 478.64,354.10 485.45,353.89 487.73,353.56 492.27,354.30 494.55,357.95 501.36,365.98 503.64,378.71 526.36,378.95 535.45,372.53 549.09,378.60 558.18,375.32 565.00,366.23 567.27,363.62 596.82,361.17 617.27,336.80 619.55,312.11 621.82,288.92 628.64,280.16 630.91,272.92 633.18,264.56 635.45,256.55 637.73,248.90 644.55,242.91 646.82,245.32 649.09,257.61 651.36,267.77 653.64,270.14 660.45,270.37 680.91,271.72 683.18,271.88 685.45,273.09 692.27,274.09 694.55,277.02 696.82,277.00 712.73,279.70 733.18,279.22 740.00,273.19 744.55,272.43 758.18,279.41 760.45,285.05 762.73,292.26 765.00,298.85 771.82,308.42 774.09,314.17 803.64,312.43 828.64,319.74 835.45,322.72 837.73,309.24 853.64,284.30 855.91,268.11 858.18,256.74 860.45,245.87 867.27,244.05 869.55,241.40 871.82,243.14 874.09,239.83 876.36,242.98 883.18,239.21 885.45,229.66 887.73,237.16 890.00,245.85 901.36,251.31 919.55,255.34 921.82,260.11 946.82,267.28 949.09,284.06 965.00,281.70 967.27,281.08 969.55,275.70 971.82,257.33 978.64,243.57 1001.36,241.23 1010.45,240.00 1012.73,243.22 1015.00,249.12 1017.27,245.60 1026.36,244.94 1033.18,229.54 1035.45,210.36 1042.27,199.61 1044.55,186.76 1046.82,182.07 1049.09,180.98 1051.36,183.12 1058.18,180.18 1060.45,178.92 1062.73,173.47 1065.00,161.47 1067.27,145.81 1076.36,134.27 1078.64,119.70 1080.91,112.97 1083.18,113.38 1090.00,120.29" fill="none" stroke="#184E77" stroke-width="3" stroke-linejoin="round" stroke-linecap="round"/>
<polyline points="90.00,314.76 90.00,314.76 92.27,312.09 94.55,316.97 96.82,336.11 103.64,341.59 105.91,346.72 108.18,346.57 110.45,363.90 112.73,346.86 119.55,366.07 121.82,379.20 124.09,367.37 126.36,386.46 128.64,380.65 135.45,409.19 137.73,416.98 140.00,411.99 142.27,426.25 144.55,404.72 151.36,398.09 153.64,409.17 155.91,398.06 158.18,400.33 160.45,399.47 167.27,381.14 169.55,379.47 171.82,391.29 174.09,394.75 176.36,415.36 183.18,409.69 185.45,405.80 187.73,398.85 190.00,449.17 192.27,508.29 199.09,510.46 201.36,525.03 203.64,438.10 205.91,472.73 208.18,455.25 215.00,447.44 217.27,449.15 219.55,471.32 221.82,470.04 230.91,492.87 233.18,469.11 235.45,452.96 237.73,432.99 240.00,425.57 246.82,424.92 249.09,419.04 251.36,417.53 253.64,411.10 255.91,395.97 262.73,402.62 265.00,410.59 267.27,406.13 269.55,400.14 271.82,400.88 278.64,367.09 280.91,359.32 283.18,358.21 285.45,353.75 287.73,346.15 294.55,345.19 296.82,349.43 299.09,367.01 301.36,367.49 303.64,374.67 312.73,352.90 315.00,358.95 317.27,354.62 319.55,354.71 326.36,350.26 328.64,343.95 330.91,343.87 333.18,349.65 335.45,338.45 342.27,337.44 344.55,331.40 346.82,334.44 349.09,330.22 351.36,342.74 358.18,332.45 360.45,341.69 362.73,342.03 367.27,344.41 374.09,333.90 376.36,321.62 378.64,321.62 380.91,312.66 383.18,306.78 390.00,300.94 392.27,302.21 394.55,296.82 396.82,287.30 405.91,296.35 408.18,297.17 410.45,290.25 412.73,287.09 415.00,290.89 421.82,289.27 424.09,293.82 426.36,290.17 428.64,283.99 430.91,284.10 437.73,282.48 440.00,281.75 442.27,272.71 444.55,271.89 446.82,267.26 453.64,267.05 455.91,270.52 458.18,271.98 460.45,276.29 462.73,294.88 469.55,278.02 471.82,283.66 474.09,275.25 476.36,276.18 478.64,267.11 485.45,270.04 487.73,256.78 490.00,252.97 492.27,252.61 494.55,256.04 501.36,256.16 503.64,263.09 505.91,265.95 508.18,270.64 510.45,252.91 517.27,257.96 519.55,253.08 521.82,250.25 524.09,246.50 526.36,254.13 535.45,262.33 537.73,256.33 540.00,246.46 542.27,250.23 549.09,247.73 551.36,244.53 553.64,240.96 555.91,230.80 558.18,231.38 565.00,225.70 567.27,227.26 569.55,228.44 571.82,222.64 574.09,216.70 580.91,211.31 583.18,218.07 585.45,221.54 587.73,227.64 590.00,220.49 596.82,217.28 599.09,212.28 601.36,208.11 603.64,207.35 605.91,207.27 612.73,202.78 615.00,207.49 617.27,200.32 619.55,203.73 621.82,237.21 628.64,218.47 630.91,220.38 633.18,215.47 635.45,223.17 637.73,216.77 644.55,203.73 646.82,203.69 649.09,210.28 651.36,203.12 653.64,193.36 660.45,178.05 662.73,175.17 665.00,175.22 667.27,187.74 669.55,184.46 676.36,182.30 678.64,197.05 680.91,192.51 683.18,206.44 685.45,204.89 692.27,185.89 694.55,183.29 696.82,182.49 699.09,203.29 701.36,203.91 708.18,215.23 710.45,225.33 712.73,220.77 715.00,239.73 717.27,227.95 724.09,209.23 726.36,198.09 728.64,189.52 733.18,182.83 740.00,189.52 742.27,186.45 744.55,182.71 746.82,181.36 749.09,178.92 755.91,183.30 758.18,184.40 760.45,175.94 762.73,173.31 765.00,186.81 771.82,188.80 774.09,191.78 776.36,206.24 778.64,196.46 780.91,185.51 787.73,177.44 790.00,171.70 792.27,167.62 796.82,168.01 803.64,172.44 805.91,174.18 808.18,183.49 812.73,181.11 819.55,173.12 821.82,165.28 824.09,169.66 826.36,169.56 828.64,161.34 835.45,159.33 837.73,161.81 840.00,168.62 842.27,165.34 844.55,166.16 853.64,192.41 855.91,177.97 858.18,171.05 860.45,170.63 867.27,164.29 869.55,159.08 871.82,159.19 874.09,160.84 876.36,166.34 883.18,159.48 885.45,170.23 887.73,176.66 890.00,192.12 892.27,167.57 899.09,161.61 901.36,165.83 903.64,165.89 905.91,185.82 908.18,185.20 917.27,183.91 919.55,176.92 921.82,180.48 924.09,171.75 930.91,184.91 933.18,175.32 935.45,165.04 937.73,171.87 940.00,177.37 946.82,176.87 949.09,188.78 951.36,179.09 953.64,186.20 955.91,202.83 962.73,192.57 965.00,195.23 967.27,196.27 969.55,215.19 971.82,222.60 978.64,210.28 980.91,207.22 983.18,223.97 985.45,227.31 987.73,245.65 994.55,231.99 996.82,236.50 999.09,229.99 1001.36,251.03 1003.64,270.89 1010.45,275.49 1012.73,241.61 1015.00,233.03 1017.27,231.68 1026.36,226.33 1028.64,225.41 1030.91,194.98 1033.18,187.31 1035.45,188.73 1042.27,176.02 1044.55,161.14 1046.82,150.95 1049.09,147.59 1051.36,132.05 1058.18,135.15 1060.45,143.42 1062.73,129.87 1065.00,135.28 1067.27,124.89 1074.09,123.27 1076.36,129.71 1078.64,130.23 1080.91,116.84 1083.18,112.97 1090.00,118.35" fill="none" stroke="#D1495B" stroke-width="2.5" stroke-linejoin="round" stroke-linecap="round" opacity="0.9"/>
<rect x="96" y="90" width="330" height="58" rx="8" fill="#FFFFFF" opacity="0.86" stroke="#E5E7EB"/>
<line x1="108" y1="108" x2="144" y2="108" stroke="#184E77" stroke-width="3"/>
<text x="154" y="112" font-family="Verdana, sans-serif" font-size="12" fill="#1F2933">Model cumulative PnL proxy</text>
<line x1="108" y1="132" x2="144" y2="132" stroke="#D1495B" stroke-width="2.5"/>
<text x="154" y="136" font-family="Verdana, sans-serif" font-size="12" fill="#1F2933">S&amp;P 500 cumulative return</text>
<text x="90" y="618" font-family="Verdana, sans-serif" font-size="12" fill="#475569">simulation trades=150, total pnl=2.73131</text>
</svg>