<svg xmlns="http://www.w3.org/2000/svg" width="1200" height="640" viewBox="0 0 1200 640">
<rect width="100%" height="100%" fill="#FBFAF7"/>
<text x="600" y="34" text-anchor="middle" font-family="Verdana, sans-serif" font-size="24" font-weight="700" fill="#1F2933">Tech: ADBE/AMD Model PnL With Train/Simulation Boundary</text>
<rect x="90.00" y="80" width="797.54" height="478" fill="#D8F3DC" opacity="0.35"/>
<text x="488.77" y="100" text-anchor="middle" font-family="Verdana, sans-serif" font-size="12" fill="#334155">Training/validation</text>
<rect x="887.54" y="80" width="202.46" height="478" fill="#FFE8D6" opacity="0.45"/>
<text x="988.77" y="100" text-anchor="middle" font-family="Verdana, sans-serif" font-size="12" fill="#334155">Simulation</text>
<line x1="90" y1="558.00" x2="1090" y2="558.00" stroke="#D7D7D7" stroke-width="1"/>
<text x="80" y="562.00" text-anchor="end" font-family="Verdana, sans-serif" font-size="11" fill="#475569">-1.5586</text>
<line x1="90" y1="462.40" x2="1090" y2="462.40" stroke="#D7D7D7" stroke-width="1"/>
<text x="80" y="466.40" text-anchor="end" font-family="Verdana, sans-serif" font-size="11" fill="#475569">-0.6953</text>
<line x1="90" y1="366.80" x2="1090" y2="366.80" stroke="#D7D7D7" stroke-width="1"/>
<text x="80" y="370.80" text-anchor="end" font-family="Verdana, sans-serif" font-size="11" fill="#475569">0.1680</text>
<line x1="90" y1="271.20" x2="1090" y2="271.20" stroke="#D7D7D7" stroke-width="1"/>
<text x="80" y="275.20" text-anchor="end" font-family="Verdana, sans-serif" font-size="11" fill="#475569">1.0313</text>
<line x1="90" y1="175.60" x2="1090" y2="175.60" stroke="#D7D7D7" stroke-width="1"/>
<text x="80" y="179.60" text-anchor="end" font-family="Verdana, sans-serif" font-size="11" fill="#475569">1.8946</text>
<line x1="90" y1="80.00" x2="1090" y2="80.00" stroke="#D7D7D7" stroke-width="1"/>
<text x="80" y="84.00" text-anchor="end" font-family="Verdana, sans-serif" font-size="11" fill="#475569">2.7579</text>
<line x1="90.00" y1="80" x2="90.00" y2="558" stroke="#ECECEC" stroke-width="1"/>
<text x="90.00" y="586" text-anchor="middle" font-family="Verdana, sans-serif" font-size="11" fill="#475569">2020-04-27</text>
<line x1="290.00" y1="80" x2="290.00" y2="558" stroke="#ECECEC" stroke-width="1"/>
<text x="290.00" y="586" text-anchor="middle" font-family="Verdana, sans-serif" font-size="11" fill="#475569">2021-07-10</text>
<line x1="490.00" y1="80" x2="490.00" y2="558" stroke="#ECECEC" stroke-width="1"/>
<text x="490.00" y="586" text-anchor="middle" font-family="Verdana, sans-serif" font-size="11" fill="#475569">2022-09-23</text>
<line x1="690.00" y1="80" x2="690.00" y2="558" stroke="#ECECEC" stroke-width="1"/>
<text x="690.00" y="586" text-anchor="middle" font-family="Verdana, sans-serif" font-size="11" fill="#475569">2023-12-06</text>
<line x1="890.00" y1="80" x2="890.00" y2="558" stroke="#ECECEC" stroke-width="1"/>
<text x="890.00" y="586" text-anchor="middle" font-family="Verdana, sans-serif" font-size="11" fill="#475569">2025-02-18</text>
<line x1="1090.00" y1="80" x2="1090.00" y2="558" stroke="#ECECEC" stroke-width="1"/>
<text x="1090.00" y="586" text-anchor="middle" font-family="Verdana, sans-serif" font-size="11" fill="#475569">2026-05-04</text>
<line x1="90" y1="80" x2="90" y2="558" stroke="#1F2933" stroke-width="1.2"/>
<line x1="90" y1="558" x2="1090" y2="558" stroke="#1F2933" stroke-width="1.2"/>
<text x="24" y="319" text-anchor="middle" transform="rotate(-90 24 319)" font-family="Verdana, sans-serif" font-size="13" fill="#1F2933">Cumulative PnL proxy</text>
<line x1="693.73" y1="80" x2="693.73" y2="558" stroke="#52796F" stroke-width="2.2" stroke-dasharray="2,5"/>
<text x="701.73" y="122" font-family="Verdana, sans-serif" font-size="12" fill="#52796F">Validation starts 2023-12-15</text>
<line x1="887.54" y1="80" x2="887.54" y2="558" stroke="#1D3557" stroke-width="2.2" stroke-dasharray="7,5"/>
<text x="895.54" y="122" font-family="Verdana, sans-serif" font-size="12" fill="#1D3557">Simulation starts 2025-02-13</text>
<polyline points="90.00,385.41 93.18,389.82 93.64,400.73 96.37,404.25 96.82,405.35 97.28,404.16 97.73,397.95 98.19,396.25 99.55,396.47 100.01,396.85 104.10,400.78 105.92,403.73 106.83,408.07 122.76,412.78 129.13,409.50 129.58,406.27 130.04,392.39 131.86,379.54 132.31,365.37 132.77,351.52 133.22,348.79 134.59,344.71 135.04,335.20 135.50,331.95 135.95,332.23 136.41,328.30 137.77,323.89 138.23,326.83 138.68,327.72 139.14,327.70 139.59,329.74 140.96,331.72 147.32,334.93 147.78,340.74 151.42,336.95 165.07,341.33 166.43,348.07 166.89,355.46 167.34,360.11 167.80,364.77 175.99,363.09 176.90,366.62 177.35,371.28 177.81,374.92 179.17,375.14 179.63,373.65 182.36,370.86 182.81,370.90 183.72,369.32 185.54,368.21 186.45,367.95 187.36,369.39 188.73,367.88 189.18,367.54 189.64,366.35 191.91,368.67 192.37,372.22 192.82,375.30 196.46,376.39 196.92,379.94 198.74,387.23 205.10,383.57 205.56,375.62 206.47,370.52 208.74,371.01 209.20,370.37 211.47,371.04 211.93,374.79 212.84,375.76 214.20,375.71 214.66,377.16 220.57,380.22 224.21,382.04 224.67,381.63 227.40,378.36 231.95,378.03 233.31,375.02 234.22,374.66 234.68,375.17 235.13,374.26 236.50,374.73 236.95,374.59 237.41,374.45 238.32,375.24 239.68,378.04 253.79,377.48 255.61,374.45 262.43,374.58 262.88,373.68 263.34,375.23 263.79,377.97 265.16,379.83 266.07,380.61 269.25,385.04 271.98,382.20 275.62,387.84 301.56,384.68 302.01,384.36 303.38,386.84 303.83,390.18 304.29,395.97 304.74,399.51 313.84,400.19 314.29,401.28 316.57,401.70 317.48,403.11 319.30,402.30 328.85,398.08 329.31,395.64 329.76,392.40 330.22,391.12 330.67,389.60 332.04,390.07 332.49,391.02 332.95,392.04 333.40,394.50 333.86,397.00 335.22,400.13 340.23,401.14 341.59,398.70 343.41,393.57 346.60,388.07 347.96,388.50 348.42,387.72 348.87,387.11 349.33,388.39 349.78,390.65 351.15,390.67 351.60,390.72 352.06,387.97 352.97,386.63 355.70,389.94 356.15,386.28 357.97,388.15 359.34,397.05 360.70,405.61 364.80,394.39 367.53,391.38 367.98,392.16 368.43,392.99 368.89,393.44 370.25,392.47 370.71,392.89 371.16,386.65 373.44,386.35 374.35,389.65 374.80,391.80 375.26,391.88 378.44,394.64 379.81,403.80 383.90,404.80 386.18,394.49 386.63,383.92 390.73,381.81 391.18,373.94 393.00,364.66 393.46,358.36 393.91,355.68 394.37,353.31 395.73,354.85 396.19,362.74 396.64,368.75 403.92,373.35 405.29,376.94 405.74,385.36 408.93,381.28 409.38,388.04 409.84,399.58 410.29,412.08 413.02,414.48 413.48,415.36 414.84,414.30 415.30,413.11 415.75,413.37 416.21,411.50 418.03,410.72 425.76,405.37 426.21,397.76 427.58,391.51 428.03,389.08 428.49,384.08 428.94,385.12 429.40,389.32 430.76,391.70 431.67,391.80 434.40,395.53 434.86,399.09 435.31,401.83 440.32,400.32 441.68,402.05 443.96,395.85 444.41,389.24 444.87,382.84 445.32,381.88 447.14,381.49 447.60,382.09 448.05,386.69 449.87,389.64 450.33,392.61 450.78,397.74 456.24,399.89 456.70,398.78 457.15,394.00 457.61,389.37 458.06,385.40 459.43,379.58 466.25,379.44 466.71,383.02 469.44,389.70 472.17,393.39 472.62,396.01 473.08,396.38 473.53,396.13 473.99,393.81 475.35,388.54 475.81,383.63 476.26,378.58 479.90,378.66 480.35,382.30 482.17,387.04 482.63,393.55 483.08,398.03 483.54,402.95 491.27,404.09 491.73,405.46 492.18,408.56 492.64,409.80 493.09,410.20 494.46,413.68 494.91,419.84 501.28,422.73 501.74,428.58 502.19,432.63 502.65,436.66 504.01,444.24 504.47,451.93 504.92,456.89 505.38,461.92 505.83,465.69 507.20,465.22 507.65,464.31 508.11,458.58 508.56,445.17 509.02,430.57 510.38,420.99 511.75,429.38 512.20,440.30 513.57,445.65 520.39,446.78 528.13,452.19 529.49,454.32 529.95,458.58 530.40,460.17 530.86,465.19 534.04,466.50 534.49,465.74 536.31,465.74 536.77,466.61 537.68,465.84 539.50,462.95 539.95,459.70 544.05,464.09 545.41,466.25 545.87,469.16 546.32,471.08 547.23,471.26 550.42,466.20 551.78,461.47 552.24,457.76 553.60,458.53 559.06,456.33 559.52,451.33 559.97,438.41 561.34,426.99 561.79,418.19 562.25,408.63 562.70,403.79 563.16,409.20 564.52,415.70 564.98,420.13 565.43,422.62 565.89,421.75 569.07,418.53 569.53,418.15 570.89,421.08 571.35,428.60 571.80,432.73 572.26,435.44 575.90,438.50 577.72,441.19 578.17,444.24 578.63,447.20 580.45,446.11 580.90,445.06 581.36,442.81 581.81,442.22 582.27,442.38 585.00,444.11 585.45,445.80 586.82,447.18 587.27,448.86 587.73,446.46 588.18,445.65 588.64,445.06 590.00,442.79 590.45,438.50 593.64,427.24 594.09,416.91 594.55,412.24 595.00,404.72 596.37,403.87 596.82,400.94 597.28,401.11 597.73,401.01 598.19,406.22 599.55,408.45 600.01,412.68 600.46,413.07 600.92,416.14 606.38,420.77 606.83,421.15 607.29,423.59 609.11,428.24 609.56,439.36 610.02,450.06 610.47,460.98 610.93,472.93 612.75,480.36 613.66,488.05 619.57,485.81 620.03,483.90 620.48,483.30 625.03,486.57 625.49,489.17 625.94,492.54 626.40,495.41 626.85,499.16 628.22,503.50 628.67,504.58 629.13,505.19 631.86,507.84 633.22,506.03 634.59,501.50 635.04,497.84 635.50,493.80 644.60,498.12 645.05,502.71 645.51,510.28 645.96,514.18 647.78,516.88 648.23,519.42 648.69,522.50 650.51,525.03 650.96,523.48 651.42,522.71 651.87,521.09 652.33,517.31 653.69,512.52 658.70,508.08 660.06,506.79 660.52,504.58 660.97,504.63 661.43,507.16 661.88,508.36 663.25,508.11 663.70,508.70 664.16,512.97 672.80,512.49 679.63,512.92 682.81,514.54 684.18,516.56 686.00,518.29 686.91,517.42 687.36,516.66 688.73,516.01 693.28,507.40 693.73,498.35 695.10,491.79 695.55,485.60 696.01,481.68 696.46,483.84 696.92,486.34 698.74,484.39 699.19,480.48 699.65,475.03 700.10,471.41 701.92,468.38 702.37,466.78 702.83,465.43 703.28,463.67 704.65,461.19 705.10,458.12 705.56,456.46 706.01,457.41 706.47,460.33 708.29,458.84 708.74,456.67 711.47,453.22 711.93,448.99 712.38,448.35 712.84,447.84 714.20,449.46 714.66,453.84 715.11,459.48 715.57,463.73 716.02,467.35 724.67,457.58 725.12,443.60 725.58,436.56 726.94,438.68 727.40,436.73 727.85,435.33 728.31,436.68 728.76,432.20 730.13,424.81 730.58,415.13 731.04,403.21 731.49,397.03 731.95,391.95 733.31,392.53 733.77,400.01 734.22,410.63 734.68,420.58 735.13,412.80 738.32,417.99 739.68,420.37 742.87,419.82 753.33,421.36 753.79,421.97 754.24,420.88 755.61,418.06 756.06,413.46 756.52,414.62 759.24,422.97 759.70,423.72 760.15,422.77 760.61,421.43 761.97,421.08 762.43,417.88 762.88,415.08 766.52,416.01 766.98,413.56 768.80,410.37 769.25,409.28 769.71,399.83 771.53,392.05 771.98,388.97 772.44,383.49 772.89,386.54 773.35,391.29 774.71,397.65 775.17,401.56 775.62,404.70 788.36,397.61 788.82,389.17 794.73,388.37 795.19,390.26 795.64,393.18 797.01,395.85 798.37,401.30 798.83,401.16 800.19,397.51 800.65,395.96 801.10,394.80 801.56,389.91 805.20,387.61 813.84,392.92 814.29,397.23 814.75,400.67 816.11,404.05 817.48,403.16 817.93,390.62 819.30,375.30 819.75,360.12 823.85,353.99 825.67,349.27 826.12,344.21 826.58,342.46 827.03,341.62 827.49,337.63 828.85,328.59 829.31,322.65 829.76,316.18 830.22,315.72 830.67,314.19 832.04,321.17 832.49,329.50 832.95,336.70 833.86,340.89 841.59,348.42 842.05,357.95 843.41,358.27 844.78,360.86 845.23,368.87 845.69,377.19 846.14,387.87 847.96,390.23 867.53,391.56 868.43,392.54 870.25,386.76 873.44,384.82 873.89,386.36 874.35,388.45 874.80,392.07 875.26,395.86 877.08,400.83 877.99,404.61 887.09,411.00 887.54,416.09 888.00,419.96 889.82,421.21 893.00,421.69 897.10,424.03 897.55,426.53 898.92,426.11 899.37,425.38 899.83,422.80 908.47,425.67 908.93,426.37 909.38,426.94 915.75,425.95 916.21,426.39 918.03,428.57 918.48,433.58 918.94,437.18 925.30,438.39 925.76,438.24 926.21,436.68 928.03,433.24 928.49,428.17 931.67,435.03 932.58,436.04 934.40,434.17 934.86,433.12 935.31,432.50 935.77,432.75 938.95,430.51 940.32,430.57 943.50,424.52 943.96,413.53 944.41,401.20 947.14,390.52 947.60,385.00 948.05,379.84 948.51,375.86 949.87,372.62 950.33,376.44 950.78,375.87 951.24,376.66 953.06,377.87 953.51,378.28 954.42,373.95 957.15,362.10 957.61,354.49 958.06,351.26 959.43,347.42 959.88,350.42 960.34,354.22 960.79,355.23 961.25,353.39 962.61,348.15 963.98,339.11 964.43,330.30 965.80,319.75 966.25,310.85 966.71,310.70 967.16,305.87 967.62,303.40 968.98,303.23 969.44,302.97 970.35,303.56 970.80,306.44 972.17,312.78 972.62,322.83 977.17,323.02 978.99,317.95 981.72,322.75 983.54,320.15 984.90,312.97 985.36,310.92 991.27,308.98 995.37,289.73 995.82,270.24 996.28,251.92 997.64,245.00 998.10,239.29 998.55,232.69 999.01,226.36 999.46,220.32 1000.83,215.58 1001.28,217.49 1001.74,227.20 1002.19,235.22 1002.65,237.09 1004.01,237.28 1008.11,238.34 1008.56,238.47 1009.02,239.42 1010.38,240.21 1010.84,242.53 1011.29,242.51 1014.48,244.64 1018.57,244.26 1019.94,239.50 1020.85,238.90 1023.58,244.41 1024.03,248.87 1024.49,254.56 1024.94,259.76 1026.31,267.33 1026.76,271.87 1032.68,270.49 1037.68,276.26 1039.04,278.62 1039.50,267.97 1042.68,248.28 1043.14,235.49 1043.59,226.51 1044.05,217.93 1045.41,216.49 1045.87,214.40 1046.32,215.77 1046.78,213.15 1047.23,215.64 1048.60,212.67 1049.05,205.12 1049.51,211.05 1049.96,217.91 1052.24,222.22 1055.88,225.40 1056.33,229.17 1061.34,234.83 1061.79,248.09 1064.98,246.22 1065.43,245.73 1065.89,241.48 1066.34,226.98 1067.71,216.11 1072.26,214.26 1074.08,213.29 1074.53,215.83 1074.99,220.49 1075.44,217.71 1077.26,217.19 1078.63,205.03 1079.08,189.88 1080.45,181.39 1080.90,171.24 1081.36,167.54 1081.81,166.68 1082.27,168.37 1083.63,166.05 1084.09,165.06 1084.54,160.75 1085.00,151.27 1085.45,138.91 1087.27,129.79 1087.73,118.29 1088.18,112.97 1088.64,113.30 1090.00,118.75" fill="none" stroke="#0B6E4F" stroke-width="3" stroke-linejoin="round" stroke-linecap="round"/>
<rect x="96" y="90" width="330" height="58" rx="8" fill="#FFFFFF" opacity="0.86" stroke="#E5E7EB"/>
<line x1="108" y1="108" x2="144" y2="108" stroke="#0B6E4F" stroke-width="3"/>
<text x="154" y="112" font-family="Verdana, sans-serif" font-size="12" fill="#1F2933">Model cumulative PnL proxy</text>
</svg>