<svg xmlns="http://www.w3.org/2000/svg" width="1200" height="640" viewBox="0 0 1200 640">
<rect width="100%" height="100%" fill="#FBFAF7"/>
<text x="600" y="34" text-anchor="middle" font-family="Verdana, sans-serif" font-size="24" font-weight="700" fill="#1F2933">Utilities: SO/XEL Simulation PnL vs S&amp;P 500</text>
<line x1="90" y1="558.00" x2="1090" y2="558.00" stroke="#D7D7D7" stroke-width="1"/>
<text x="80" y="562.00" text-anchor="end" font-family="Verdana, sans-serif" font-size="11" fill="#475569">-0.0464</text>
<text x="1100" y="562.00" text-anchor="start" font-family="Verdana, sans-serif" font-size="11" fill="#475569">-18.8%</text>
<line x1="90" y1="462.40" x2="1090" y2="462.40" stroke="#D7D7D7" stroke-width="1"/>
<text x="80" y="466.40" text-anchor="end" font-family="Verdana, sans-serif" font-size="11" fill="#475569">0.0882</text>
<text x="1100" y="466.40" text-anchor="start" font-family="Verdana, sans-serif" font-size="11" fill="#475569">-10.2%</text>
<line x1="90" y1="366.80" x2="1090" y2="366.80" stroke="#D7D7D7" stroke-width="1"/>
<text x="80" y="370.80" text-anchor="end" font-family="Verdana, sans-serif" font-size="11" fill="#475569">0.2228</text>
<text x="1100" y="370.80" text-anchor="start" font-family="Verdana, sans-serif" font-size="11" fill="#475569">-1.6%</text>
<line x1="90" y1="271.20" x2="1090" y2="271.20" stroke="#D7D7D7" stroke-width="1"/>
<text x="80" y="275.20" text-anchor="end" font-family="Verdana, sans-serif" font-size="11" fill="#475569">0.3574</text>
<text x="1100" y="275.20" text-anchor="start" font-family="Verdana, sans-serif" font-size="11" fill="#475569">7.0%</text>
<line x1="90" y1="175.60" x2="1090" y2="175.60" stroke="#D7D7D7" stroke-width="1"/>
<text x="80" y="179.60" text-anchor="end" font-family="Verdana, sans-serif" font-size="11" fill="#475569">0.4920</text>
<text x="1100" y="179.60" text-anchor="start" font-family="Verdana, sans-serif" font-size="11" fill="#475569">15.6%</text>
<line x1="90" y1="80.00" x2="1090" y2="80.00" stroke="#D7D7D7" stroke-width="1"/>
<text x="80" y="84.00" text-anchor="end" font-family="Verdana, sans-serif" font-size="11" fill="#475569">0.6266</text>
<text x="1100" y="84.00" text-anchor="start" font-family="Verdana, sans-serif" font-size="11" fill="#475569">24.2%</text>
<line x1="90.00" y1="80" x2="90.00" y2="558" stroke="#ECECEC" stroke-width="1"/>
<text x="90.00" y="586" text-anchor="middle" font-family="Verdana, sans-serif" font-size="11" fill="#475569">2025-01-08</text>
<line x1="290.00" y1="80" x2="290.00" y2="558" stroke="#ECECEC" stroke-width="1"/>
<text x="290.00" y="586" text-anchor="middle" font-family="Verdana, sans-serif" font-size="11" fill="#475569">2025-04-12</text>
<line x1="490.00" y1="80" x2="490.00" y2="558" stroke="#ECECEC" stroke-width="1"/>
<text x="490.00" y="586" text-anchor="middle" font-family="Verdana, sans-serif" font-size="11" fill="#475569">2025-07-16</text>
<line x1="690.00" y1="80" x2="690.00" y2="558" stroke="#ECECEC" stroke-width="1"/>
<text x="690.00" y="586" text-anchor="middle" font-family="Verdana, sans-serif" font-size="11" fill="#475569">2025-10-19</text>
<line x1="890.00" y1="80" x2="890.00" y2="558" stroke="#ECECEC" stroke-width="1"/>
<text x="890.00" y="586" text-anchor="middle" font-family="Verdana, sans-serif" font-size="11" fill="#475569">2026-01-22</text>
<line x1="1090.00" y1="80" x2="1090.00" y2="558" stroke="#ECECEC" stroke-width="1"/>
<text x="1090.00" y="586" text-anchor="middle" font-family="Verdana, sans-serif" font-size="11" fill="#475569">2026-04-27</text>
<line x1="90" y1="80" x2="90" y2="558" stroke="#1F2933" stroke-width="1.2"/>
<line x1="90" y1="558" x2="1090" y2="558" stroke="#1F2933" stroke-width="1.2"/>
<text x="24" y="319" text-anchor="middle" transform="rotate(-90 24 319)" font-family="Verdana, sans-serif" font-size="13" fill="#1F2933">Cumulative PnL proxy</text>
<line x1="1090" y1="80" x2="1090" y2="558" stroke="#1F2933" stroke-width="1.2"/>
<text x="1178" y="319" text-anchor="middle" transform="rotate(90 1178 319)" font-family="Verdana, sans-serif" font-size="13" fill="#1F2933">S&amp;P 500 cumulative return</text>
<polyline points="90.00,525.03 106.88,515.56 159.62,492.08 161.73,463.58 163.84,432.59 212.36,370.80 284.09,354.97 324.18,349.93 368.48,350.22 370.59,319.63 372.70,277.57 374.81,233.02 454.98,226.71 499.28,239.93 505.61,264.88 507.72,282.83 514.05,281.77 516.16,278.58 518.27,279.37 520.38,291.26 522.49,303.68 530.93,326.20 533.04,338.77 535.15,330.20 537.26,331.18 543.59,324.23 545.70,312.31 547.81,307.45 581.56,302.81 590.00,300.77 606.88,300.49 608.99,305.95 611.10,310.29 623.76,314.57 625.86,310.73 632.19,302.56 634.30,295.64 638.52,336.35 651.18,359.23 653.29,383.42 655.40,394.09 661.73,392.57 663.84,393.16 665.95,399.32 670.17,379.08 676.50,351.61 678.61,317.95 680.72,292.12 725.02,324.38 727.13,345.64 729.24,363.19 735.57,373.01 737.68,381.17 739.79,372.90 741.90,366.93 744.01,369.68 750.34,375.15 752.45,371.53 758.78,367.67 765.11,368.41 786.20,355.01 788.31,341.75 796.75,334.71 798.86,325.57 800.97,313.09 809.41,309.69 811.52,285.69 813.63,244.61 815.74,212.19 817.85,177.12 824.18,158.64 889.58,162.56 900.13,164.09 902.24,165.46 904.35,153.93 912.78,140.19 914.89,126.09 917.00,112.97 927.55,125.44 929.66,138.25 933.88,158.36 935.99,182.47 948.65,176.16 957.09,187.29 959.20,191.30 961.31,194.69 965.53,190.79 971.86,180.57 973.97,166.20 976.08,148.82 1009.83,128.65 1016.16,118.55 1047.81,134.22 1064.68,123.62 1066.79,126.06 1068.90,132.53 1075.23,149.66 1081.56,140.92 1083.67,128.60 1090.00,117.35" fill="none" stroke="#184E77" stroke-width="3" stroke-linejoin="round" stroke-linecap="round"/>
<polyline points="90.00,349.11 90.00,349.11 94.22,366.26 100.55,364.53 102.66,363.28 104.77,343.15 106.88,345.52 108.99,334.36 117.43,324.47 119.54,317.49 121.65,311.41 123.76,314.69 130.08,331.42 132.19,321.00 134.30,326.34 136.41,320.35 138.52,326.11 144.85,334.75 146.96,326.61 149.07,322.17 151.18,318.02 153.29,328.84 159.62,321.24 161.73,320.85 163.84,323.96 165.95,312.09 168.06,312.18 176.50,309.36 178.61,306.62 180.72,311.63 182.83,331.26 189.16,336.88 191.27,342.15 193.38,342.00 195.49,359.77 197.59,342.29 203.92,361.99 206.03,375.45 208.14,363.33 210.25,382.91 212.36,376.95 218.69,406.22 220.80,414.21 222.91,409.09 225.02,423.72 227.13,401.63 233.46,394.83 235.57,406.20 237.68,394.80 239.79,397.13 241.90,396.25 248.23,377.44 250.34,375.74 252.45,387.86 254.56,391.41 256.67,412.54 263.00,406.73 265.11,402.74 267.22,395.61 269.32,447.22 271.43,507.86 277.76,510.09 279.87,525.03 281.98,435.87 284.09,471.38 286.20,453.46 292.53,445.45 294.64,447.20 296.75,469.95 298.86,468.63 307.30,492.04 309.41,467.68 311.52,451.11 313.63,430.63 315.74,423.02 322.07,422.36 324.18,416.32 326.29,414.78 328.40,408.18 330.51,392.66 336.84,399.48 338.95,407.66 341.05,403.07 343.16,396.93 345.27,397.69 351.60,363.03 353.71,355.07 355.82,353.93 357.93,349.35 360.04,341.56 366.37,340.58 368.48,344.93 370.59,362.96 372.70,363.44 374.81,370.81 383.25,348.49 385.36,354.69 387.47,350.25 389.58,350.34 395.91,345.78 398.02,339.30 400.13,339.22 402.24,345.15 404.35,333.67 410.68,332.63 412.78,326.43 414.89,329.55 417.00,325.22 419.11,338.06 425.44,327.51 427.55,336.98 429.66,337.33 433.88,339.78 440.21,329.00 442.32,316.40 444.43,316.40 446.54,307.21 448.65,301.18 454.98,295.19 457.09,296.49 459.20,290.96 461.31,281.20 469.75,290.48 471.86,291.32 473.97,284.22 476.08,280.99 478.19,284.88 484.51,283.23 486.62,287.89 488.73,284.14 490.84,277.81 492.95,277.92 499.28,276.26 501.39,275.51 503.50,266.24 505.61,265.40 507.72,260.64 514.05,260.43 516.16,263.99 518.27,265.49 520.38,269.91 522.49,288.97 528.82,271.68 530.93,277.47 533.04,268.84 535.15,269.79 537.26,260.49 543.59,263.50 545.70,249.90 547.81,245.99 549.92,245.62 552.03,249.14 558.35,249.26 560.46,256.37 562.57,259.30 564.68,264.12 566.79,245.92 573.12,251.11 575.23,246.11 577.34,243.20 579.45,239.35 581.56,247.18 590.00,255.59 592.11,249.43 594.22,239.31 596.33,243.18 602.66,240.61 604.77,237.33 606.88,233.68 608.99,223.25 611.10,223.85 617.43,218.02 619.54,219.62 621.65,220.83 623.76,214.89 625.86,208.79 632.19,203.27 634.30,210.19 636.41,213.76 638.52,220.01 640.63,212.68 646.96,209.38 649.07,204.26 651.18,199.98 653.29,199.20 655.40,199.12 661.73,194.51 663.84,199.35 665.95,191.99 668.06,195.49 670.17,229.83 676.50,210.61 678.61,212.56 680.72,207.53 682.83,215.43 684.94,208.86 691.27,195.48 693.38,195.44 695.49,202.20 697.59,194.86 699.70,184.85 706.03,169.15 708.14,166.19 710.25,166.25 712.36,179.08 714.47,175.72 720.80,173.51 722.91,188.63 725.02,183.98 727.13,198.27 729.24,196.67 735.57,177.18 737.68,174.52 739.79,173.71 741.90,195.04 744.01,195.67 750.34,207.28 752.45,217.64 754.56,212.97 756.67,232.41 758.78,220.33 765.11,201.13 767.22,189.70 769.32,180.91 773.54,174.05 779.87,180.91 781.98,177.76 784.09,173.93 786.20,172.54 788.31,170.04 794.64,174.54 796.75,175.67 798.86,166.98 800.97,164.29 803.08,178.13 809.41,180.18 811.52,183.23 813.63,198.06 815.74,188.03 817.85,176.80 824.18,168.52 826.29,162.64 828.40,158.45 832.62,158.85 838.95,163.40 841.05,165.18 843.16,174.73 847.38,172.29 853.71,164.09 855.82,156.05 857.93,160.54 860.04,160.44 862.15,152.01 868.48,149.95 870.59,152.49 872.70,159.48 874.81,156.11 876.92,156.95 885.36,183.87 887.47,169.06 889.58,161.97 891.69,161.54 898.02,155.03 900.13,149.70 902.24,149.80 904.35,151.50 906.46,157.14 912.78,150.10 914.89,161.13 917.00,167.73 919.11,183.58 921.22,158.40 927.55,152.29 929.66,156.61 931.77,156.68 933.88,177.12 935.99,176.48 944.43,175.16 946.54,167.99 948.65,171.64 950.76,162.69 957.09,176.18 959.20,166.34 961.31,155.80 963.42,162.81 965.53,168.45 971.86,167.93 973.97,180.16 976.08,170.21 978.19,177.51 980.30,194.56 986.62,184.04 988.73,186.77 990.84,187.83 992.95,207.24 995.06,214.84 1001.39,202.21 1003.50,199.06 1005.61,216.25 1007.72,219.68 1009.83,238.48 1016.16,224.47 1018.27,229.10 1020.38,222.42 1022.49,244.00 1024.60,264.37 1030.93,269.09 1033.04,234.34 1035.15,225.54 1037.26,224.15 1045.70,218.67 1047.81,217.73 1049.92,186.52 1052.03,178.65 1054.14,180.11 1060.46,167.07 1062.57,151.81 1064.68,141.36 1066.79,137.91 1068.90,121.96 1075.23,125.15 1077.34,133.63 1079.45,119.74 1081.56,125.29 1083.67,114.63 1090.00,112.97" fill="none" stroke="#D1495B" stroke-width="2.5" stroke-linejoin="round" stroke-linecap="round" opacity="0.9"/>
<rect x="96" y="90" width="330" height="58" rx="8" fill="#FFFFFF" opacity="0.86" stroke="#E5E7EB"/>
<line x1="108" y1="108" x2="144" y2="108" stroke="#184E77" stroke-width="3"/>
<text x="154" y="112" font-family="Verdana, sans-serif" font-size="12" fill="#1F2933">Model cumulative PnL proxy</text>
<line x1="108" y1="132" x2="144" y2="132" stroke="#D1495B" stroke-width="2.5"/>
<text x="154" y="136" font-family="Verdana, sans-serif" font-size="12" fill="#1F2933">S&amp;P 500 cumulative return</text>
<text x="90" y="618" font-family="Verdana, sans-serif" font-size="12" fill="#475569">simulation trades=99, total pnl=0.57402</text>
</svg>