<svg xmlns="http://www.w3.org/2000/svg" width="1200" height="640" viewBox="0 0 1200 640">
<rect width="100%" height="100%" fill="#FBFAF7"/>
<text x="600" y="34" text-anchor="middle" font-family="Verdana, sans-serif" font-size="24" font-weight="700" fill="#1F2933">Utilities: SO/XEL Model PnL With Train/Simulation Boundary</text>
<rect x="90.00" y="80" width="773.33" height="478" fill="#D8F3DC" opacity="0.35"/>
<text x="476.67" y="100" text-anchor="middle" font-family="Verdana, sans-serif" font-size="12" fill="#334155">Training/validation</text>
<rect x="863.33" y="80" width="226.67" height="478" fill="#FFE8D6" opacity="0.45"/>
<text x="976.67" y="100" text-anchor="middle" font-family="Verdana, sans-serif" font-size="12" fill="#334155">Simulation</text>
<line x1="90" y1="558.00" x2="1090" y2="558.00" stroke="#D7D7D7" stroke-width="1"/>
<text x="80" y="562.00" text-anchor="end" font-family="Verdana, sans-serif" font-size="11" fill="#475569">-0.5606</text>
<line x1="90" y1="462.40" x2="1090" y2="462.40" stroke="#D7D7D7" stroke-width="1"/>
<text x="80" y="466.40" text-anchor="end" font-family="Verdana, sans-serif" font-size="11" fill="#475569">-0.1458</text>
<line x1="90" y1="366.80" x2="1090" y2="366.80" stroke="#D7D7D7" stroke-width="1"/>
<text x="80" y="370.80" text-anchor="end" font-family="Verdana, sans-serif" font-size="11" fill="#475569">0.2691</text>
<line x1="90" y1="271.20" x2="1090" y2="271.20" stroke="#D7D7D7" stroke-width="1"/>
<text x="80" y="275.20" text-anchor="end" font-family="Verdana, sans-serif" font-size="11" fill="#475569">0.6840</text>
<line x1="90" y1="175.60" x2="1090" y2="175.60" stroke="#D7D7D7" stroke-width="1"/>
<text x="80" y="179.60" text-anchor="end" font-family="Verdana, sans-serif" font-size="11" fill="#475569">1.0989</text>
<line x1="90" y1="80.00" x2="1090" y2="80.00" stroke="#D7D7D7" stroke-width="1"/>
<text x="80" y="84.00" text-anchor="end" font-family="Verdana, sans-serif" font-size="11" fill="#475569">1.5138</text>
<line x1="90.00" y1="80" x2="90.00" y2="558" stroke="#ECECEC" stroke-width="1"/>
<text x="90.00" y="586" text-anchor="middle" font-family="Verdana, sans-serif" font-size="11" fill="#475569">2020-05-13</text>
<line x1="290.00" y1="80" x2="290.00" y2="558" stroke="#ECECEC" stroke-width="1"/>
<text x="290.00" y="586" text-anchor="middle" font-family="Verdana, sans-serif" font-size="11" fill="#475569">2021-07-22</text>
<line x1="490.00" y1="80" x2="490.00" y2="558" stroke="#ECECEC" stroke-width="1"/>
<text x="490.00" y="586" text-anchor="middle" font-family="Verdana, sans-serif" font-size="11" fill="#475569">2022-09-30</text>
<line x1="690.00" y1="80" x2="690.00" y2="558" stroke="#ECECEC" stroke-width="1"/>
<text x="690.00" y="586" text-anchor="middle" font-family="Verdana, sans-serif" font-size="11" fill="#475569">2023-12-09</text>
<line x1="890.00" y1="80" x2="890.00" y2="558" stroke="#ECECEC" stroke-width="1"/>
<text x="890.00" y="586" text-anchor="middle" font-family="Verdana, sans-serif" font-size="11" fill="#475569">2025-02-16</text>
<line x1="1090.00" y1="80" x2="1090.00" y2="558" stroke="#ECECEC" stroke-width="1"/>
<text x="1090.00" y="586" text-anchor="middle" font-family="Verdana, sans-serif" font-size="11" fill="#475569">2026-04-27</text>
<line x1="90" y1="80" x2="90" y2="558" stroke="#1F2933" stroke-width="1.2"/>
<line x1="90" y1="558" x2="1090" y2="558" stroke="#1F2933" stroke-width="1.2"/>
<text x="24" y="319" text-anchor="middle" transform="rotate(-90 24 319)" font-family="Verdana, sans-serif" font-size="13" fill="#1F2933">Cumulative PnL proxy</text>
<line x1="676.67" y1="80" x2="676.67" y2="558" stroke="#52796F" stroke-width="2.2" stroke-dasharray="2,5"/>
<text x="684.67" y="122" font-family="Verdana, sans-serif" font-size="12" fill="#52796F">Validation starts 2023-11-10</text>
<line x1="863.33" y1="80" x2="863.33" y2="558" stroke="#1D3557" stroke-width="2.2" stroke-dasharray="7,5"/>
<text x="871.33" y="122" font-family="Verdana, sans-serif" font-size="12" fill="#1D3557">Simulation starts 2024-12-20</text>
<polyline points="90.00,428.81 93.22,431.97 94.14,434.82 100.57,430.40 101.95,425.44 102.41,421.45 102.87,420.11 106.09,421.92 106.55,421.36 109.77,435.42 110.23,440.01 111.61,442.04 112.07,441.06 112.53,441.22 112.99,439.70 114.83,437.83 115.29,437.78 116.21,437.90 116.67,434.68 123.10,439.75 124.48,446.28 125.40,449.42 125.86,453.78 126.32,459.56 127.70,465.77 128.16,475.61 128.62,488.35 129.08,498.51 129.54,511.10 130.92,521.09 131.38,524.57 131.84,525.03 132.30,524.99 132.76,521.04 134.14,516.08 134.60,516.37 135.06,513.52 145.17,511.45 145.63,508.23 147.01,505.68 147.47,511.93 147.93,513.13 148.39,503.62 150.69,489.10 151.15,473.58 151.61,470.18 152.07,472.46 153.45,478.59 153.91,483.41 154.37,487.68 154.83,494.30 161.26,495.96 166.32,486.09 166.78,483.01 167.24,480.22 167.70,486.87 168.16,494.64 169.54,501.27 170.00,505.18 170.46,509.28 175.98,505.24 176.44,505.49 176.90,495.27 177.36,485.20 177.82,478.20 179.20,467.52 179.66,454.49 180.11,448.48 181.03,443.25 182.41,439.47 182.87,439.33 183.79,432.48 184.25,421.62 185.63,411.54 186.55,403.06 187.01,399.55 187.47,400.67 188.85,402.10 189.31,402.66 189.77,404.20 190.23,409.75 190.69,415.54 200.34,411.36 201.72,399.09 203.10,400.43 203.56,404.45 205.40,406.45 208.62,416.42 211.84,409.93 215.52,400.44 215.98,388.10 216.44,380.42 218.74,377.94 219.20,379.84 219.66,387.32 221.03,385.57 221.49,393.53 221.95,394.01 224.25,394.19 227.47,399.86 227.93,408.13 229.31,407.72 231.15,408.36 232.53,413.01 235.75,419.78 237.13,423.60 237.59,422.67 238.05,421.13 238.51,420.97 240.34,424.73 240.80,426.65 241.26,430.45 241.72,432.94 242.18,434.19 243.56,432.66 244.02,432.42 244.48,431.10 248.16,433.56 248.62,435.30 250.00,436.77 250.46,437.09 250.92,436.26 251.38,433.99 251.84,432.01 253.22,431.16 259.66,428.69 261.49,432.63 263.33,434.69 264.25,431.18 264.71,428.49 266.55,425.71 267.01,422.59 267.47,418.03 270.69,416.89 271.15,416.68 272.53,417.67 272.99,417.97 273.45,415.90 273.91,414.66 274.37,413.56 276.21,411.99 276.67,411.43 277.13,411.81 278.97,415.35 279.43,417.25 279.89,419.54 284.02,422.30 286.32,423.28 286.78,424.16 287.24,424.07 288.62,422.25 289.08,418.74 289.54,411.24 290.00,404.24 290.46,398.20 292.76,400.69 293.22,401.71 293.68,401.71 295.06,401.57 296.44,402.33 296.90,402.79 301.95,401.14 302.41,398.63 302.87,399.38 303.33,399.45 304.71,395.48 305.17,391.51 305.63,388.05 306.55,385.24 307.93,388.71 308.39,390.67 308.85,394.39 309.31,400.04 309.77,403.54 314.83,398.97 315.29,389.73 315.75,380.53 316.21,374.17 317.59,369.24 318.05,365.06 318.51,364.07 318.97,362.25 319.43,362.98 320.80,363.45 321.26,362.18 321.72,363.57 322.18,367.19 324.48,375.14 327.24,370.80 328.16,371.98 328.62,376.13 331.38,376.85 331.84,374.46 332.30,373.65 333.68,372.35 334.14,369.43 335.52,367.81 337.82,368.73 341.03,367.89 341.49,367.85 341.95,367.11 343.33,373.13 343.79,377.98 344.25,384.31 344.71,390.81 345.17,396.48 347.47,395.61 350.23,392.33 350.69,392.50 353.91,391.52 356.21,395.72 359.43,391.20 362.64,392.04 363.10,393.99 363.56,394.97 364.02,395.35 364.48,392.96 365.86,393.51 367.70,399.04 372.76,395.07 373.22,390.96 380.11,389.08 380.57,386.03 385.17,382.82 385.63,381.82 386.09,379.86 387.01,384.32 391.61,386.32 393.45,393.59 394.83,395.04 395.29,396.94 395.75,397.24 396.21,393.87 396.67,386.78 398.05,382.77 398.97,377.71 403.10,375.72 404.48,376.39 404.94,376.10 405.40,375.82 406.32,373.64 408.16,371.24 409.54,371.81 411.38,374.43 411.84,375.76 414.14,375.58 415.98,375.79 417.36,376.68 419.20,380.71 421.03,378.05 421.95,375.08 422.41,370.54 425.17,373.44 425.63,379.84 427.47,381.54 427.93,383.42 428.85,383.29 430.23,383.87 430.69,382.72 431.15,380.02 431.61,373.88 439.89,370.86 440.80,370.34 441.26,368.81 441.72,364.61 443.56,357.15 444.02,353.73 444.48,350.55 444.94,353.48 446.78,363.31 447.24,371.38 447.70,378.68 452.76,372.60 453.68,366.50 459.20,367.04 459.66,366.90 461.03,369.14 462.41,371.30 466.09,369.55 466.55,369.56 469.77,371.41 470.69,369.11 472.07,365.30 472.53,360.25 472.99,355.99 475.75,357.26 476.21,358.44 477.13,357.62 480.34,361.17 481.72,365.48 482.18,366.62 485.86,366.08 486.32,366.75 495.06,362.19 505.63,371.56 506.09,377.45 511.15,376.03 512.07,370.99 512.53,370.59 513.91,371.56 514.83,370.91 520.34,362.54 522.18,361.95 523.56,361.64 524.02,361.63 524.48,362.45 524.94,360.13 526.78,358.70 527.24,356.31 527.70,354.41 528.16,350.94 528.62,347.45 530.46,345.05 530.92,344.16 531.38,344.00 531.84,344.20 533.68,342.33 534.14,340.09 534.60,339.10 536.44,346.15 536.90,356.69 537.36,367.92 540.11,369.34 540.57,367.65 541.03,366.20 541.49,363.82 542.87,363.10 543.33,363.68 544.25,363.32 551.15,366.79 554.37,363.49 556.21,360.60 558.97,357.93 559.43,356.01 559.89,352.23 560.34,347.82 560.80,344.07 562.18,339.65 562.64,331.06 563.10,327.29 563.56,323.86 564.02,319.05 565.40,320.50 565.86,324.06 566.32,328.33 566.78,330.72 567.24,334.63 572.30,330.04 573.68,334.66 575.06,341.54 575.52,350.02 579.66,346.75 580.11,343.67 581.95,336.40 588.85,329.49 589.31,322.77 589.77,317.23 591.15,312.51 591.61,307.87 592.07,303.96 592.53,300.88 592.99,301.07 594.37,300.12 594.83,299.87 595.29,299.43 595.75,297.54 597.59,294.05 598.05,289.20 598.51,285.80 598.97,283.28 599.43,282.95 601.26,279.43 601.72,282.87 602.18,281.74 602.64,278.13 604.02,275.93 604.48,275.03 605.40,271.44 605.86,266.97 607.24,261.68 607.70,256.37 608.62,260.57 610.92,262.42 613.68,258.04 621.49,258.36 624.71,260.78 625.17,259.52 626.55,258.72 627.01,255.79 627.47,253.51 627.93,240.61 656.44,244.83 656.90,249.59 657.36,253.91 662.87,255.71 663.79,257.42 668.39,257.67 668.85,258.07 672.07,256.14 672.53,254.94 672.99,251.02 679.89,249.48 695.06,251.64 695.52,254.13 697.82,260.25 699.20,261.87 701.03,265.83 701.49,264.97 701.95,267.17 702.41,270.61 703.79,271.42 704.25,267.38 705.17,259.14 705.63,249.24 724.94,245.47 726.32,241.60 727.24,234.87 816.90,238.83 829.31,232.47 843.56,240.69 853.68,242.73 855.06,241.82 855.52,245.33 855.98,250.17 856.44,251.72 856.90,252.40 858.74,250.32 859.20,248.21 859.66,246.65 875.75,243.58 887.24,235.96 887.70,226.72 888.16,216.66 898.74,196.61 914.37,191.48 923.10,189.85 932.76,189.94 933.22,180.01 933.68,166.37 934.14,151.92 951.61,149.87 961.26,154.16 962.64,162.25 963.10,168.07 964.48,167.73 964.94,166.70 965.40,166.95 965.86,170.81 966.32,174.84 968.16,182.15 968.62,186.23 969.08,183.44 969.54,183.76 970.92,181.51 971.38,177.64 971.84,176.06 979.20,174.56 981.03,173.89 984.71,173.81 985.17,175.58 985.63,176.98 988.39,178.37 988.85,177.13 990.23,174.48 990.69,172.23 991.61,185.44 994.37,192.86 994.83,200.71 995.29,204.17 996.67,203.68 997.13,203.87 997.59,205.87 998.51,199.30 999.89,190.39 1000.34,179.47 1000.80,171.09 1010.46,181.56 1010.92,188.45 1011.38,194.15 1012.76,197.33 1013.22,199.98 1013.68,197.30 1014.14,195.36 1014.60,196.25 1015.98,198.03 1016.44,196.85 1017.82,195.60 1019.20,195.84 1023.79,191.49 1024.25,187.19 1026.09,184.91 1026.55,181.94 1027.01,177.89 1028.85,176.79 1029.31,169.00 1029.77,155.68 1030.23,145.16 1030.69,133.78 1032.07,127.78 1046.32,129.06 1048.62,129.55 1049.08,130.00 1049.54,126.26 1051.38,121.80 1051.84,117.22 1052.30,112.97 1054.60,117.01 1055.06,121.17 1055.98,127.69 1056.44,135.51 1059.20,133.47 1061.03,137.08 1061.49,138.38 1061.95,139.48 1062.87,138.21 1064.25,134.90 1064.71,130.24 1065.17,124.60 1072.53,118.05 1073.91,114.78 1080.80,119.86 1084.48,116.42 1084.94,117.21 1085.40,119.31 1086.78,124.87 1088.16,122.03 1088.62,118.04 1090.00,114.39" fill="none" stroke="#0B6E4F" stroke-width="3" stroke-linejoin="round" stroke-linecap="round"/>
<rect x="96" y="90" width="330" height="58" rx="8" fill="#FFFFFF" opacity="0.86" stroke="#E5E7EB"/>
<line x1="108" y1="108" x2="144" y2="108" stroke="#0B6E4F" stroke-width="3"/>
<text x="154" y="112" font-family="Verdana, sans-serif" font-size="12" fill="#1F2933">Model cumulative PnL proxy</text>
</svg>